<?xml version="1.0" encoding="UTF-8" standalone="no"?>
<!-- Created with Inkscape (http://www.inkscape.org/) -->

<svg
   width="72.597137mm"
   height="78.071136mm"
   viewBox="0 0 72.597138 78.071137"
   version="1.1"
   id="svg8"
   inkscape:version="1.2.1 (9c6d41e410, 2022-07-14)"
   sodipodi:docname="logo.svg"
   xmlns:inkscape="http://www.inkscape.org/namespaces/inkscape"
   xmlns:sodipodi="http://sodipodi.sourceforge.net/DTD/sodipodi-0.dtd"
   xmlns="http://www.w3.org/2000/svg"
   xmlns:svg="http://www.w3.org/2000/svg"
   xmlns:rdf="http://www.w3.org/1999/02/22-rdf-syntax-ns#"
   xmlns:cc="http://creativecommons.org/ns#"
   xmlns:dc="http://purl.org/dc/elements/1.1/">
  <defs
     id="defs2" />
  <sodipodi:namedview
     id="base"
     pagecolor="#ffffff"
     bordercolor="#666666"
     borderopacity="1.0"
     inkscape:pageopacity="0.0"
     inkscape:pageshadow="2"
     inkscape:zoom="0.69999999"
     inkscape:cx="507.14286"
     inkscape:cy="201.42857"
     inkscape:document-units="mm"
     inkscape:current-layer="layer1"
     showgrid="false"
     inkscape:window-width="1920"
     inkscape:window-height="1017"
     inkscape:window-x="-8"
     inkscape:window-y="-8"
     inkscape:window-maximized="1"
     units="mm"
     inkscape:showpageshadow="2"
     inkscape:pagecheckerboard="0"
     inkscape:deskcolor="#d1d1d1" />
  <metadata
     id="metadata5">
    <rdf:RDF>
      <cc:Work
         rdf:about="">
        <dc:format>image/svg+xml</dc:format>
        <dc:type
           rdf:resource="http://purl.org/dc/dcmitype/StillImage" />
        <dc:title />
      </cc:Work>
    </rdf:RDF>
  </metadata>
  <g
     inkscape:label="Layer 1"
     inkscape:groupmode="layer"
     id="layer1"
     transform="translate(-203.71596,-210.31608)">
    <g
       id="g1446"
       inkscape:export-filename="..\..\..\sazonadosonsal\src\assets\logo.png"
       inkscape:export-xdpi="96"
       inkscape:export-ydpi="96"
       style="fill:#3d3846">
      <path
         style="font-style:normal;font-variant:normal;font-weight:bold;font-stretch:normal;font-size:12.4195px;line-height:1.25;font-family:'Life of Apple';-inkscape-font-specification:'Life of Apple Bold';letter-spacing:2.20663px;word-spacing:0px;fill:#3d3846;fill-opacity:1;stroke:none;stroke-width:1;stroke-miterlimit:4;stroke-dasharray:none;stroke-opacity:1"
         d="m 243.23188,210.31745 c -0.0712,0.003 -0.14112,0.0134 -0.20825,0.031 -0.23808,0.0608 -0.45033,0.20807 -0.601,0.39225 l -0.0103,0.0113 -0.008,0.0119 c -0.12293,0.16899 -0.19197,0.38759 -0.19482,0.60203 -0.0343,0.11401 -0.0455,0.22662 -0.0455,0.33745 -0.0215,1.55678 -0.0501,3.10319 -0.0822,4.63849 v 0.002 0.002 c -0.0215,1.5272 -0.0478,3.07118 -0.0801,4.63074 v 0.004 0.006 c 0,0.29475 0.11985,0.63085 0.38086,0.82217 0.19793,0.1474 0.44744,0.24239 0.70125,0.24239 0.24739,0 0.49364,-0.0972 0.68936,-0.24805 0.25959,-0.1845 0.40488,-0.5162 0.40618,-0.81288 0.0215,-1.13842 0.0384,-2.26772 0.0491,-3.38482 v -0.006 c 0.007,-0.3564 0.0123,-0.71687 0.0191,-1.07434 0.0414,0.0926 0.0816,0.17957 0.12351,0.27336 0.31178,0.70956 0.6215,1.41949 0.93327,2.12908 h 0.002 v 0.002 c 0.29846,0.66897 0.60807,1.34303 0.92604,2.02158 v 0.0351 c 0,0.28102 0.10211,0.58907 0.32608,0.79066 l 0.01,0.008 0.008,0.008 c 0.19311,0.15801 0.44956,0.25789 0.70486,0.25789 0.24109,0 0.48562,-0.0807 0.68368,-0.22067 0.23882,-0.16311 0.36829,-0.45611 0.40049,-0.73226 0.0481,-0.16862 0.0732,-0.34877 0.045,-0.52194 0.0213,-1.47918 0.0427,-2.94778 0.0641,-4.40592 v -0.004 c 0.0323,-1.47574 0.0538,-2.96151 0.0646,-4.45865 v -0.002 -0.002 c 0,-0.29136 -0.12175,-0.62 -0.37672,-0.81235 -0.19705,-0.1556 -0.45174,-0.2522 -0.70332,-0.2522 -0.25382,0 -0.50126,0.095 -0.69918,0.24238 -0.0707,0.0518 -0.053,0.15335 -0.10335,0.22273 l -0.27957,-0.0941 v 0.6935 c 0,1.08373 -0.01,2.16151 -0.031,3.23442 v 0.004 0.002 c -0.003,0.3252 -0.0113,0.65413 -0.0155,0.98031 -0.004,-0.008 -0.006,-0.0171 -0.0103,-0.0253 l -0.002,-0.004 c -0.34301,-0.80391 -0.68585,-1.60298 -1.02887,-2.39625 l -0.004,-0.008 c -0.32933,-0.79703 -0.64668,-1.60531 -0.95498,-2.42364 l -0.002,-0.002 c -0.0858,-0.23849 -0.26057,-0.4523 -0.4806,-0.586 -0.17914,-0.11536 -0.40239,-0.17089 -0.61598,-0.16176 z m -8.33592,0.15299 c -0.21264,0.006 -0.42355,0.0353 -0.62994,0.0868 -0.52927,0.12678 -1.00654,0.38134 -1.40043,0.74982 -0.37285,0.34878 -0.67747,0.74957 -0.90796,1.19735 -3.9e-4,7.4e-4 -0.002,0.001 -0.002,0.002 -2.3e-4,4.5e-4 2.4e-4,0.001 0,0.002 -0.24271,0.46302 -0.43253,0.95483 -0.57051,1.47225 l -0.002,0.004 -0.002,0.006 c -0.12526,0.51234 -0.20407,1.03028 -0.23823,1.55442 v 0.006 l -0.002,0.006 c -0.0226,0.52039 -0.006,1.04064 0.0506,1.56065 l 0.002,0.006 v 0.004 c 0.0684,0.52475 0.18323,1.03434 0.34365,1.52704 0.0663,0.23091 0.14165,0.47149 0.2284,0.72089 l 0.004,0.0114 0.006,0.014 c 0.10278,0.25127 0.21797,0.49646 0.34365,0.73639 l 0.004,0.008 0.004,0.008 c 0.13847,0.24233 0.28875,0.47464 0.45113,0.69503 l 0.0103,0.0119 0.01,0.0119 c 0.18792,0.2255 0.40291,0.42111 0.64234,0.586 0.46686,0.33605 1.01869,0.51366 1.59783,0.51366 0.56046,0 1.09158,-0.11996 1.57045,-0.35758 0.51004,-0.23228 0.95675,-0.56536 1.3224,-0.99013 l 0.002,-0.004 c 0.3626,-0.40989 0.66812,-0.86675 0.9126,-1.36734 0.24085,-0.49318 0.42554,-1.00454 0.55242,-1.53323 0.13542,-0.53031 0.22103,-1.04164 0.2558,-1.53686 v -0.004 c 0.0457,-0.58703 0.0231,-1.18436 -0.0682,-1.78904 -0.0949,-0.62891 -0.30542,-1.21806 -0.62683,-1.75596 l -0.002,-0.002 c -0.2364,-0.40983 -0.54915,-0.76742 -0.92966,-1.06246 -0.38134,-0.30416 -0.82258,-0.51175 -1.30276,-0.61288 l -0.0274,-0.006 c -0.29548,-0.19222 -0.60444,-0.36896 -0.95912,-0.43148 l -5.1e-4,-0.001 c -0.21457,-0.0379 -0.42919,-0.0539 -0.64182,-0.0476 z m 1.9482,0.7095 -0.22583,0.32298 c -0.035,-0.0102 -0.0703,-0.0196 -0.10594,-0.0284 z m -1.95492,1.49294 c 0.0389,0.0463 0.0563,0.10787 0.10128,0.1478 l 0.0103,0.008 0.01,0.008 c 0.19174,0.1533 0.45853,0.24148 0.709,0.22066 l 0.0274,-0.002 0.0294,-0.006 c -0.001,2.1e-4 0.0369,-6.9e-4 0.0527,-0.002 0.0838,0.0462 0.14599,0.13033 0.23616,0.14832 l 0.0233,0.004 0.0238,0.002 c 0.0779,0.008 0.15394,-0.0176 0.23203,-0.0238 0.13881,0.0717 0.26476,0.15494 0.3731,0.29716 0.13931,0.18283 0.24763,0.38648 0.32815,0.61907 l 0.004,0.0114 0.004,0.0119 c 0.0923,0.23067 0.15758,0.4763 0.19534,0.74054 v 10e-4 c 0.0399,0.26935 0.0605,0.51983 0.0605,0.75036 0,0.32475 -0.0294,0.66998 -0.0899,1.03299 l -0.002,0.006 v 0.006 c -0.0491,0.3437 -0.13318,0.68231 -0.25167,1.01801 l -0.002,0.004 v 0.004 c -0.1069,0.32068 -0.24851,0.62572 -0.42375,0.91779 -0.17019,0.28363 -0.37022,0.52943 -0.60358,0.74414 h 0.002 l -0.008,0.008 c -0.18722,0.17872 -0.40041,0.31051 -0.65009,0.40619 -0.2019,0.0713 -0.38953,0.077 -0.62115,0.008 l -0.0119,-0.002 -0.01,-0.004 c -0.0961,-0.024 -0.16688,-0.0611 -0.23667,-0.12507 -0.0954,-0.0875 -0.1782,-0.18547 -0.25167,-0.29869 -0.0849,-0.14192 -0.15921,-0.2826 -0.22479,-0.42219 -0.0714,-0.1632 -0.13216,-0.31327 -0.18139,-0.45114 l -0.002,-0.004 -0.002,-0.006 c -0.25122,-0.66323 -0.39528,-1.34242 -0.43563,-2.04483 -4e-5,-6.4e-4 4e-5,-0.001 0,-0.002 -0.0291,-0.70781 0.0559,-1.40221 0.2558,-2.09184 v -0.004 l 0.002,-0.004 c 0.0855,-0.31361 0.20957,-0.62606 0.37311,-0.93586 l 0.002,-0.002 c 0.15204,-0.26935 0.34401,-0.46556 0.59945,-0.61495 0.12956,-0.0723 0.23949,-0.0702 0.35347,-0.0801 z m 20.89226,0.55655 c -0.20534,0.0122 -0.40821,0.0538 -0.60306,0.12454 -0.36169,0.12277 -0.69588,0.31536 -0.98651,0.57412 -0.27824,0.24776 -0.52206,0.5312 -0.7307,0.84751 l -0.004,0.006 -0.002,0.004 c -0.17221,0.27416 -0.34559,0.54798 -0.5178,0.82217 l -0.006,0.01 -0.004,0.008 c -0.19001,0.32975 -0.37487,0.66127 -0.55449,0.99425 l -0.002,0.004 -0.004,0.006 c -0.167,0.32753 -0.33165,0.66678 -0.49403,1.01751 -0.37289,0.78745 -0.71598,1.58957 -1.02939,2.40607 v 0.002 l -0.002,0.004 c -0.29899,0.8069 -0.57728,1.62354 -0.83767,2.45309 l -0.002,0.004 v 0.002 c -0.085,0.2831 -0.0678,0.63018 0.10904,0.89246 l 0.008,0.0119 0.008,0.0114 c 0.14534,0.19105 0.35587,0.34054 0.58808,0.41032 v 0.002 c 0.23549,0.0704 0.49906,0.0663 0.73225,-0.0155 l 0.004,-0.002 0.004,-0.002 c 0.30171,-0.11078 0.52932,-0.39381 0.61702,-0.68575 l 0.47077,-1.45674 0.004,-0.0103 c 0.11795,-0.34034 0.24657,-0.67604 0.37465,-1.01339 0.48383,0.0936 0.95883,0.21649 1.42576,0.36537 -0.0952,0.35957 -0.19096,0.72019 -0.27492,1.07796 l -0.002,0.004 -0.002,0.006 c -0.11229,0.52623 -0.20273,1.05746 -0.27337,1.59578 -0.0484,0.30168 0.0769,0.65043 0.29662,0.8573 l 0.004,0.006 0.006,0.004 c 0.19471,0.17375 0.44472,0.30083 0.7152,0.31832 h 0.0196 0.0176 c 0.27648,-0.003 0.57539,-0.10401 0.77721,-0.31832 l 0.006,-0.006 0.006,-0.006 c 0.16456,-0.18608 0.2714,-0.4214 0.31057,-0.66559 l 0.002,-0.008 v -0.01 c 0.0609,-0.49274 0.1463,-0.97153 0.25373,-1.43764 h -0.002 c 0.11208,-0.48324 0.2415,-0.96626 0.38706,-1.45106 h -0.006 c 0.0654,-0.0959 0.15934,-0.17497 0.1912,-0.28112 0.0473,-0.15732 0.0652,-0.3266 0.0475,-0.49249 l 0.19069,-0.63458 0.004,-0.0155 c 0.10953,-0.32838 0.22261,-0.66607 0.33797,-1.01389 l 0.004,-0.0134 c 0.13164,-0.36322 0.2461,-0.72646 0.34365,-1.08987 0.10419,-0.38695 0.18007,-0.77854 0.22634,-1.172 0.0476,-0.40462 0.0501,-0.80568 0.008,-1.20303 v -0.0103 l -0.002,-0.01 c -0.0586,-0.40693 -0.21475,-0.78528 -0.46302,-1.10328 -0.26499,-0.33936 -0.64851,-0.57203 -1.07797,-0.67231 h -5.1e-4 c -0.20448,-0.0473 -0.41219,-0.0644 -0.61754,-0.0522 z m -29.68656,0.44492 c -0.14327,0.004 -0.2847,0.0341 -0.41031,0.092 l -5.1e-4,-5.2e-4 -3.53726,1.57821 -0.002,0.002 c -0.26964,0.12443 -0.50313,0.39251 -0.57206,0.6935 -0.0601,0.24532 -0.0414,0.51996 0.0646,0.74983 0.10696,0.23182 0.30481,0.42209 0.52917,0.53123 0.2763,0.13441 0.62064,0.11043 0.8847,-0.0114 0.44027,-0.19143 0.88213,-0.3833 1.3224,-0.57462 l 0.004,-0.002 0.006,-0.002 c 0.19682,-0.0908 0.38899,-0.17981 0.58394,-0.26977 -0.0506,1.07495 -0.10183,2.14866 -0.15813,3.2112 v 0.002 0.002 c -0.061,1.33146 -0.12489,2.67004 -0.1912,4.01579 v 0.006 l -0.0196,0.65217 c -0.0112,0.20767 -0.0206,0.41773 -0.0274,0.63458 l 0.002,-0.0212 c -0.0147,0.1964 0.0355,0.40449 0.13281,0.57827 0.0712,0.14322 0.16707,0.27506 0.28525,0.37878 l 0.01,0.006 0.008,0.008 c 0.14672,0.1174 0.33123,0.1918 0.51366,0.21497 0.21764,0.0275 0.43953,-0.0306 0.61702,-0.13279 l -0.0155,0.01 c 0.71491,-0.3773 1.42966,-0.75547 2.14457,-1.13276 0.71487,-0.37717 1.43548,-0.75722 2.16007,-1.13893 h 0.002 c 0.25734,-0.13764 0.47656,-0.40936 0.52917,-0.71263 0.0476,-0.23794 0.0341,-0.49818 -0.0703,-0.72451 -0.10337,-0.22407 -0.30131,-0.41111 -0.52762,-0.51779 -0.27772,-0.14316 -0.63464,-0.11737 -0.88831,0.0176 -5.7e-4,2.9e-4 -0.001,-2.9e-4 -0.002,0 l -0.008,0.004 c -0.569,0.29784 -1.13791,0.59457 -1.70687,0.89247 -0.31463,0.16465 -0.62622,0.3362 -0.93948,0.50384 0.0457,-1.04341 0.0915,-2.08568 0.14262,-3.11713 0.0655,-1.32168 0.13437,-2.65036 0.20516,-3.98632 v -0.006 -0.006 c 0.007,-0.21283 0.0164,-0.42053 0.0274,-0.62323 v -0.006 l 0.0191,-0.63304 v -0.002 c 0.0264,-0.36161 -0.15437,-0.75285 -0.447,-0.96687 -0.18677,-0.13657 -0.43094,-0.20375 -0.66973,-0.1974 z m 29.70052,1.75805 v 0.008 c 0.003,0.0853 -1.6e-4,0.16682 -0.006,0.24805 v 0.006 0.006 c -0.0297,0.58413 -0.14185,1.16457 -0.33744,1.74615 h 0.002 c -0.16976,0.50387 -0.33121,0.99811 -0.4899,1.49034 -0.21799,-0.0674 -0.43427,-0.14364 -0.65629,-0.1974 -0.16859,-0.0454 -0.34112,-0.0762 -0.51159,-0.11523 0.15654,-0.33163 0.30879,-0.66646 0.47645,-0.99012 0.27293,-0.50848 0.56799,-0.99785 0.8847,-1.47071 v -0.002 l 0.002,-0.002 c 0.11582,-0.17561 0.24562,-0.36547 0.39067,-0.5664 l 0.002,-0.002 c 0.0837,-0.10615 0.15749,-0.13412 0.24392,-0.15811 z m 7.79487,3.6561 -0.0326,0.016 c -0.24671,0.0175 -0.50031,0.1188 -0.67076,0.30231 -0.16924,0.17127 -0.2865,0.40138 -0.32194,0.64027 -0.0444,0.25077 0.003,0.52678 0.13281,0.74208 0.1228,0.20333 0.36189,0.26278 0.58187,0.3302 -0.60133,0.75488 -1.20192,1.50987 -1.78697,2.27737 -0.72783,0.95499 -1.44026,1.92826 -2.14044,2.91817 l -0.004,0.006 -0.004,0.006 c -0.0778,0.11647 -0.15667,0.2236 -0.23462,0.324 l -0.0114,0.0176 -0.0119,0.0176 c -0.0694,0.10668 -0.14545,0.22151 -0.22841,0.34571 l -0.002,0.002 c -0.0768,0.11631 -0.15685,0.23685 -0.24029,0.36174 v 0.002 l -0.002,0.002 c -0.11877,0.17997 -0.19132,0.38791 -0.22066,0.60151 -0.0554,0.36547 0.056,0.76168 0.30283,1.03716 l 0.002,0.002 0.002,0.002 c 0.19236,0.21114 0.40315,0.3906 0.63097,0.53692 0.32663,0.22146 0.68379,0.37809 1.06247,0.4594 l 0.008,0.002 h 0.008 c 0.36057,0.0663 0.72481,0.0907 1.0914,0.0703 h 0.004 l 0.004,-0.002 c 0.79152,-0.0575 1.55322,-0.28041 2.2655,-0.66249 l 0.002,-0.002 c 0.69121,-0.37594 1.31455,-0.80912 1.86914,-1.30069 h 0.002 v -0.002 c 0.28472,-0.25516 0.55768,-0.53292 0.81855,-0.83201 0.26311,-0.3016 0.50258,-0.61598 0.71469,-0.94514 v -0.002 c 0.22017,-0.34015 0.40808,-0.69403 0.56069,-1.06039 0.1641,-0.38664 0.27613,-0.78743 0.33589,-1.19735 v -0.004 l 0.002,-0.004 c 0.0836,-0.64183 0.0176,-1.27064 -0.1974,-1.85984 -0.20966,-0.57441 -0.52676,-1.09103 -0.94362,-1.53686 -0.40613,-0.44976 -0.89262,-0.81896 -1.449,-1.10175 l -0.002,-0.002 c -0.55024,-0.27718 -1.13587,-0.43953 -1.74408,-0.49197 -6.3e-4,-5e-5 -10e-4,5e-5 -0.002,0 h -5.1e-4 c -0.004,-3.4e-4 -0.008,-0.004 -0.0119,-0.004 z m -48.55311,0.5638 5.2e-4,5e-4 c -0.43052,-0.003 -0.84973,0.15182 -1.19528,0.42582 l -0.002,0.002 c -0.32925,0.26229 -0.57411,0.60749 -0.70538,1.00201 -0.12805,0.35885 -0.18165,0.73903 -0.15968,1.12657 0.0211,0.37198 0.0928,0.74168 0.21084,1.10172 v 0.004 l 0.32815,0.93173 0.004,0.008 c 0.14014,0.35383 0.28444,0.70496 0.43357,1.05265 l 0.004,0.006 0.002,0.004 c 0.15212,0.33314 0.31532,0.67157 0.48834,1.01545 2.5e-4,5.3e-4 -2.5e-4,0.001 0,0.002 4e-4,7.9e-4 0.002,10e-4 0.002,0.002 0.38491,0.78164 0.79921,1.54962 1.24385,2.3027 v 0.002 l 0.002,0.004 c 0.4461,0.73586 0.91259,1.46209 1.40043,2.18178 l 0.002,0.004 0.002,0.002 c 0.1689,0.24254 0.45205,0.44415 0.7674,0.46868 l 0.0139,0.002 h 0.0134 c 0.24007,0.005 0.48878,-0.0666 0.68781,-0.20516 0.20187,-0.14054 0.36395,-0.35025 0.44493,-0.58396 v -0.002 l 0.002,-0.004 c 0.10058,-0.30456 0.0194,-0.65995 -0.15399,-0.91004 -0.28247,-0.42426 -0.56556,-0.84902 -0.84802,-1.2733 l -0.006,-0.0103 c -0.19342,-0.30427 -0.37804,-0.61518 -0.56276,-0.92554 0.37445,-0.32105 0.76678,-0.61545 1.17409,-0.88882 0.22251,0.29827 0.44367,0.59844 0.67179,0.88676 l 0.004,0.004 0.004,0.004 c 0.34294,0.41582 0.70369,0.81859 1.0821,1.20922 0.20658,0.22334 0.55648,0.34198 0.8537,0.29869 h 0.006 l 0.006,-0.002 c 0.25715,-0.0445 0.51163,-0.1623 0.6935,-0.36328 l 0.0134,-0.0134 0.0119,-0.0139 c 0.16945,-0.21849 0.27702,-0.51536 0.23461,-0.80669 l -0.002,-0.008 v -0.008 c -0.0435,-0.24458 -0.16331,-0.47535 -0.33021,-0.65783 l -0.006,-0.008 -0.006,-0.006 c -0.34804,-0.35406 -0.67065,-0.71797 -0.96893,-1.09191 -0.28445,-0.35761 -0.55908,-0.72784 -0.82683,-1.10847 -0.0288,-0.15229 -0.091,-0.2962 -0.17518,-0.41704 -0.0937,-0.13462 -0.21515,-0.25376 -0.35605,-0.34311 l -0.38034,-0.54364 -0.006,-0.008 -0.002,-0.004 c -0.18916,-0.29003 -0.38318,-0.58782 -0.58395,-0.89453 l -0.008,-0.0139 c -0.20211,-0.32803 -0.41693,-0.6436 -0.64027,-0.94517 v -0.002 c -0.23805,-0.32179 -0.49862,-0.62384 -0.77773,-0.90435 -0.28732,-0.28879 -0.60006,-0.54142 -0.93741,-0.75549 l -0.008,-0.004 -0.008,-0.006 c -0.3551,-0.20693 -0.74906,-0.31856 -1.15238,-0.32194 z m 41.22332,1.00613 0.3545,0.17055 -0.42116,-0.0538 c 0.0272,-0.0329 0.047,-0.0748 0.0667,-0.11679 z m -41.10963,1.23248 0.004,0.002 c 0.0685,0.0511 0.13326,0.10496 0.19327,0.16021 l 0.004,0.004 0.004,0.004 c 0.43905,0.38643 0.82416,0.83503 1.15807,1.3498 0.28877,0.44569 0.57697,0.8786 0.86352,1.30844 -0.19226,0.13153 -0.39038,0.25477 -0.57413,0.39841 -0.13648,0.10115 -0.26403,0.21617 -0.39687,0.32248 -0.16247,-0.32885 -0.32921,-0.65543 -0.47853,-0.98806 -0.22859,-0.52991 -0.43012,-1.06561 -0.60358,-1.60766 v -0.002 l -0.002,-0.002 c -0.066,-0.20143 -0.13177,-0.42339 -0.19947,-0.66403 -0.0305,-0.13006 -0.007,-0.20341 0.0274,-0.28527 z m 50.11322,0.20103 c 0.0892,0.09 0.19678,0.16013 0.27337,0.26562 l 0.006,0.008 0.006,0.006 c 0.17054,0.21725 0.28242,0.45522 0.35553,0.71729 0.002,0.014 1.7e-4,0.0339 0.002,0.0486 0.005,0.0394 0.0149,0.0822 0.0279,0.12814 0.002,0.0195 0.004,0.0431 0.004,0.0749 v 0.0372 l 0.004,0.0372 c 0.001,0.0104 0.003,0.0206 0.004,0.031 -0.003,0.0185 -0.01,0.044 -0.0114,0.0625 l -0.008,0.0584 0.008,0.061 c 0.003,0.0264 0.005,0.0395 0.008,0.0605 -0.004,0.0197 -0.008,0.0387 -0.0119,0.0584 l -0.01,0.045 v 0.045 c -4.7e-4,0.0273 -0.003,0.048 -0.006,0.0626 -0.0303,0.15206 -0.0802,0.31052 -0.1509,0.47646 l -0.008,0.014 -0.004,0.0155 c -0.0586,0.16642 -0.13068,0.33803 -0.21653,0.5116 -0.17436,0.31933 -0.39842,0.6395 -0.67179,0.95911 -0.26664,0.31086 -0.56894,0.60209 -0.90847,0.87488 l -0.004,0.004 -0.004,0.002 c -0.32134,0.26763 -0.66211,0.49821 -1.02733,0.69297 -0.35498,0.18444 -0.70335,0.3251 -1.04696,0.42426 -0.20378,0.0454 -0.37952,0.07 -0.52142,0.076 h -0.0103 -0.01 c -0.11465,0.009 -0.25858,0.002 -0.41031,-0.0139 l -0.0429,-0.0331 c 0.0144,-0.022 0.0312,-0.0417 0.0449,-0.0641 l 0.0176,-0.0274 c 0.0962,-0.14033 0.1884,-0.27255 0.27337,-0.39843 7.6e-4,-0.001 0.001,-0.003 0.002,-0.004 0.0996,-0.12832 0.20304,-0.25845 0.30851,-0.39428 l 0.008,-0.0119 0.008,-0.0119 c 0.20867,-0.30297 0.42188,-0.60153 0.63872,-0.89813 l 0.008,-0.0119 c 0.23693,-0.30535 0.47113,-0.6137 0.6997,-0.92554 l 0.002,-0.002 c 0.76679,-1.03373 1.56345,-2.05118 2.37505,-3.06078 z m -57.12158,5.19711 c -0.19419,-0.0107 -0.38741,0.005 -0.57516,0.0506 l -5.2e-4,5e-4 c -0.34731,0.0836 -0.66785,0.24315 -0.94929,0.46508 -0.28243,0.20781 -0.52138,0.47369 -0.71055,0.78706 v 0.002 l -0.002,0.002 c -0.18218,0.30784 -0.30496,0.64193 -0.36173,0.99065 -0.0614,0.35356 -0.0749,0.71819 -0.0429,1.08985 4e-5,6.6e-4 -5e-5,10e-4 0,0.002 0.0253,0.37388 0.1035,0.73438 0.23461,1.07797 l 0.002,0.004 0.002,0.006 c 0.13628,0.3387 0.33721,0.64765 0.59324,0.92398 0.26016,0.29768 0.59351,0.5247 0.97669,0.6718 0.3451,0.13375 0.69818,0.20693 1.05472,0.21704 l 0.008,0.002 h 0.006 c 0.32942,8.5e-4 0.65985,-0.0233 0.98857,-0.0718 l 0.0114,-0.002 0.0119,-0.002 c 0.31714,-0.0626 0.62994,-0.13838 0.93948,-0.22479 0.28667,-0.0801 0.5696,-0.14743 0.84749,-0.20516 l 0.0103,-0.002 0.008,-0.004 c 0.19967,-0.0494 0.39978,-0.0693 0.60565,-0.0625 h 0.0155 0.0155 c 0.16099,-0.004 0.29435,0.0295 0.43977,0.11523 l 0.004,0.004 0.006,0.002 c 0.14754,0.0825 0.26088,0.18211 0.35553,0.30903 0.0962,0.12891 0.1638,0.2708 0.20878,0.43717 0.0386,0.17002 0.0311,0.31861 -0.0233,0.48265 -0.0594,0.16323 -0.14746,0.30369 -0.27957,0.43511 -0.0558,0.0555 -0.13347,0.0777 -0.19688,0.11938 -0.0893,-0.099 -0.12805,-0.2395 -0.24237,-0.3085 -0.29738,-0.17939 -0.67207,-0.22384 -1.00769,-0.13695 -0.32448,0.0793 -0.62271,0.27903 -0.80873,0.55655 l -0.004,0.008 -0.006,0.008 c -0.16431,0.26538 -0.2606,0.57301 -0.22066,0.88522 l 0.002,0.004 v 0.002 c 0.0362,0.25831 0.16033,0.49951 0.33021,0.69556 0.15569,0.1959 0.35709,0.35436 0.58601,0.46456 0.23302,0.11215 0.48484,0.17658 0.74208,0.18759 0.42132,0.0191 0.84149,-0.0552 1.23868,-0.21651 0.38788,-0.15748 0.73552,-0.37669 1.03301,-0.65474 0.29347,-0.27424 0.53499,-0.59642 0.72089,-0.95705 l 0.004,-0.004 0.002,-0.004 c 0.18836,-0.38315 0.29492,-0.7914 0.31471,-1.20923 0.0273,-0.40563 -0.0279,-0.80317 -0.16433,-1.17927 v -0.004 l -0.002,-0.004 c -0.13936,-0.36875 -0.33298,-0.70638 -0.57981,-1.00769 -0.24806,-0.30281 -0.54588,-0.55676 -0.88315,-0.75396 -0.34895,-0.20703 -0.73097,-0.34231 -1.12861,-0.39843 -0.43822,-0.0705 -0.87915,-0.0582 -1.31051,0.0372 -0.334,0.0609 -0.66146,0.13809 -0.98444,0.22273 l -0.0139,-0.004 -0.11111,0.031 -0.01,0.004 -0.008,0.002 c -0.30374,0.0859 -0.61799,0.15952 -0.94516,0.22429 -0.25989,0.0465 -0.50345,0.0332 -0.7581,-0.0444 l -0.006,-0.002 h -0.006 c -0.11398,-0.0322 -0.16962,-0.0733 -0.21498,-0.12504 h -0.002 v -0.002 c -0.0818,-0.0925 -0.1372,-0.18693 -0.17621,-0.29506 -0.0439,-0.12158 -0.0717,-0.24884 -0.0837,-0.38447 -0.005,-0.16036 8.1e-4,-0.31136 0.0196,-0.4532 v -0.004 l 0.002,-0.006 c 0.0103,-0.0902 0.0351,-0.18891 0.0744,-0.29662 0.0394,-0.0952 0.0817,-0.15989 0.12506,-0.20307 l 0.0134,-0.014 0.014,-0.0134 c 0.0341,-0.0395 0.0629,-0.0609 0.12092,-0.0801 l 0.0155,-0.004 0.016,-0.008 c 0.008,-0.003 0.012,-0.0134 0.0858,0.0114 l 0.006,0.002 0.006,0.002 c 0.27363,0.0841 0.62321,0.0679 0.87695,-0.11731 l 0.002,-0.002 0.002,-0.002 c 0.19913,-0.14851 0.35307,-0.37594 0.41186,-0.6232 0.0608,-0.23701 0.0485,-0.49583 -0.0351,-0.72451 l -0.002,-0.006 -0.002,-0.008 c -0.11368,-0.28639 -0.38444,-0.51147 -0.66973,-0.59997 -0.19175,-0.061 -0.38665,-0.0983 -0.58084,-0.10903 z m 64.40899,1.25005 c -0.37877,0.006 -0.75201,0.0599 -1.1157,0.16227 -0.50574,0.13787 -0.99667,0.33377 -1.47071,0.58599 l -0.006,0.002 -0.004,0.002 c -0.46031,0.25742 -0.89376,0.55261 -1.30069,0.88472 l -0.004,0.004 -0.004,0.004 c -0.39632,0.33803 -0.76687,0.70347 -1.10898,1.09916 l -0.004,0.006 -0.002,0.004 c -0.33349,0.40283 -0.62549,0.8281 -0.87488,1.27538 -0.001,0.002 -0.002,0.005 -0.004,0.008 -0.002,0.003 -0.004,0.005 -0.006,0.008 -0.12383,0.2059 -0.24758,0.42436 -0.37104,0.65783 l -0.006,0.0119 -0.006,0.0119 c -0.11387,0.24644 -0.21438,0.4985 -0.30437,0.75396 l -0.004,0.008 -0.002,0.01 c -0.083,0.26651 -0.15036,0.53403 -0.20102,0.80306 l -0.002,0.0155 -0.002,0.0139 c -0.0368,0.29107 -0.0329,0.58327 0.01,0.87074 0.0721,0.57066 0.31648,1.09593 0.71107,1.51982 0.38256,0.41098 0.83247,0.71737 1.33377,0.90588 0.51832,0.21506 1.06642,0.31547 1.62729,0.293 0.54733,-0.0139 1.09002,-0.10342 1.62315,-0.26561 0.52486,-0.15965 1.02434,-0.37309 1.49759,-0.64027 l 0.006,-0.004 c 0.47815,-0.26143 0.91035,-0.54496 1.29501,-0.85576 l 0.002,-0.002 c 0.46118,-0.36665 0.88077,-0.79057 1.26142,-1.26968 0.39566,-0.498 0.68466,-1.05457 0.85938,-1.65621 0.13906,-0.45148 0.18729,-0.92377 0.14469,-1.4025 v -0.002 c -0.0309,-0.40838 -0.1849,-0.78581 -0.36897,-1.15033 -0.0356,-0.0704 -0.0292,-0.15451 -0.0703,-0.22272 l -0.0119,-0.0176 c -0.06,-0.34994 -0.14069,-0.69919 -0.33797,-1.00357 -0.23732,-0.36628 -0.53934,-0.67214 -0.89658,-0.90431 -0.45344,-0.30105 -0.9636,-0.47644 -1.50172,-0.51367 l 0.001,-0.001 c -0.12736,-0.009 -0.25459,-0.0123 -0.38085,-0.0103 z m 0.0372,2.14974 c 0.14117,0.004 0.28057,0.0269 0.42168,0.0692 0.14146,0.0458 0.21583,0.12806 0.30076,0.20516 -0.007,0.0589 -0.0405,0.11305 -0.0393,0.17208 v 0.0134 0.0139 c 0.0185,0.2448 0.13658,0.49851 0.32246,0.66765 l 0.0212,0.0197 0.0238,0.0176 c -8.8e-4,-6.3e-4 0.0256,0.025 0.0367,0.0351 0.0232,0.0936 0.004,0.19656 0.0527,0.27543 l 0.0119,0.0196 0.0155,0.0196 c 0.0478,0.063 0.11733,0.10277 0.17571,0.15608 0.0413,0.14946 0.0656,0.29787 0.0356,0.47284 -0.0389,0.22653 -0.11353,0.44455 -0.22892,0.66196 l -0.006,0.0119 -0.006,0.01 c -0.10597,0.22469 -0.24056,0.44085 -0.40824,0.64852 l -0.002,0.002 c -0.16996,0.21275 -0.33872,0.39743 -0.50746,0.55451 -0.23779,0.22132 -0.50953,0.43357 -0.81649,0.63664 l -0.006,0.002 -0.004,0.004 c -0.28503,0.19825 -0.58924,0.36753 -0.9157,0.50953 l -0.006,0.002 -0.004,0.002 c -0.30756,0.14026 -0.62595,0.24554 -0.95912,0.31629 -0.3203,0.068 -0.63426,0.09 -0.94722,0.0666 l -0.0196,-0.002 c -0.25869,-0.0153 -0.49962,-0.0795 -0.74001,-0.19741 -0.19033,-0.0992 -0.3228,-0.23177 -0.42995,-0.44907 l -0.004,-0.0103 -0.006,-0.0114 c -0.0479,-0.0867 -0.0679,-0.16317 -0.0687,-0.25786 -0.001,-0.13055 0.0158,-0.25866 0.0491,-0.39069 3.2e-4,-9.7e-4 -3.4e-4,-0.003 0,-0.004 0.0466,-0.16 0.0998,-0.31076 0.15813,-0.45474 0.0691,-0.15891 0.13521,-0.30298 0.20102,-0.42995 l 0.004,-0.004 0.002,-0.004 c 0.31352,-0.63423 0.71026,-1.20179 1.19528,-1.70895 0.49961,-0.50609 1.06766,-0.91961 1.711,-1.24436 l 0.004,-0.002 0.002,-0.002 c 0.28977,-0.15208 0.6048,-0.27374 0.94567,-0.36534 l 5.2e-4,5e-4 c 0.14968,-0.0357 0.29292,-0.0517 0.43408,-0.048 z"
         id="path1410"
         inkscape:connector-curvature="0" />
      <g
         aria-label="con"
         style="font-style:normal;font-variant:normal;font-weight:normal;font-stretch:normal;font-size:12.2069px;line-height:1.25;font-family:'Life of Apple';-inkscape-font-specification:'Life of Apple';letter-spacing:2.75431px;word-spacing:0px;fill:#3d3846;fill-opacity:1;stroke:none;stroke-width:0.5;stroke-miterlimit:4;stroke-dasharray:none;stroke-opacity:1"
         id="g1418"
         transform="translate(125.48817,932.3416)">
        <path
           d="m 109.14149,-700.00347 q 0.13427,-0.15869 0.29296,-0.13428 0.1709,0.0122 0.29297,0.13428 0.12207,0.10986 0.14648,0.29297 0.0244,0.17089 -0.10986,0.32958 -0.21972,0.25635 -0.50048,0.46387 -0.26856,0.20752 -0.62256,0.28076 -0.34179,0.0732 -0.67138,-0.0244 -0.31738,-0.0854 -0.56152,-0.34179 -0.20752,-0.21973 -0.34179,-0.48828 -0.13428,-0.26855 -0.21973,-0.56152 -0.0732,-0.29296 -0.0977,-0.59814 -0.0366,-0.30517 -0.0244,-0.58593 0.0244,-0.59814 0.24414,-1.15966 0.21972,-0.57373 0.74462,-0.91552 0.26856,-0.1709 0.58594,-0.20752 0.32958,-0.0488 0.61034,0.0855 0.32959,0.15869 0.43945,0.46386 0.10987,0.30517 0.10987,0.64697 0,0.20752 -0.13428,0.31738 -0.13428,0.10986 -0.30517,0.10986 -0.15869,0 -0.30518,-0.10986 -0.13427,-0.10986 -0.13427,-0.31738 0,-0.061 0,-0.1709 0,-0.10986 -0.0244,-0.13427 -0.0244,-0.0122 -0.0854,-0.0122 -0.0488,-0.0122 -0.0854,0 -0.14649,0.0244 -0.26856,0.13428 -0.12207,0.0977 -0.21972,0.21972 -0.19531,0.26855 -0.25635,0.61035 -0.0488,0.34179 -0.0366,0.65917 0.0122,0.3418 0.0855,0.6958 0.0732,0.34179 0.28076,0.62255 0.13428,0.18311 0.29297,0.20752 0.17089,0.0244 0.32958,-0.0488 0.15869,-0.0732 0.29297,-0.20751 0.14648,-0.13428 0.25635,-0.25635 z"
           style="font-style:normal;font-variant:normal;font-weight:normal;font-stretch:normal;font-family:'Life of Apple';-inkscape-font-specification:'Life of Apple';letter-spacing:2.75431px;fill:#3d3846;fill-opacity:1;stroke:none;stroke-width:0.5;stroke-miterlimit:4;stroke-dasharray:none;stroke-opacity:1"
           id="path1412"
           inkscape:connector-curvature="0" />
        <path
           d="m 114.30133,-703.62893 q 0.30517,0 0.56152,0.12207 0.25635,0.10986 0.45166,0.30517 0.19531,0.1831 0.32959,0.43945 0.13427,0.25635 0.21972,0.5249 0.15869,0.51269 0.1831,1.08642 0.0244,0.57372 -0.0977,1.09862 -0.0732,0.29297 -0.24414,0.57373 -0.15869,0.26855 -0.40283,0.45166 -0.23193,0.1831 -0.5371,0.25634 -0.29297,0.061 -0.61035,-0.0488 -0.3418,-0.10986 -0.57373,-0.34179 -0.21972,-0.23193 -0.354,-0.5249 -0.12207,-0.30517 -0.1709,-0.63476 -0.061,-0.3418 -0.061,-0.65918 0,-0.354 0.0488,-0.708 0.0488,-0.354 0.14648,-0.68359 0.0854,-0.31738 0.20752,-0.62255 0.13427,-0.30518 0.43945,-0.46387 0.061,-0.0244 0.15869,-0.0488 0.12207,-0.12207 0.30517,-0.12207 z m 0.708,3.62546 q 0.10987,-0.21973 0.12207,-0.46386 0.0244,-0.24414 0.0244,-0.48828 0,-0.20752 -0.0244,-0.41504 -0.0122,-0.20752 -0.061,-0.41503 -0.0366,-0.14649 -0.0854,-0.30518 -0.0488,-0.1709 -0.13428,-0.30517 -0.0854,-0.13428 -0.20751,-0.23193 -0.12207,-0.0977 -0.28076,-0.10987 -0.0488,0.0244 -0.0733,0.0488 -0.0977,0.0366 -0.13427,0.14648 -0.0366,0.10987 -0.0732,0.21973 -0.0854,0.30517 -0.14649,0.64697 -0.10986,0.57372 -0.0366,1.15966 0.0244,0.24414 0.12207,0.48828 0.0977,0.24413 0.3418,0.34179 0.20751,0.0977 0.37841,-0.0122 0.1709,-0.12207 0.26855,-0.30517 z"
           style="font-style:normal;font-variant:normal;font-weight:normal;font-stretch:normal;font-family:'Life of Apple';-inkscape-font-specification:'Life of Apple';letter-spacing:2.75431px;fill:#3d3846;fill-opacity:1;stroke:none;stroke-width:0.5;stroke-miterlimit:4;stroke-dasharray:none;stroke-opacity:1"
           id="path1414"
           inkscape:connector-curvature="0" />
        <path
           d="m 122.10017,-702.99417 q 0.13427,0.31738 0.13427,0.67138 0.0122,0.34179 0.0244,0.68359 0.0244,0.72021 0.0366,1.42821 0.0122,0.6958 0.0366,1.4038 0,0.21973 -0.13428,0.31738 -0.13428,0.10986 -0.30517,0.10986 -0.15869,0 -0.30518,-0.10986 -0.13427,-0.10986 -0.13427,-0.31738 l -0.0732,-2.78318 q 0,-0.25635 -0.0122,-0.50049 -0.0122,-0.24414 -0.061,-0.48828 -0.10986,0.24414 -0.20751,0.47607 -0.0854,0.21973 -0.18311,0.50049 -0.24414,0.65917 -0.48828,1.33056 -0.23193,0.65917 -0.34179,1.35497 -0.0244,0.1831 -0.1709,0.25634 -0.13427,0.0733 -0.29297,0.0488 -0.14648,-0.0244 -0.26855,-0.13427 -0.12207,-0.10987 -0.12207,-0.29297 0.0122,-0.62256 0.0244,-1.2207 0,-0.61034 0,-1.2329 0,-0.28076 0,-0.54931 0,-0.28076 -0.0122,-0.56152 -0.0122,-0.0977 -0.0122,-0.1831 0,-0.0855 -0.0122,-0.18311 v -0.0244 q -0.0244,-0.0366 -0.0244,-0.0366 0,-0.0122 0.0244,0.0122 v -0.0122 q -0.0733,-0.18311 0,-0.32959 0.0732,-0.14648 0.20751,-0.21973 0.14649,-0.0732 0.30518,-0.0488 0.17089,0.0244 0.26855,0.20751 0.0855,0.15869 0.0977,0.35401 0.0122,0.1831 0.0122,0.354 0.0122,0.17089 0.0122,0.354 0.0122,0.1709 0.0122,0.34179 0.0488,-0.12207 0.0854,-0.23193 0.0488,-0.10986 0.0977,-0.23193 0.10986,-0.26855 0.23193,-0.57373 0.13428,-0.30517 0.41504,-0.45165 0.37841,-0.18311 0.68359,-0.0122 0.31738,0.1709 0.45166,0.5249 z m -2.88084,-0.0122 q 0.0122,0.0122 0.0122,0.0244 0,0 0.0122,0.0122 -0.0244,-0.0488 -0.0244,-0.0488 z"
           style="font-style:normal;font-variant:normal;font-weight:normal;font-stretch:normal;font-family:'Life of Apple';-inkscape-font-specification:'Life of Apple';letter-spacing:2.75431px;fill:#3d3846;fill-opacity:1;stroke:none;stroke-width:0.5;stroke-miterlimit:4;stroke-dasharray:none;stroke-opacity:1"
           id="path1416"
           inkscape:connector-curvature="0" />
      </g>
      <path
         style="font-style:normal;font-variant:normal;font-weight:bold;font-stretch:normal;font-size:20.9918px;line-height:1.25;font-family:'Life of Apple';-inkscape-font-specification:'Life of Apple Bold';letter-spacing:0px;word-spacing:0px;fill:#3d3846;fill-opacity:1;stroke:none;stroke-width:0.5;stroke-miterlimit:4;stroke-dasharray:none;stroke-opacity:1"
         d="m 247.42025,236.71017 c -0.17524,0.0118 -0.3447,0.0737 -0.49867,0.17209 -0.23436,0.13657 -0.37435,0.39224 -0.40669,0.67902 v 5e-4 c -7e-5,5.9e-4 -4.6e-4,0.001 -5.2e-4,0.002 -0.24204,2.05521 -0.49652,4.09523 -0.76326,6.11953 v 5e-4 0.001 c -0.253,2.02705 -0.51497,4.06768 -0.78497,6.12108 v 0.002 l -5.1e-4,0.002 c -0.005,0.043 -0.0101,0.0913 -0.016,0.14624 v 5.3e-4 5.2e-4 c -0.009,0.0822 0.0256,0.17333 0.0713,0.24908 0.0407,0.21191 0.11466,0.41693 0.26665,0.57256 0.20308,0.2108 0.49913,0.30327 0.80047,0.26665 h 10e-4 5.2e-4 c 0.4135,-0.0525 0.83394,-0.10449 1.26142,-0.15555 0.4164,-0.0497 0.79928,-0.0679 1.14825,-0.0563 3.4e-4,0 7.1e-4,-6e-5 0.001,0 0.41802,0.0193 0.82402,0.0784 1.21853,0.17621 l 0.004,5e-4 0.005,5.3e-4 c 0.42366,0.0889 0.83987,0.18508 1.24798,0.28628 l -0.003,-0.001 c 0.26835,0.0692 0.55458,-0.0154 0.77101,-0.20463 0.20799,-0.18182 0.34483,-0.41791 0.37362,-0.67749 0.0319,-0.28742 -0.049,-0.56772 -0.24804,-0.75293 -0.16818,-0.16991 -0.37459,-0.2913 -0.60565,-0.35089 -0.42761,-0.11843 -0.86256,-0.22378 -1.3069,-0.31572 v 5e-4 c -0.4425,-0.0929 -0.89672,-0.14351 -1.36167,-0.1514 -0.30302,-0.005 -0.6082,0.005 -0.91416,0.0289 l 0.0124,-0.001 c -0.15235,0.005 -0.3036,0.0134 -0.45373,0.0258 -0.0421,0.003 -0.0832,0.009 -0.12505,0.0134 0.22727,-1.80888 0.45401,-3.6073 0.67851,-5.39141 v -0.002 c 0.25316,-1.90148 0.49297,-3.81143 0.71985,-5.72987 l 5.2e-4,-0.001 v -10e-4 c 0.0321,-0.28974 -0.0635,-0.57324 -0.27234,-0.75602 -0.17426,-0.17454 -0.3978,-0.28808 -0.64233,-0.31522 -0.061,-0.007 -0.12091,-0.008 -0.17881,-0.004 z m -6.54585,0.078 c -0.0607,-8.5e-4 -0.12201,2.6e-4 -0.18396,0.004 l -0.002,-0.003 c -0.4773,0.0308 -0.91378,0.18886 -1.28726,0.46871 -3.1e-4,2.3e-4 -7.5e-4,2.6e-4 -0.001,5e-4 -0.36119,0.25694 -0.66358,0.58282 -0.90279,0.97152 -0.2354,0.38254 -0.41941,0.79513 -0.55139,1.23508 l -0.001,0.003 -5.2e-4,0.003 c -0.11194,0.40584 -0.22392,0.81163 -0.33589,1.21751 l -0.002,0.005 -0.001,0.005 c -0.11249,0.47813 -0.21784,0.95597 -0.31626,1.43402 l -5.2e-4,0.003 -5.2e-4,0.003 c -0.0846,0.46508 -0.16214,0.9443 -0.23254,1.43714 -0.16869,1.11095 -0.29494,2.22935 -0.37931,3.3543 l -5.1e-4,0.002 v 5.3e-4 c -0.0702,1.10979 -0.11255,2.22697 -0.12661,3.35068 v 0.002 0.002 c 0,0.30287 0.10579,0.58246 0.32298,0.76015 l 0.005,0.005 0.006,0.004 c 0.19185,0.13955 0.41789,0.21601 0.65112,0.21601 0.0621,0 0.12238,-0.005 0.18035,-0.014 0.17716,-0.0268 0.34557,-0.0956 0.49196,-0.20204 l 0.001,-10e-4 0.002,-0.001 c 0.23209,-0.17406 0.35191,-0.45955 0.35191,-0.76686 l 0.0419,-2.0102 c 0.0249,-0.59656 0.065,-1.19296 0.11214,-1.78956 0.89101,-0.10795 1.78148,-0.14391 2.67219,-0.10854 0.0154,0.61987 0.0376,1.23635 0.0749,1.84537 v 0.002 l 5.1e-4,0.003 c 0.0564,0.69086 0.14107,1.38195 0.25374,2.07275 0.0382,0.2794 0.21652,0.52266 0.47128,0.65008 l 0.003,0.002 0.003,0.001 c 0.24733,0.11543 0.50606,0.15771 0.75035,0.1013 l 0.009,-0.002 0.009,-0.003 c 0.26997,-0.0844 0.49347,-0.24953 0.61082,-0.48422 l 0.002,-0.003 0.002,-0.004 c 0.10367,-0.22452 0.13902,-0.4736 0.10542,-0.72554 l -10e-4,-0.005 -5.2e-4,-0.004 c -0.11055,-0.64956 -0.18646,-1.29165 -0.22789,-1.92651 -0.0403,-0.63048 -0.0602,-1.26783 -0.0615,-1.91151 0.0831,-0.14415 0.12505,-0.31139 0.12505,-0.48678 0,-0.19278 -0.0434,-0.37635 -0.12609,-0.54055 v -0.96274 -0.008 c 0.0139,-0.45969 0.0279,-0.93337 0.0419,-1.4206 0.0281,-0.49427 0.0353,-0.98203 0.0212,-1.46296 -0.0143,-0.50173 -0.0648,-0.99616 -0.1509,-1.48413 -0.0871,-0.49345 -0.22521,-0.96676 -0.41444,-1.41801 l -0.002,-0.004 -0.002,-0.005 c -0.19853,-0.42762 -0.48754,-0.78031 -0.85886,-1.04333 -0.33466,-0.23707 -0.72697,-0.35838 -1.15187,-0.36433 z m -9.70793,0.53538 c -0.40248,-0.009 -0.80804,0.0681 -1.21027,0.22632 l -0.001,5.3e-4 h -0.001 c -0.38864,0.15677 -0.73461,0.3782 -1.03301,0.66043 -2.7e-4,2.4e-4 -2.5e-4,7.9e-4 -5.2e-4,0.001 -0.31783,0.2939 -0.59964,0.63429 -0.84388,1.01905 -0.24834,0.37457 -0.43612,0.77287 -0.56068,1.19271 l -5.2e-4,0.003 -5.2e-4,0.002 c -0.1137,0.40989 -0.14788,0.84029 -0.10542,1.28468 0.0281,0.44718 0.1714,0.88033 0.4222,1.28829 0.22886,0.37483 0.50488,0.69569 0.82785,0.95755 l 0.003,0.002 0.003,0.002 c 0.32361,0.24889 0.6661,0.47413 1.02681,0.67437 l 0.005,0.003 0.006,0.003 c 0.3677,0.18137 0.74041,0.34777 1.11879,0.49919 0.36744,0.14708 0.72158,0.30224 1.06247,0.46612 l 0.005,0.002 0.004,0.002 c 0.2785,0.12131 0.5347,0.27717 0.76998,0.46974 l 0.006,0.005 0.006,0.004 c 0.22827,0.16484 0.39058,0.37272 0.49919,0.6408 l 0.001,0.003 0.001,0.003 c 0.10803,0.2504 0.159,0.50241 0.15606,0.7643 -0.003,0.26294 -0.0573,0.51874 -0.16278,0.77309 -0.12402,0.27294 -0.30331,0.48558 -0.55036,0.65267 -0.24156,0.15579 -0.50584,0.25212 -0.80356,0.29094 -0.22616,0.0295 -0.44636,-0.0184 -0.66818,-0.0703 0.0356,-0.24654 0.0318,-0.49247 -0.0589,-0.72297 -0.12849,-0.32666 -0.38351,-0.57756 -0.71727,-0.71776 -0.31899,-0.14132 -0.66485,-0.16039 -0.9896,-0.0501 l -0.004,0.002 -0.004,0.002 c -0.31965,0.12158 -0.57357,0.30864 -0.72347,0.5669 l -0.001,0.002 -5.1e-4,0.001 c -0.12766,0.22617 -0.17786,0.4888 -0.15968,0.76378 0.003,0.26426 0.0696,0.52707 0.1974,0.77927 0.12867,0.2539 0.30352,0.47406 0.51935,0.65424 0.37623,0.31615 0.81164,0.54234 1.2976,0.6754 0.48106,0.13176 0.96318,0.17476 1.44022,0.12764 0.47431,-0.0469 0.93242,-0.17466 1.36942,-0.38137 l 0.002,-10e-4 0.002,-0.001 c 0.45231,-0.22455 0.83965,-0.52596 1.15497,-0.90072 0.31505,-0.35851 0.54549,-0.76314 0.68523,-1.20716 l 5.1e-4,-0.002 5.2e-4,-0.002 c 0.13542,-0.45098 0.19631,-0.90979 0.18087,-1.37252 -0.0155,-0.46461 -0.1124,-0.91419 -0.28888,-1.34305 -0.17863,-0.44347 -0.43506,-0.83648 -0.76584,-1.17152 -0.36313,-0.38407 -0.78573,-0.68834 -1.26142,-0.91001 -0.33379,-0.17114 -0.6725,-0.31819 -1.01131,-0.46458 l 0.015,-0.0155 -0.34985,-0.13901 c -0.39389,-0.15611 -0.79057,-0.33248 -1.19063,-0.52967 l -0.001,-5.3e-4 c -0.3591,-0.18523 -0.65283,-0.43876 -0.88935,-0.76893 l -0.002,-0.002 -0.002,-0.002 c -0.1301,-0.17388 -0.19201,-0.33885 -0.2036,-0.51106 v -5.1e-4 -5.3e-4 c -0.0148,-0.20793 0.008,-0.40417 0.0682,-0.59478 0.063,-0.19868 0.15284,-0.38822 0.26975,-0.56999 0.066,-0.0928 0.13389,-0.18071 0.20412,-0.26459 0.0721,-0.086 0.1458,-0.1675 0.22118,-0.24288 l 0.002,-0.002 0.002,-0.002 c 0.1076,-0.11181 0.23728,-0.21598 0.39016,-0.31266 0.15856,-0.0936 0.30719,-0.14592 0.44855,-0.16433 l 0.009,-0.002 0.009,-0.002 c 0.13545,-0.0284 0.26245,-0.0205 0.40049,0.0274 l 0.008,0.003 0.008,0.002 c 0.11203,0.0304 0.20812,0.0986 0.30541,0.24288 l 0.002,0.003 0.002,0.003 c 0.16816,0.23588 0.4114,0.39561 0.68161,0.40151 h 0.002 0.001 c 0.24658,0.003 0.48197,-0.0758 0.66663,-0.22892 0.19025,-0.14857 0.32961,-0.35039 0.40256,-0.58394 l 0.001,-0.003 0.001,-0.004 c 0.0775,-0.2745 0.0142,-0.56888 -0.15709,-0.80975 -0.26491,-0.38013 -0.59569,-0.66546 -0.98444,-0.83768 -0.37472,-0.16599 -0.77307,-0.24611 -1.18545,-0.23926 z m 9.6268,1.48775 c 0.01,0 0.013,9.8e-4 0.0114,5.3e-4 l 0.004,0.001 0.004,0.001 c 0.057,0.0142 0.0897,0.036 0.12971,0.092 l 0.0124,0.0171 0.0145,0.0145 c 0.0497,0.0497 0.0939,0.122 0.12661,0.23098 l 0.001,0.004 0.001,0.004 c 0.0393,0.118 0.0721,0.23502 0.0982,0.35242 l 5.2e-4,0.003 5.1e-4,0.003 c 0.19034,0.77489 0.27172,1.5771 0.24443,2.40917 -0.0274,0.82169 -0.0475,1.62956 -0.0615,2.42466 -0.42544,-0.0156 -0.8509,-0.0236 -1.27641,0 -0.24621,0.007 -0.49222,0.0191 -0.73846,0.0367 h -5.1e-4 c -0.13969,0.01 -0.27936,0.0254 -0.4191,0.0388 0.0887,-0.64331 0.18499,-1.2836 0.30437,-1.91667 0.15236,-0.74793 0.33871,-1.4822 0.56018,-2.20194 l 5.1e-4,-5.1e-4 v -0.001 c 0.0819,-0.27305 0.17826,-0.56827 0.28784,-0.88368 l 5.2e-4,-0.001 c 0.1075,-0.27406 0.26229,-0.44635 0.48679,-0.55862 0.1055,-0.0528 0.18138,-0.0682 0.20722,-0.0682 z m 14.64665,16.08635 c -0.15522,-0.0414 -0.64426,0.39621 -0.75809,0.51007 -0.0621,0.0569 -0.0982,0.12903 -0.10852,0.21703 -0.0103,0.088 0.005,0.16841 0.0465,0.2408 0.0362,0.0673 0.0882,0.11885 0.15554,0.15505 0.0673,0.0358 0.13689,0.049 0.20929,0.0388 0.0673,0.0153 0.13476,0.0129 0.20206,-0.008 0.0724,-0.0208 0.13168,-0.0568 0.17828,-0.10854 0.088,-0.10348 0.47077,-0.61118 0.43977,-0.71985 -0.0362,-0.10866 -0.10581,-0.18084 -0.20929,-0.21704 -0.0414,-0.057 -0.0934,-0.093 -0.15555,-0.10853 z m -18.97042,0.385 c -0.10865,-0.002 -0.20608,0.0397 -0.29145,0.12507 -0.0621,0.0569 -0.0982,0.12909 -0.10852,0.21703 -0.0103,0.088 0.005,0.16836 0.0465,0.2408 0.0362,0.0673 0.0883,0.11885 0.15554,0.15505 0.0673,0.0362 0.13686,0.0491 0.20929,0.0388 0.0673,0.0153 0.1348,0.0129 0.20206,-0.008 0.0724,-0.0207 0.13168,-0.0568 0.17828,-0.10854 0.088,-0.10348 0.11633,-0.20965 0.0853,-0.31832 -0.0362,-0.10869 -0.10581,-0.18084 -0.20929,-0.21703 -0.0414,-0.0569 -0.0935,-0.093 -0.15555,-0.10854 -0.0388,-0.0103 -0.0759,-0.0159 -0.11214,-0.0165 z m 13.55215,1.002 c -0.0672,0 -0.12962,0.0232 -0.18655,0.0698 -0.0571,0.0414 -0.0829,0.1084 -0.0775,0.20153 0.0259,0.45533 0.0542,0.91049 0.0853,1.36581 0.0362,0.45532 0.0806,0.91101 0.13229,1.36633 0.0103,0.0724 0.0387,0.13685 0.0853,0.19379 0.0466,0.0569 0.11152,0.0853 0.19431,0.0853 0.0725,0 0.13947,-0.0283 0.20154,-0.0853 0.0621,-0.0517 0.0879,-0.11618 0.0775,-0.19379 -0.0257,-0.30527 -0.0412,-0.61095 -0.0465,-0.91622 -0.005,-0.31046 0.0464,-0.61304 0.15503,-0.90797 0.0155,-0.0465 0.0367,-0.0981 0.0625,-0.15502 0.0259,-0.0621 0.0542,-0.1193 0.0853,-0.17105 0.0362,-0.0569 0.0749,-0.10848 0.11627,-0.15502 0.0466,-0.0465 0.0955,-0.08 0.14727,-0.10078 0.0309,-0.0103 0.0495,-0.0155 0.0548,-0.0155 0.0102,-0.005 0.0179,0.0103 0.0233,0.0465 0.0107,0.0466 0.0131,0.093 0.008,0.13954 0,0.0465 -0.005,0.0909 -0.0155,0.13229 -0.0155,0.088 -9e-5,0.16272 0.0465,0.22479 0.0466,0.0569 0.10379,0.0955 0.17105,0.11626 0.0673,0.0207 0.13172,0.0161 0.19379,-0.015 0.0673,-0.031 0.10849,-0.0908 0.12402,-0.1788 h 5.2e-4 c 0.0153,-0.0828 0.0257,-0.16836 0.031,-0.25631 0.0102,-0.0931 0.008,-0.18076 -0.008,-0.26355 -0.0155,-0.088 -0.0469,-0.16838 -0.0935,-0.24082 -0.0466,-0.0776 -0.111,-0.14206 -0.19379,-0.19378 -0.0931,-0.0571 -0.18901,-0.0828 -0.28732,-0.0775 -0.0983,0.005 -0.19109,0.031 -0.27905,0.0775 -0.088,0.0414 -0.17095,0.0981 -0.24856,0.17052 -0.0776,0.0673 -0.14206,0.13994 -0.19379,0.21757 -0.0155,0.0155 -0.0336,0.0387 -0.0543,0.0697 -0.005,-0.0466 -0.008,-0.0935 -0.008,-0.14001 0,-0.0466 -0.002,-0.093 -0.008,-0.13955 -0.005,-0.0931 -0.0392,-0.16012 -0.10129,-0.20153 -0.0569,-0.0465 -0.12134,-0.0698 -0.19378,-0.0698 z m -18.58646,0.007 c -0.0323,0.005 -0.0641,0.016 -0.0951,0.0315 -0.0569,0.0311 -0.10071,0.0775 -0.13177,0.13952 -0.0311,0.0621 -0.0311,0.13168 0,0.20931 v 0.008 c -0.0103,-0.0107 -0.0155,-0.0136 -0.0155,-0.008 l 0.0155,0.0233 v 0.0155 c 0.005,0.0414 0.008,0.0806 0.008,0.11682 0,0.0362 0.003,0.0748 0.008,0.11625 0.005,0.11901 0.008,0.2381 0.008,0.35709 v 0.34933 0.78393 c -0.005,0.25352 -0.0102,0.51178 -0.0155,0.77568 0,0.0776 0.0258,0.14002 0.0775,0.18653 0.0518,0.0466 0.10898,0.0749 0.17105,0.0853 0.0672,0.0104 0.1291,5e-5 0.18603,-0.031 0.0621,-0.031 0.0982,-0.0852 0.10852,-0.16278 0.0466,-0.29493 0.11925,-0.58205 0.21756,-0.86145 0.10348,-0.28459 0.20709,-0.56653 0.31058,-0.84593 0.0414,-0.11901 0.0801,-0.22521 0.11627,-0.31835 0.0414,-0.0983 0.0852,-0.19933 0.13177,-0.30281 0.0205,0.10348 0.0334,0.20709 0.0388,0.31057 0.005,0.10348 0.008,0.20968 0.008,0.31834 l 0.0465,1.7694 c 0,0.088 0.0283,0.155 0.0853,0.20154 0.0621,0.0465 0.12704,0.0703 0.19431,0.0703 0.0724,0 0.13685,-0.0238 0.19378,-0.0703 0.0569,-0.0414 0.0853,-0.1084 0.0853,-0.20154 -0.0102,-0.30011 -0.0179,-0.59753 -0.0232,-0.89246 -0.005,-0.30009 -0.0129,-0.60267 -0.0233,-0.90795 -0.005,-0.14488 -0.0102,-0.28974 -0.0155,-0.4346 0,-0.15005 -0.0283,-0.29231 -0.0853,-0.42685 l -5.2e-4,-5e-4 c -0.0569,-0.15008 -0.15227,-0.26141 -0.2868,-0.33386 -0.12935,-0.0722 -0.2742,-0.0693 -0.4346,0.008 -0.11898,0.0621 -0.20713,0.15745 -0.26407,0.2868 -0.0517,0.12936 -0.10067,0.25101 -0.14727,0.36484 -0.0207,0.0517 -0.0414,0.10117 -0.062,0.14779 -0.0155,0.0466 -0.0341,0.0955 -0.0548,0.14727 0,-0.0724 -0.002,-0.14512 -0.008,-0.21757 0,-0.0776 -0.002,-0.15234 -0.008,-0.22479 0,-0.0724 -0.003,-0.14769 -0.008,-0.22529 -0.005,-0.0828 -0.0258,-0.15753 -0.062,-0.22479 -0.0414,-0.0776 -0.0986,-0.12144 -0.17105,-0.13179 -0.0337,-0.005 -0.0664,-0.006 -0.0987,-5e-4 z m 14.30506,0 c -0.0352,3.2e-4 -0.0713,0.003 -0.10748,0.008 -0.16558,0.0155 -0.31558,0.0748 -0.4501,0.17828 -0.12936,0.10348 -0.23296,0.23029 -0.31058,0.38034 -0.0776,0.15523 -0.13433,0.3207 -0.17053,0.49662 -0.0414,0.17592 -0.062,0.35428 -0.062,0.53536 -0.005,0.18111 0.0103,0.35997 0.0465,0.53589 0.031,0.17592 0.08,0.34396 0.14727,0.50437 0.0724,0.16555 0.17348,0.31041 0.30283,0.43461 0.13452,0.11898 0.29484,0.19116 0.48111,0.21703 0.19661,0.0311 0.38837,0.013 0.57464,-0.0543 0.19144,-0.0621 0.37237,-0.13684 0.54312,-0.22479 0.0828,-0.0414 0.12919,-0.096 0.13952,-0.1633 0.0103,-0.0724 -0.003,-0.13687 -0.0387,-0.19378 -0.0362,-0.0621 -0.0904,-0.10848 -0.16279,-0.13954 -0.0673,-0.0311 -0.13994,-0.0259 -0.21755,0.0155 -0.088,0.0414 -0.18075,0.0853 -0.27906,0.13179 -0.0983,0.0414 -0.19676,0.0672 -0.29507,0.0775 -0.0983,0.0104 -0.19161,8e-5 -0.27957,-0.031 -0.0828,-0.0362 -0.15497,-0.10838 -0.21704,-0.21704 -0.0828,-0.1397 -0.13998,-0.30567 -0.17105,-0.49713 0.21214,0.0103 0.40906,-0.0257 0.59015,-0.1085 0.18626,-0.088 0.34142,-0.22252 0.4656,-0.4036 0.0569,-0.0776 0.10333,-0.16576 0.13953,-0.26408 0.0363,-0.0983 0.0599,-0.19881 0.0703,-0.30228 0.0153,-0.10351 0.0124,-0.20453 -0.008,-0.30285 -0.0155,-0.0983 -0.0516,-0.19161 -0.10852,-0.27956 -0.0776,-0.12416 -0.1838,-0.21436 -0.31833,-0.2713 -0.097,-0.0427 -0.19811,-0.0635 -0.30386,-0.0625 z m -24.69513,0.0548 c -0.13452,-0.005 -0.25102,0.0361 -0.34933,0.12401 -0.0983,0.088 -0.17615,0.18899 -0.23306,0.30284 -0.0466,0.0983 -0.0904,0.19881 -0.13178,0.30231 -0.0362,0.0983 -0.0723,0.19934 -0.10852,0.30282 -0.0259,-0.13454 -0.0516,-0.26649 -0.0775,-0.39584 -0.0207,-0.13454 -0.0444,-0.26909 -0.0703,-0.4036 -0.0155,-0.0879 -0.0568,-0.14721 -0.12402,-0.17828 -0.0673,-0.031 -0.13428,-0.0362 -0.20154,-0.0155 -0.0673,0.0207 -0.12449,0.0619 -0.17105,0.12401 -0.0466,0.0569 -0.062,0.12959 -0.0465,0.21757 0.0414,0.2173 0.08,0.43174 0.11627,0.64389 0.0362,0.20695 0.0728,0.41934 0.10904,0.63664 0.0207,0.10866 0.0387,0.2169 0.0543,0.32557 0.0155,0.10866 0.0336,0.21484 0.0543,0.31832 0.005,0.0259 0.008,0.0516 0.008,0.0775 0.005,0.0259 0.0103,0.0522 0.0155,0.078 -0.0104,0.0828 -0.0207,0.16525 -0.031,0.24804 -0.005,0.0776 -0.0129,0.1606 -0.0233,0.24858 -0.005,0.0879 0.0309,0.1601 0.10852,0.21704 0.0828,0.0569 0.16578,0.0724 0.24857,0.0465 0.15004,-0.0414 0.24025,-0.12388 0.2713,-0.24805 0.031,-0.12935 0.0367,-0.25873 0.016,-0.38809 -0.005,-0.0259 -0.0108,-0.0491 -0.016,-0.0698 0,-0.0207 -0.003,-0.0413 -0.008,-0.062 0.0259,-0.19661 0.0599,-0.38838 0.10128,-0.57464 0.0466,-0.19143 0.1007,-0.38011 0.16278,-0.56637 0.0207,-0.0673 0.0413,-0.13224 0.062,-0.19431 0.0259,-0.0673 0.0516,-0.13428 0.0775,-0.20154 0.0207,-0.0517 0.0418,-0.10583 0.0625,-0.16277 0.0207,-0.0621 0.0491,-0.11676 0.0853,-0.1633 l 0.0155,-0.0155 c 0.0103,0.0362 0.0207,0.0543 0.031,0.0543 0.031,0.0621 0.0645,0.13478 0.10077,0.21757 0.0724,0.18108 0.13481,0.37748 0.18655,0.58962 -0.031,0.15524 -0.0548,0.31039 -0.0703,0.46559 -0.0155,0.11901 -0.031,0.24326 -0.0465,0.37259 -0.0103,0.12419 -0.0155,0.24842 -0.0155,0.37258 0.005,0.10867 0.0361,0.21487 0.093,0.31835 0.0621,0.0983 0.15281,0.15245 0.27182,0.16277 0.0983,0.0104 0.17615,-0.0154 0.23306,-0.0775 0.0621,-0.0673 0.10848,-0.14457 0.13953,-0.23254 0.0466,-0.13452 0.0672,-0.27678 0.062,-0.42683 0,-0.15007 -0.005,-0.29284 -0.0155,-0.42738 -0.0104,-0.088 -0.0232,-0.17558 -0.0387,-0.26355 -0.0104,-0.0931 -0.0258,-0.18386 -0.0465,-0.27181 0.0103,-0.0569 0.0232,-0.11877 0.0388,-0.18603 0.0207,-0.0673 0.0439,-0.12962 0.0698,-0.18655 0.0259,-0.0569 0.0568,-0.10332 0.093,-0.13955 0.0362,-0.0364 0.0806,-0.0518 0.1323,-0.0465 0.0776,0.0103 0.13689,0.0438 0.17828,0.10075 0.0466,0.0569 0.0801,0.12443 0.10077,0.20206 0.0259,0.0724 0.0439,0.14976 0.0543,0.23255 0.0103,0.0776 0.0186,0.14512 0.0238,0.20206 0.0259,0.2173 0.0388,0.43431 0.0388,0.65164 0.005,0.21212 -0.003,0.42709 -0.0233,0.64439 -0.005,0.088 0.018,0.155 0.0698,0.20154 0.0569,0.0465 0.11877,0.0698 0.18603,0.0698 0.0724,0 0.13997,-0.0232 0.20206,-0.0698 0.0621,-0.0466 0.0982,-0.11359 0.10852,-0.20154 0.0207,-0.26905 0.0258,-0.53554 0.0155,-0.79944 -0.0104,-0.26905 -0.0361,-0.53813 -0.0775,-0.80719 -0.0155,-0.10863 -0.0439,-0.2174 -0.0853,-0.32607 -0.0362,-0.11382 -0.0883,-0.21487 -0.15555,-0.30281 -0.0673,-0.088 -0.14716,-0.16272 -0.24029,-0.22479 -0.088,-0.0673 -0.19415,-0.10901 -0.31833,-0.12454 -0.15005,-0.0207 -0.27943,-0.003 -0.38809,0.0542 -0.10348,0.0518 -0.19163,0.12959 -0.26406,0.23307 -0.031,-0.0725 -0.0645,-0.14513 -0.10077,-0.21757 -0.0362,-0.0724 -0.08,-0.13684 -0.13178,-0.19378 -0.0517,-0.0569 -0.10896,-0.10332 -0.17105,-0.13952 -0.0621,-0.0362 -0.13425,-0.0543 -0.21704,-0.0543 z m 6.10867,0 c -0.12935,0.005 -0.24843,0.0412 -0.35708,0.10853 -0.10348,0.062 -0.18853,0.14251 -0.2558,0.2408 -0.062,0.0983 -0.1167,0.19883 -0.1633,0.30231 -0.0569,0.11901 -0.10588,0.24323 -0.14728,0.37259 -0.0414,0.12417 -0.0749,0.25098 -0.10076,0.38034 -0.0257,0.12416 -0.0417,0.25098 -0.047,0.38033 -0.0103,0.12417 -0.0103,0.25099 0,0.38034 0.0103,0.11901 0.0315,0.24323 0.0625,0.37259 0.0259,0.12935 0.0774,0.24328 0.15503,0.34158 0.0776,0.0983 0.17606,0.16271 0.29507,0.19378 0.119,0.0311 0.23756,0.0259 0.35657,-0.0155 0.12418,-0.0466 0.22779,-0.11872 0.31057,-0.21704 0.0828,-0.10347 0.1555,-0.21224 0.21756,-0.32607 0.0466,-0.0828 0.0878,-0.16579 0.12402,-0.24857 0.0259,0.10866 0.0491,0.21743 0.0698,0.32609 0.0259,0.10864 0.0547,0.21485 0.0858,0.31833 0.0259,0.088 0.0723,0.14467 0.13953,0.17052 0.0673,0.031 0.13427,0.0362 0.20153,0.0155 0.0673,-0.0155 0.1219,-0.0516 0.1633,-0.1085 0.0465,-0.0621 0.0594,-0.13737 0.0388,-0.22532 -0.18625,-0.62606 -0.2744,-1.27762 -0.26407,-1.95543 0.005,-0.0724 -0.0154,-0.12965 -0.062,-0.17105 -0.0414,-0.0465 -0.0903,-0.0775 -0.14728,-0.093 -0.0362,-0.088 -0.0779,-0.16836 -0.12454,-0.2408 -0.0466,-0.0776 -0.111,-0.14462 -0.19378,-0.20153 -0.10348,-0.0726 -0.22256,-0.10613 -0.35709,-0.10078 z m 32.19184,0 c -0.12936,0.005 -0.24792,0.0412 -0.35657,0.10853 -0.10348,0.0621 -0.18905,0.14251 -0.25632,0.2408 -0.062,0.0983 -0.11618,0.19883 -0.16278,0.30231 -0.0569,0.11901 -0.10639,0.24323 -0.14779,0.37259 -0.0414,0.12417 -0.0749,0.25098 -0.10077,0.38034 -0.0257,0.12416 -0.0412,0.25098 -0.0465,0.38033 -0.0103,0.12417 -0.0103,0.25099 0,0.38034 0.0103,0.11901 0.0309,0.24323 0.062,0.37259 0.0259,0.12935 0.0774,0.24328 0.15503,0.34158 0.0776,0.0983 0.17607,0.16271 0.29507,0.19378 0.119,0.0311 0.23808,0.0259 0.35709,-0.0155 0.12417,-0.0466 0.22779,-0.11872 0.31057,-0.21704 0.0828,-0.10347 0.15498,-0.21224 0.21704,-0.32607 0.0466,-0.0828 0.0883,-0.16579 0.12454,-0.24857 0.0259,0.10866 0.0491,0.21743 0.0698,0.32609 0.0259,0.10864 0.0542,0.21485 0.0853,0.31833 0.0259,0.088 0.0723,0.14467 0.13953,0.17052 0.0673,0.031 0.13479,0.0362 0.20206,0.0155 0.0673,-0.0155 0.12138,-0.0516 0.16278,-0.1085 0.0466,-0.0621 0.0595,-0.13737 0.0387,-0.22532 -0.18625,-0.62606 -0.27388,-1.27762 -0.26355,-1.95543 0.005,-0.0724 -0.0159,-0.12965 -0.0625,-0.17105 -0.0414,-0.0465 -0.0903,-0.0775 -0.14727,-0.093 -0.0362,-0.088 -0.0774,-0.16836 -0.12403,-0.2408 -0.0466,-0.0776 -0.11151,-0.14462 -0.1943,-0.20153 -0.10348,-0.0726 -0.22256,-0.10613 -0.35708,-0.10078 z m -18.47846,0.007 c -0.0336,3.5e-4 -0.0679,0.003 -0.10284,0.008 -0.13452,0.0155 -0.25876,0.0593 -0.37259,0.13177 -0.22248,0.14488 -0.38022,0.33922 -0.47335,0.5824 -0.0931,0.23802 -0.1447,0.48336 -0.15503,0.73691 -0.005,0.11899 -3e-5,0.24324 0.0155,0.37259 0.0103,0.12935 0.0309,0.25614 0.062,0.38034 0.0362,0.12417 0.0826,0.24323 0.13953,0.35708 0.0569,0.11382 0.1296,0.21743 0.21756,0.31057 0.10348,0.10866 0.22256,0.18084 0.35708,0.21704 0.1397,0.0414 0.28198,0.0466 0.42685,0.0155 0.15004,-0.031 0.28201,-0.0903 0.39584,-0.17828 0.119,-0.088 0.22519,-0.18642 0.31833,-0.29509 0.0569,-0.0673 0.0801,-0.13684 0.0698,-0.20928 -0.0103,-0.0776 -0.0413,-0.13994 -0.093,-0.18653 -0.0517,-0.0516 -0.11411,-0.08 -0.18655,-0.0853 -0.0672,-0.0103 -0.1291,0.018 -0.18604,0.0853 -0.0466,0.0517 -0.10122,0.10583 -0.16329,0.16277 -0.0569,0.0569 -0.11878,0.1007 -0.18604,0.13176 -0.0673,0.0311 -0.13737,0.0414 -0.2098,0.031 -0.0673,-0.0103 -0.1291,-0.0542 -0.18604,-0.13176 -0.0879,-0.11901 -0.14773,-0.25099 -0.1788,-0.39584 -0.0309,-0.15005 -0.0489,-0.29748 -0.0543,-0.44236 -0.005,-0.13452 0.003,-0.27422 0.0233,-0.4191 0.0259,-0.14486 0.0805,-0.27424 0.16329,-0.38809 0.0414,-0.0517 0.0878,-0.0981 0.13953,-0.13952 0.0518,-0.0466 0.10898,-0.0749 0.17105,-0.0853 0.0155,-0.005 0.0336,-0.005 0.0543,0 0.0259,0 0.0439,0.002 0.0543,0.008 0.0103,0.0104 0.0155,0.0387 0.0155,0.0853 v 0.10903 c 0,0.0879 0.0283,0.15494 0.0853,0.20153 0.0621,0.0465 0.12703,0.0698 0.1943,0.0698 0.0724,0 0.13686,-0.0232 0.19379,-0.0698 0.0569,-0.0466 0.0853,-0.11358 0.0853,-0.20153 0,-0.14489 -0.0232,-0.28199 -0.0698,-0.41135 -0.0466,-0.12935 -0.13987,-0.2278 -0.27957,-0.29506 -0.0892,-0.0426 -0.18436,-0.0635 -0.28525,-0.0625 z m -4.44831,0.0548 c -0.0672,0 -0.1291,0.0231 -0.18603,0.0697 -0.0571,0.0414 -0.0829,0.10893 -0.0775,0.20206 0.0102,0.40876 0.0179,0.81701 0.0233,1.22576 0.0103,0.40876 0.0387,0.81754 0.0853,1.2263 0.0103,0.0776 0.0387,0.14512 0.0853,0.20206 0.0466,0.0517 0.11151,0.0775 0.1943,0.0775 0.0725,0 0.13947,-0.0258 0.20154,-0.0775 0.0621,-0.0569 0.0879,-0.12446 0.0775,-0.20206 -0.0466,-0.40876 -0.0749,-0.81754 -0.0853,-1.2263 -0.005,-0.40875 -0.0129,-0.817 -0.0233,-1.22576 0,-0.088 -0.031,-0.15552 -0.093,-0.20206 -0.0621,-0.0466 -0.12962,-0.0697 -0.20206,-0.0697 z m 18.50378,0 c -0.0672,0 -0.1291,0.0231 -0.18603,0.0697 -0.0571,0.0414 -0.0834,0.10893 -0.078,0.20206 0.0102,0.40876 0.0184,0.81701 0.0238,1.22576 0.0103,0.40876 0.0387,0.81754 0.0853,1.2263 0.0103,0.0776 0.0387,0.14512 0.0853,0.20206 0.0466,0.0517 0.11151,0.0775 0.1943,0.0775 0.0725,0 0.13947,-0.0258 0.20154,-0.0775 0.0621,-0.0569 0.0879,-0.12446 0.0775,-0.20206 -0.0466,-0.40876 -0.0749,-0.81754 -0.0853,-1.2263 -0.005,-0.40875 -0.0129,-0.817 -0.0233,-1.22576 0,-0.088 -0.031,-0.15552 -0.093,-0.20206 -0.0621,-0.0466 -0.12961,-0.0697 -0.20205,-0.0697 z m -23.71277,0.2718 0.0155,0.031 -0.008,-0.008 c 0,-0.005 -0.002,-0.0102 -0.008,-0.0155 z m 14.56243,0.17002 c 0.0103,0 0.0207,0.003 0.031,0.008 0.0155,0.005 0.0284,0.0102 0.0388,0.0155 0.0104,0.005 0.0207,0.0155 0.031,0.031 0.0157,0.0157 0.0208,0.0181 0.0155,0.008 0.0153,0.0207 0.0257,0.0491 0.031,0.0853 0.005,0.0157 0.008,0.0208 0.008,0.0155 v 0.0155 0.10128 c 0,0.0259 -0.0103,0.0723 -0.031,0.13952 -0.0102,0.031 -0.0179,0.0542 -0.0232,0.0698 -0.005,0.0155 -0.0181,0.0413 -0.0388,0.0775 -0.0569,0.10864 -0.14506,0.1968 -0.26406,0.26405 -0.10866,0.0466 -0.23031,0.062 -0.36484,0.0465 0.0155,-0.12417 0.0387,-0.24069 0.0698,-0.34933 0.0259,-0.088 0.0573,-0.1756 0.0935,-0.26355 0.0414,-0.088 0.10067,-0.15809 0.17828,-0.20982 v -5e-4 c 0.0673,-0.0517 0.14201,-0.0698 0.2248,-0.0543 z m -18.62212,0.0589 c 0.0155,-0.003 0.0294,-0.002 0.0424,0.004 0.0259,0.0103 0.0465,0.031 0.062,0.062 0.0155,0.0259 0.0289,0.0568 0.0393,0.093 0.0103,0.0311 0.0207,0.0599 0.031,0.0858 0.0207,0.0672 0.0593,0.1162 0.11627,0.14727 -0.0414,0.17592 -0.0883,0.34911 -0.14004,0.51988 -0.0466,0.17073 -0.10585,0.33877 -0.17828,0.50434 l 5.1e-4,5.3e-4 c -0.0362,0.0828 -0.08,0.17608 -0.13177,0.27956 -0.0466,0.10348 -0.10636,0.18336 -0.1788,0.2403 -0.0311,0.0205 -0.0542,0.0334 -0.0698,0.0388 l -0.008,-0.008 c -0.0259,-0.0259 -0.0439,-0.0676 -0.0543,-0.12454 -0.0102,-0.0621 -0.0179,-0.1111 -0.0233,-0.14727 -0.0415,-0.21214 -0.0445,-0.42402 -0.008,-0.63614 0.0414,-0.21733 0.10377,-0.42455 0.18655,-0.62116 0.0259,-0.0724 0.0568,-0.14975 0.093,-0.23254 0.0414,-0.088 0.0981,-0.15036 0.17053,-0.18656 0.0181,-0.0103 0.0351,-0.0165 0.0506,-0.0191 z m 32.19183,0 c 0.0155,-0.003 0.03,-0.002 0.0429,0.004 0.0259,0.0103 0.0465,0.031 0.062,0.062 0.0155,0.0259 0.0284,0.0568 0.0388,0.093 0.0103,0.0311 0.0207,0.0599 0.031,0.0858 0.0207,0.0672 0.0593,0.1162 0.11628,0.14727 -0.0414,0.17592 -0.0878,0.34911 -0.13953,0.51988 -0.0466,0.17073 -0.10584,0.33877 -0.17828,0.50434 l 5.1e-4,5.3e-4 c -0.0362,0.0828 -0.0806,0.17608 -0.13229,0.27956 -0.0466,0.10348 -0.10584,0.18336 -0.17828,0.2403 -0.0311,0.0205 -0.0542,0.0334 -0.0698,0.0388 l -0.008,-0.008 c -0.0259,-0.0259 -0.0439,-0.0676 -0.0543,-0.12454 -0.0102,-0.0621 -0.0179,-0.11107 -0.0233,-0.14727 -0.0415,-0.21214 -0.044,-0.42402 -0.008,-0.63614 0.0414,-0.21733 0.10325,-0.42455 0.18604,-0.62116 0.0259,-0.0724 0.0568,-0.14975 0.093,-0.23254 0.0414,-0.088 0.0986,-0.15036 0.17105,-0.18656 0.0181,-0.0103 0.0346,-0.0165 0.0501,-0.0191 z"
         id="path1420"
         inkscape:connector-curvature="0" />
      <path
         style="color:#000000;font-style:normal;font-variant:normal;font-weight:normal;font-stretch:normal;font-size:medium;line-height:normal;font-family:sans-serif;font-variant-ligatures:normal;font-variant-position:normal;font-variant-caps:normal;font-variant-numeric:normal;font-variant-alternates:normal;font-feature-settings:normal;text-indent:0;text-align:start;text-decoration:none;text-decoration-line:none;text-decoration-style:solid;text-decoration-color:#000000;letter-spacing:normal;word-spacing:normal;text-transform:none;writing-mode:lr-tb;direction:ltr;text-orientation:mixed;dominant-baseline:auto;baseline-shift:baseline;text-anchor:start;white-space:normal;shape-padding:0;clip-rule:nonzero;display:inline;overflow:visible;visibility:visible;opacity:1;isolation:auto;mix-blend-mode:normal;color-interpolation:sRGB;color-interpolation-filters:linearRGB;solid-color:#000000;solid-opacity:1;vector-effect:none;fill:#3d3846;fill-opacity:1;fill-rule:nonzero;stroke:none;stroke-width:1;stroke-linecap:butt;stroke-linejoin:miter;stroke-miterlimit:4;stroke-dasharray:none;stroke-dashoffset:0;stroke-opacity:1;color-rendering:auto;image-rendering:auto;shape-rendering:auto;text-rendering:auto;enable-background:accumulate"
         d="m 207.40668,255.13954 c -0.0152,0.003 -0.14285,0.28101 -0.22635,0.493 -0.33483,0.85 -0.49622,1.75651 -0.46095,2.5895 0.0124,0.29157 0.12523,0.90151 0.21963,1.18803 0.24315,0.7379 0.71982,1.46884 1.29087,2.09704 l -0.008,0.002 c 0.21754,1.08405 0.47837,2.1133 0.77463,3.09488 -0.31494,-0.33422 -0.65773,-0.62725 -1.01957,-0.85214 -0.25622,-0.15923 -0.82282,-0.41281 -1.1033,-0.4935 -0.80126,-0.2304 -1.72021,-0.28702 -2.62516,-0.16174 -0.22568,0.0312 -0.52527,0.0901 -0.53226,0.10385 -0.007,0.0143 0.13096,0.26466 0.26303,0.47905 0.49068,0.79677 1.11667,1.46293 1.82469,1.94096 0.16197,0.10935 0.25179,0.15806 0.57671,0.31213 0.24811,0.11763 0.43657,0.19817 0.52968,0.22738 0.81341,0.25268 1.71357,0.21709 2.6386,0.10747 0.46006,1.25934 0.98505,2.42613 1.56011,3.51142 -0.45372,-0.25212 -0.92646,-0.44805 -1.39371,-0.55346 -0.29427,-0.0664 -0.91212,-0.11967 -1.20354,-0.10387 -0.83252,0.0451 -1.71937,0.29284 -2.53318,0.70797 -0.20297,0.10351 -0.46661,0.25755 -0.46871,0.27287 -0.002,0.0157 0.21006,0.20716 0.40515,0.36636 0.72486,0.59177 1.53442,1.01518 2.36006,1.23458 0.18887,0.0501 0.29003,0.0669 0.6475,0.10591 0.27297,0.0298 0.47764,0.0443 0.57516,0.0413 0.80489,-0.0266 1.59822,-0.32483 2.39055,-0.70072 0.6588,1.08096 1.36825,2.07217 2.1177,2.97603 -0.32657,-0.15171 -0.65903,-0.27085 -0.98857,-0.3452 -0.29426,-0.0664 -0.91264,-0.11967 -1.20406,-0.10387 -0.83252,0.0451 -1.71885,0.29284 -2.53266,0.70797 -0.20296,0.1035 -0.4666,0.25754 -0.4687,0.27286 -0.002,0.0157 0.21006,0.20717 0.40514,0.36637 0.72486,0.59177 1.53442,1.01571 2.36006,1.23508 0.18887,0.0501 0.29003,0.0664 0.64751,0.10541 0.27296,0.0298 0.47764,0.0443 0.57516,0.0413 0.8624,-0.0285 1.7117,-0.36494 2.56056,-0.77928 0.75884,0.77632 1.54417,1.47905 2.34456,2.11358 -0.45333,0.0238 -0.89362,0.094 -1.29501,0.22219 -0.28737,0.0918 -0.84757,0.35873 -1.09089,0.51988 -0.69506,0.46043 -1.33416,1.12334 -1.82573,1.89341 -0.12261,0.19204 -0.27203,0.45802 -0.26613,0.47234 0.007,0.0144 0.28601,0.0726 0.53485,0.1111 0.9247,0.14324 1.83777,0.0987 2.66082,-0.13023 0.18828,-0.0524 0.28385,-0.0893 0.61185,-0.23667 0.25045,-0.11258 0.43429,-0.2037 0.51676,-0.2558 0.60408,-0.38208 1.09182,-0.94451 1.53893,-1.57252 0.92018,0.63362 1.84839,1.18647 2.76727,1.66655 -0.34026,0.0358 -0.66917,0.10007 -0.97565,0.19794 -0.28737,0.0917 -0.84757,0.35869 -1.09089,0.51985 -0.69506,0.46046 -1.33416,1.12337 -1.82573,1.89344 -0.12261,0.19203 -0.27203,0.45802 -0.26613,0.47231 0.007,0.0144 0.286,0.0721 0.53485,0.11059 0.9247,0.14325 1.83777,0.0987 2.66082,-0.13023 0.18828,-0.0524 0.28385,-0.0893 0.61185,-0.23667 0.25045,-0.11255 0.43428,-0.2032 0.51676,-0.25529 0.64876,-0.41032 1.16275,-1.02928 1.6366,-1.71411 1.04405,0.45411 2.05699,0.82246 3.01325,1.12036 -0.7409,0.32236 -1.4372,0.7629 -1.94459,1.29966 -0.20723,0.21923 -0.5682,0.72368 -0.70331,0.98237 -0.38594,0.73903 -0.62502,1.62816 -0.68316,2.53989 -0.0145,0.22738 -0.0172,0.53208 -0.005,0.54208 0.0127,0.01 0.28597,-0.0747 0.52245,-0.16121 0.87875,-0.32155 1.65611,-0.80174 2.26601,-1.39994 0.13951,-0.13681 0.20526,-0.21574 0.42116,-0.50331 0.16485,-0.21958 0.28218,-0.38786 0.32918,-0.47337 0.41235,-0.75054 0.5564,-1.64491 0.63355,-2.57866 0.91762,0.25744 1.77129,0.45342 2.52543,0.59741 -0.55623,0.29138 -1.0666,0.65042 -1.46193,1.06865 -0.20723,0.21923 -0.56871,0.72369 -0.70383,0.98237 -0.38593,0.73903 -0.62506,1.62817 -0.68316,2.53989 -0.015,0.22739 -0.0173,0.53208 -0.005,0.54208 0.0127,0.01 0.28545,-0.0747 0.52193,-0.16121 0.87875,-0.32155 1.65663,-0.80224 2.26653,-1.40044 0.13951,-0.13684 0.20526,-0.21524 0.42116,-0.50281 0.16486,-0.21958 0.28167,-0.38785 0.32867,-0.47337 0.38321,-0.69752 0.53227,-1.5208 0.61391,-2.38278 0.87847,0.12546 1.55333,0.18367 1.88309,0.20206 l -1.8619,-0.40516 c 0.002,-0.0192 0.004,-0.0377 0.006,-0.0568 l -0.44493,-0.3452 h -5.2e-4 c -0.16328,0.0606 -0.32479,0.12901 -0.48472,0.201 l -0.19327,-0.0419 -0.6749,-0.8816 c -0.39028,-0.084 -0.80631,-0.18422 -1.2361,-0.29609 0.0713,-0.19693 0.13679,-0.39362 0.19224,-0.59015 l -2.43758,-3.51401 c -0.0948,0.43309 -0.14324,0.86574 -0.14211,1.28211 7.9e-4,0.29181 0.0891,0.90628 0.17209,1.19629 0.10787,0.37698 0.27742,0.75412 0.48679,1.11932 -0.76587,-0.25011 -1.56755,-0.5497 -2.38952,-0.90175 0.4728,-0.83013 0.86754,-1.66508 0.95033,-2.53318 0.009,-0.0971 0.007,-0.30244 -0.006,-0.57671 -0.0167,-0.3592 -0.0267,-0.46106 -0.0651,-0.65267 -0.16773,-0.83767 -0.54007,-1.67225 -1.08572,-2.43242 -0.14684,-0.20455 -0.32525,-0.42807 -0.34106,-0.42736 -0.0154,0.002 -0.18485,0.25501 -0.30076,0.45114 -0.46482,0.7865 -0.76737,1.65598 -0.86403,2.4841 -0.0338,0.28985 -0.0191,0.91035 0.0289,1.20819 0.11346,0.70398 0.42332,1.43256 0.83251,2.09701 -0.14512,-0.068 -0.28917,-0.132 -0.43512,-0.2036 -1.04382,-0.51202 -2.10565,-1.11461 -3.15536,-1.82573 0.60155,-0.50324 1.13449,-1.04098 1.47174,-1.68413 0.0453,-0.0864 0.12098,-0.27768 0.21291,-0.53641 0.12035,-0.33885 0.14959,-0.43699 0.18655,-0.62889 0.16155,-0.83889 0.13234,-1.75231 -0.0853,-2.66237 -0.0585,-0.24492 -0.13908,-0.51869 -0.15399,-0.52401 -0.0147,-0.005 -0.26759,0.16563 -0.44907,0.30335 -0.72775,0.55226 -1.33674,1.24296 -1.73943,1.973 -0.14093,0.25556 -0.36173,0.83529 -0.42995,1.12913 -0.13412,0.57788 -0.14824,1.22325 -0.0765,1.86709 -0.95173,-0.72115 -1.88477,-1.54012 -2.77709,-2.46706 0.66753,-0.386 1.27363,-0.81835 1.71101,-1.38387 0.0597,-0.0772 0.16768,-0.25223 0.30334,-0.49094 0.17763,-0.31266 0.22314,-0.40402 0.293,-0.58653 0.30543,-0.79782 0.43584,-1.70246 0.38034,-2.63652 -0.0149,-0.25138 -0.0462,-0.53528 -0.0599,-0.54313 -0.0136,-0.008 -0.29234,0.1167 -0.49506,0.22066 -0.81295,0.41685 -1.53336,0.99057 -2.05724,1.63917 -0.18336,0.22707 -0.50168,0.75973 -0.62012,1.03714 -0.21893,0.51292 -0.34477,1.10249 -0.39377,1.70844 -0.85883,-1.00549 -1.66949,-2.12288 -2.40761,-3.37034 0.77933,-0.20643 1.51088,-0.47329 2.10168,-0.92707 0.0774,-0.0594 0.22608,-0.20111 0.41807,-0.39741 0.2514,-0.25712 0.319,-0.33377 0.43304,-0.49247 0.49856,-0.69373 0.85499,-1.53513 1.03922,-2.45255 0.0496,-0.24691 0.0914,-0.52946 0.0801,-0.54054 -0.0111,-0.0109 -0.31233,0.0379 -0.53485,0.0868 -0.8923,0.19605 -1.73478,0.56766 -2.40657,1.06142 -0.23514,0.17288 -0.67884,0.6068 -0.86403,0.84493 -0.37656,0.48424 -0.66707,1.08756 -0.87333,1.72548 -0.53091,-1.0078 -1.01699,-2.09117 -1.44694,-3.25822 0.83424,-0.27723 1.61508,-0.61134 2.21589,-1.1503 0.0726,-0.0652 0.21006,-0.21754 0.38654,-0.42788 0.23109,-0.27554 0.29266,-0.35761 0.39429,-0.52451 0.44426,-0.7297 0.73574,-1.59563 0.84956,-2.52439 0.0306,-0.24995 0.0514,-0.53499 0.0393,-0.5452 -0.0119,-0.01 -0.30895,0.0619 -0.5271,0.12763 -0.87477,0.26347 -1.68649,0.69776 -2.31872,1.24127 -0.22129,0.19029 -0.63085,0.65693 -0.79737,0.90847 -0.30336,0.45831 -0.53158,1.00605 -0.68884,1.5839 -0.33904,-1.07272 -0.63543,-2.20707 -0.87747,-3.41323 l -0.12092,0.0243 c 0.28827,-0.80743 0.49906,-1.60872 0.44907,-2.39572 -0.006,-0.0974 -0.0408,-0.29962 -0.0966,-0.56846 -0.0733,-0.35208 -0.0993,-0.45088 -0.16743,-0.63405 -0.29786,-0.8007 -0.79744,-1.56585 -1.45624,-2.23035 -0.17729,-0.17884 -0.38861,-0.37166 -0.40411,-0.36846 z m 65.21669,0 c -0.0155,-0.003 -0.22683,0.18962 -0.40411,0.36846 -0.65881,0.6645 -1.15838,1.42965 -1.45624,2.23035 -0.0681,0.18317 -0.0941,0.28197 -0.16743,0.63405 -0.0559,0.26884 -0.0906,0.47107 -0.0966,0.56846 -0.05,0.787 0.1608,1.58829 0.44907,2.39572 l -0.12144,-0.0243 c -0.24204,1.20616 -0.53844,2.34051 -0.87747,3.41323 -0.15726,-0.57782 -0.38496,-1.12559 -0.68833,-1.5839 -0.16651,-0.25154 -0.57607,-0.71818 -0.79736,-0.90847 -0.63223,-0.54351 -1.44395,-0.9778 -2.31873,-1.24127 -0.21815,-0.0657 -0.5152,-0.13763 -0.52709,-0.12763 -0.0121,0.0102 0.008,0.29525 0.0387,0.5452 0.11382,0.92876 0.40529,1.79469 0.84956,2.52439 0.10163,0.1669 0.16319,0.24897 0.39429,0.52451 0.17647,0.21034 0.31394,0.36269 0.38654,0.42788 0.60066,0.53883 1.38188,0.8726 2.21589,1.1498 -0.42991,1.16697 -0.91557,2.25044 -1.44643,3.25819 -0.20624,-0.63776 -0.49684,-1.24079 -0.87333,-1.72495 -0.1852,-0.23813 -0.62889,-0.67205 -0.86403,-0.84493 -0.67179,-0.49376 -1.51427,-0.86537 -2.40657,-1.06142 -0.22252,-0.0489 -0.52427,-0.0977 -0.53536,-0.0868 -0.0113,0.0111 0.031,0.29363 0.0806,0.54054 0.18423,0.91742 0.54065,1.75882 1.03921,2.45255 0.11404,0.1587 0.18164,0.23535 0.43305,0.49247 0.19198,0.1963 0.34066,0.33801 0.41806,0.39741 0.59069,0.45368 1.32202,0.72064 2.10117,0.92707 -0.73802,1.24733 -1.54839,2.36442 -2.40709,3.36981 -0.049,-0.60576 -0.17491,-1.19512 -0.39378,-1.70791 -0.11843,-0.27741 -0.43727,-0.81007 -0.62063,-1.03714 -0.52388,-0.6486 -1.24378,-1.22232 -2.05672,-1.63917 -0.20273,-0.10396 -0.48198,-0.22865 -0.49558,-0.22066 -0.0138,0.008 -0.045,0.29175 -0.0599,0.54313 -0.0555,0.93406 0.0749,1.8387 0.38033,2.63652 0.0699,0.18251 0.1159,0.27387 0.29353,0.58653 0.13566,0.23871 0.24364,0.41373 0.30334,0.49094 0.43735,0.56546 1.04301,0.99787 1.71049,1.38387 -0.89232,0.92694 -1.82536,1.74591 -2.77709,2.46706 0.0718,-0.64384 0.0581,-1.28921 -0.076,-1.86709 -0.0682,-0.29384 -0.28902,-0.87357 -0.42995,-1.12913 -0.40268,-0.73004 -1.01167,-1.42074 -1.73942,-1.973 -0.18148,-0.13772 -0.43437,-0.30835 -0.44907,-0.30335 -0.0149,0.005 -0.0954,0.27909 -0.154,0.52401 -0.21758,0.91006 -0.24681,1.82348 -0.0853,2.66237 0.037,0.1919 0.0662,0.29004 0.18656,0.62889 0.0919,0.25873 0.16761,0.45 0.2129,0.53641 0.33725,0.64313 0.86972,1.18092 1.47123,1.68413 -1.04971,0.71112 -2.11154,1.31371 -3.15536,1.82573 -0.14653,0.0719 -0.2921,0.14007 -0.4377,0.20825 0.41065,-0.66574 0.72187,-1.39602 0.83561,-2.10166 0.048,-0.29784 0.0627,-0.91834 0.0289,-1.20819 -0.0966,-0.82812 -0.3987,-1.6976 -0.86352,-2.4841 -0.1159,-0.19613 -0.28587,-0.44913 -0.30127,-0.45114 -0.0158,-7.1e-4 -0.19371,0.22281 -0.34055,0.42736 -0.54565,0.76017 -0.91852,1.59475 -1.08624,2.43242 -0.0384,0.19161 -0.0483,0.29347 -0.0651,0.65267 -0.013,0.27427 -0.0152,0.47961 -0.006,0.57671 0.0829,0.86882 0.47856,1.70445 0.95188,2.53524 -1.07591,0.46003 -2.11664,0.8255 -3.08973,1.11673 l -1.04852,1.32601 c 0.27056,-0.0678 0.55043,-0.14362 0.83458,-0.22323 0.0771,0.93393 0.22165,1.82848 0.63406,2.57916 0.047,0.0855 0.16433,0.25379 0.32919,0.47337 0.2159,0.28757 0.28165,0.3665 0.42116,0.50331 0.6099,0.5982 1.38726,1.07839 2.26601,1.39994 0.23648,0.0865 0.50925,0.17071 0.52193,0.16121 0.0121,-0.01 0.0104,-0.3147 -0.005,-0.54208 -0.0582,-0.91173 -0.29774,-1.80086 -0.68368,-2.53989 -0.13511,-0.25869 -0.49608,-0.76314 -0.70331,-0.98237 -0.50753,-0.53692 -1.20397,-0.9778 -1.94511,-1.30019 0.95643,-0.2975 1.97001,-0.6653 3.01429,-1.1193 0.47378,0.68467 0.98795,1.30332 1.63659,1.71358 0.0825,0.0521 0.26632,0.14274 0.51677,0.25529 0.328,0.1474 0.42356,0.18431 0.61185,0.23667 0.82304,0.2289 1.7356,0.27348 2.6603,0.13023 0.24884,-0.0385 0.52885,-0.0962 0.53537,-0.11059 0.006,-0.0143 -0.14352,-0.28028 -0.26614,-0.47231 -0.49156,-0.77007 -1.13066,-1.43298 -1.82573,-1.89344 -0.24332,-0.16116 -0.80352,-0.42812 -1.09089,-0.51985 -0.30632,-0.0978 -0.63556,-0.16214 -0.97565,-0.19794 0.91889,-0.48008 1.8471,-1.03293 2.76728,-1.66655 0.4471,0.62801 0.93485,1.19044 1.53892,1.57252 0.0825,0.0521 0.26631,0.14322 0.51677,0.2558 0.32799,0.1474 0.42356,0.18431 0.61185,0.23667 0.82305,0.22889 1.7356,0.27347 2.6603,0.13023 0.24884,-0.0385 0.52884,-0.0967 0.53536,-0.1111 0.006,-0.0143 -0.14352,-0.2803 -0.26613,-0.47234 -0.49157,-0.77007 -1.13067,-1.43298 -1.82573,-1.89341 -0.24332,-0.16115 -0.80351,-0.42812 -1.09089,-0.51988 -0.40125,-0.12811 -0.84183,-0.19843 -1.29501,-0.22219 0.80039,-0.63453 1.58572,-1.33726 2.34456,-2.11358 0.84886,0.41432 1.69818,0.75079 2.56057,0.77928 0.0975,0.003 0.3022,-0.0115 0.57516,-0.0413 0.35748,-0.039 0.45812,-0.0553 0.64699,-0.10541 0.82564,-0.21937 1.63573,-0.64331 2.36058,-1.23508 0.19509,-0.1592 0.40683,-0.35062 0.40514,-0.36637 -0.002,-0.0153 -0.26574,-0.16936 -0.46871,-0.27286 -0.81381,-0.41513 -1.70066,-0.66286 -2.53317,-0.70797 -0.29142,-0.0158 -0.9098,0.0375 -1.20406,0.10387 -0.32954,0.0743 -0.66148,0.19349 -0.98806,0.3452 0.74945,-0.90386 1.4589,-1.89507 2.1177,-2.97603 0.7923,0.37587 1.5852,0.67413 2.39004,0.70072 0.0975,0.003 0.30218,-0.0115 0.57515,-0.0413 0.35749,-0.039 0.45864,-0.0558 0.64751,-0.10591 0.82565,-0.2194 1.63572,-0.64281 2.36058,-1.23458 0.19508,-0.1592 0.40683,-0.35062 0.40514,-0.36636 -0.002,-0.0153 -0.26574,-0.16936 -0.4687,-0.27287 -0.81381,-0.41513 -1.70066,-0.66286 -2.53318,-0.70797 -0.29142,-0.0158 -0.90979,0.0375 -1.20406,0.10387 -0.46725,0.10541 -0.93947,0.30134 -1.3932,0.55346 0.57507,-1.08529 1.10006,-2.25208 1.56011,-3.51142 0.92504,0.10962 1.82468,0.14521 2.63809,-0.10747 0.0931,-0.0292 0.28209,-0.10975 0.5302,-0.22738 0.32493,-0.15407 0.41473,-0.20278 0.5767,-0.31213 0.70802,-0.47803 1.33402,-1.14419 1.8247,-1.94096 0.13207,-0.21439 0.26927,-0.46474 0.26252,-0.47905 -0.007,-0.0138 -0.30608,-0.0727 -0.53175,-0.10385 -0.90496,-0.12528 -1.82442,-0.0687 -2.62568,0.16174 -0.28048,0.0807 -0.84656,0.33427 -1.10278,0.4935 -0.36156,0.22471 -0.70484,0.5172 -1.01957,0.85111 0.29613,-0.98131 0.55716,-2.01015 0.77462,-3.09385 l -0.008,-0.002 c 0.57097,-0.62815 1.04776,-1.35925 1.29088,-2.09704 0.0944,-0.28652 0.20671,-0.89646 0.21911,-1.18803 0.0353,-0.83299 -0.12613,-1.7395 -0.46096,-2.5895 -0.0835,-0.21199 -0.21062,-0.49001 -0.22582,-0.493 z m -21.85241,28.5905 -1.82211,1.21748 c 0.0901,0.31658 0.20643,0.61905 0.36121,0.90072 0.047,0.0855 0.16434,0.25379 0.32918,0.47337 0.2159,0.28757 0.28164,0.36597 0.42116,0.50281 0.60989,0.5982 1.38726,1.07889 2.26602,1.40044 0.23647,0.0865 0.50977,0.17071 0.52244,0.16121 0.0121,-0.01 0.009,-0.31469 -0.005,-0.54208 -0.0581,-0.91172 -0.29724,-1.80086 -0.68316,-2.53989 -0.13512,-0.25868 -0.49609,-0.76314 -0.70332,-0.98237 -0.20146,-0.21312 -0.43442,-0.41 -0.68626,-0.59169 z"
         id="path1422"
         inkscape:connector-curvature="0" />
      <path
         style="fill:#3d3846;fill-opacity:1;stroke-width:1"
         d="m 224.62527,265.49033 c -0.22834,0.0153 -0.36897,0.10959 -0.36897,0.29506 0,0.23598 0.32414,0.48011 0.76636,0.57724 0.80543,0.1769 1.50153,0.80238 1.99471,1.7916 0.40219,0.80672 1.20767,0.94345 1.20768,0.20516 0,-1.29334 4.11357,-2.09338 6.22597,-1.21076 0.50465,0.21085 0.91777,0.56674 0.91778,0.79063 0,0.52813 -10.23789,7.38066 -10.7394,7.1882 -0.44584,-0.17108 -0.49275,-1.70413 -0.0956,-3.13418 0.15116,-0.5443 0.75203,-1.54048 1.3348,-2.21382 0.58278,-0.67334 1.00273,-1.28032 0.93379,-1.34927 -0.29416,-0.29416 -1.22927,0.27744 -1.90686,1.16584 -0.96949,1.27105 -1.40749,2.56651 -1.42162,4.20592 -0.0125,1.45629 0.50694,2.23888 1.46451,2.2066 0.27959,-0.009 2.67697,-1.47503 5.32733,-3.25718 5.74858,-3.86543 5.94584,-4.03159 5.84305,-4.9139 -0.19603,-1.68264 -4.41427,-2.46255 -7.09104,-1.31103 l -1.28984,0.55501 -0.89814,-0.68524 c -0.77681,-0.59251 -1.70217,-0.93962 -2.20451,-0.90588 z m 27.56989,2.70422 c -1.92423,-0.008 -3.75597,2.15239 -3.7636,4.93096 -0.003,1.24871 -1.03639,3.38323 -2.14767,4.43746 -1.03585,0.98269 -2.2564,1.53189 -3.94394,1.77456 -2.86042,0.41135 -4.90735,3.03864 -4.21732,5.28135 -0.18848,-0.0466 -0.41094,-0.12607 -0.67696,-0.2372 -0.51581,-0.21553 -1.93831,-0.51652 -3.16105,-0.66921 -3.41986,-0.42706 -4.25119,-0.97168 -6.48229,-4.24418 -1.34509,-1.97297 -2.07192,-2.8771 -2.35128,-2.89234 -0.0931,-0.005 -0.13643,0.0886 -0.13642,0.2744 0,0.44084 3.02182,5.02504 3.7853,5.7423 0.93618,0.8795 2.90237,1.62401 4.99349,1.89082 1.06528,0.13594 2.45762,0.43172 3.09439,0.65733 0.5781,0.20484 1.01694,0.32647 1.35702,0.36793 0.50088,0.79851 1.24587,1.40086 2.07584,1.64229 4.31879,1.25625 11.57267,-2.63247 13.84619,-7.4228 2.10539,-4.43614 1.66396,-9.64163 -0.9462,-11.16211 -0.43263,-0.25202 -0.88145,-0.36965 -1.3255,-0.37156 z m 0.0439,0.786 c 1.06979,-0.0185 1.94663,0.82508 2.41536,2.40348 1.08566,3.65582 -0.19822,8.14607 -3.18689,11.14607 -1.52475,1.53054 -4.35485,3.11388 -6.61923,3.70367 -1.88078,0.48987 -3.16211,0.50024 -4.21938,0.0336 -3.16926,-1.39893 -2.01174,-5.52291 1.71979,-6.12727 2.74701,-0.4449 5.19301,-2.15871 6.15001,-4.30877 0.28144,-0.63232 0.62077,-1.91886 0.75396,-2.85927 0.30189,-2.13175 0.81029,-3.13791 1.86035,-3.68091 0.39149,-0.20243 0.76943,-0.3044 1.12603,-0.31057 z m -15.75614,0.31782 c -0.0427,0.008 -0.0802,0.0316 -0.11576,0.0672 -0.1466,0.14658 0.21737,0.8669 0.99891,2.05102 -0.41952,0.46511 -0.80291,1.06193 -1.13016,1.79216 -0.93271,2.08116 -0.898,5.32553 0.0791,7.41039 0.39214,0.83675 0.81844,1.52136 0.94775,1.52136 0.52573,0 0.53931,-0.38121 0.0475,-1.34514 -0.68531,-1.34337 -0.65611,-1.92755 0.0419,-0.83767 0.30288,0.47294 0.7174,0.85989 0.92139,0.85989 0.48285,0 0.48383,0.003 -0.29921,-1.55599 -2.24791,-4.47548 0.1887,-10.34346 3.09025,-7.44191 0.78309,0.78309 0.78987,0.81423 0.61185,2.85512 -0.17273,1.98014 -0.15116,2.09783 0.53433,2.91248 1.13995,1.35475 1.73513,0.95351 0.64079,-0.43201 -0.48792,-0.61772 -0.53417,-0.91969 -0.38137,-2.48306 0.20449,-2.09217 -0.21747,-3.27409 -1.42317,-3.98632 -1.06721,-0.63042 -2.1601,-0.53006 -3.1166,0.20463 -0.84366,-1.19256 -1.23483,-1.63063 -1.44746,-1.59213 z m 17.56895,3.35896 c -0.17059,-0.006 -0.32608,0.39111 -0.32608,1.19476 0,0.70432 -0.10807,1.65769 -0.24029,2.11873 -0.1322,0.46103 -0.17207,0.90694 -0.0884,0.99065 0.55968,0.55967 1.20331,-1.29453 1.07074,-3.08456 -0.0597,-0.80569 -0.2454,-1.21381 -0.416,-1.21958 z m -26.79681,3.1042 c -0.53237,0 -0.43428,0.33526 0.47284,1.61385 1.63018,2.29775 3.67212,4.07721 3.67213,3.20033 0,-0.11698 -0.42174,-0.62103 -0.9369,-1.12036 -0.51515,-0.49929 -1.36833,-1.53498 -1.89601,-2.30113 -0.52768,-0.76618 -1.11797,-1.39269 -1.31206,-1.39269 z m 13.38161,9.16326 c -0.86786,0.0359 -0.96521,0.28874 -0.0739,0.64699 0.78765,0.31663 2.34911,0.32687 2.83652,0.0186 0.56894,-0.35981 0.33642,-0.44799 -1.64589,-0.62476 -0.45239,-0.0404 -0.82744,-0.0528 -1.11673,-0.0408 z"
         id="path1424"
         inkscape:connector-curvature="0" />
    </g>
  </g>
</svg>
