<?xml version="1.0" encoding="UTF-8" standalone="no"?>
<!-- Created with Inkscape (http://www.inkscape.org/) -->

<svg
   width="96.005997mm"
   height="96.005997mm"
   viewBox="0 0 96.005998 96.005997"
   version="1.1"
   id="svg8"
   inkscape:version="0.92.4 (5da689c313, 2019-01-14)"
   sodipodi:docname="Logo Manicería.svg.2021_03_07_17_18_25.0.svg"
   xml:space="preserve"
   xmlns:inkscape="http://www.inkscape.org/namespaces/inkscape"
   xmlns:sodipodi="http://sodipodi.sourceforge.net/DTD/sodipodi-0.dtd"
   xmlns="http://www.w3.org/2000/svg"
   xmlns:svg="http://www.w3.org/2000/svg"
   xmlns:rdf="http://www.w3.org/1999/02/22-rdf-syntax-ns#"
   xmlns:cc="http://creativecommons.org/ns#"
   xmlns:dc="http://purl.org/dc/elements/1.1/"><defs
     id="defs2" /><sodipodi:namedview
     id="base"
     pagecolor="#ffffff"
     bordercolor="#666666"
     borderopacity="1.0"
     inkscape:pageopacity="0.0"
     inkscape:pageshadow="2"
     inkscape:zoom="0.69999999"
     inkscape:cx="626.32378"
     inkscape:cy="200.45"
     inkscape:document-units="mm"
     inkscape:current-layer="layer1"
     showgrid="false"
     inkscape:window-width="1680"
     inkscape:window-height="987"
     inkscape:window-x="-8"
     inkscape:window-y="-8"
     inkscape:window-maximized="1"
     units="mm"
     inkscape:showpageshadow="2"
     inkscape:pagecheckerboard="0"
     inkscape:deskcolor="#d1d1d1" /><metadata
     id="metadata5"><rdf:RDF><cc:Work
         rdf:about=""><dc:format>image/svg+xml</dc:format><dc:type
           rdf:resource="http://purl.org/dc/dcmitype/StillImage" /><dc:title /></cc:Work></rdf:RDF></metadata><g
     inkscape:label="Layer 1"
     inkscape:groupmode="layer"
     id="layer1"
     transform="translate(2.9370118e-7,-200.994)"><g
       id="g2076"
       inkscape:export-xdpi="900.05627"
       inkscape:export-ydpi="900.05627"
       transform="translate(54.952007,932.3416)"><rect
         y="-731.3476"
         x="-54.952007"
         height="96.005997"
         width="96.005997"
         id="rect2000"
         style="opacity:1;fill:#333333;fill-opacity:1;stroke:none;stroke-width:0.5;stroke-linecap:round;stroke-linejoin:round;stroke-miterlimit:4;stroke-dasharray:none;stroke-dashoffset:0;stroke-opacity:1;paint-order:stroke fill markers" /><g
         inkscape:export-ydpi="300"
         inkscape:export-xdpi="300"
         id="g1998"><circle
           style="opacity:1;fill:#333333;fill-opacity:1;stroke:none;stroke-width:0.6;stroke-linecap:round;stroke-linejoin:miter;stroke-miterlimit:0;stroke-dasharray:0.6, 2.4;stroke-dashoffset:0;stroke-opacity:1;paint-order:stroke fill markers"
           id="path4312-0"
           cx="-6.9490075"
           cy="-683.3446"
           r="48.002979" /><g
           id="g1577"
           transform="translate(1.3879829)"
           style="fill:#b3cf25;fill-opacity:1"><path
             d="m -38.383413,-700.68091 q 0.536938,-0.14699 1.09657,-0.24828 0.559696,-0.12411 1.130241,-0.0313 0.502113,0.0698 0.946645,0.33353 0.43314,0.25227 0.751774,0.64124 0.318627,0.38896 0.500028,0.86891 0.170016,0.46849 0.134428,0.9821 -0.0242,0.52507 -0.265212,1.01531 -0.240946,0.46743 -0.618591,0.82033 -0.37761,0.35293 -0.880475,0.55707 -0.502823,0.20417 -1.027884,0.17998 -0.285358,-0.0122 -0.547604,-0.13843 -0.262235,-0.12625 -0.421511,-0.33215 -0.182117,-0.20595 -0.215741,-0.44578 -0.03356,-0.26265 0.149862,-0.55898 0.183349,-0.27352 0.514594,-0.35259 0.342704,-0.0904 0.627653,0.0815 0.284955,0.17199 0.398216,0.51475 0.37704,-0.12459 0.651733,-0.39785 0.27469,-0.27327 0.401195,-0.62682 0.126547,-0.3764 0.03623,-0.76477 -0.09043,-0.34271 -0.295199,-0.61722 -0.204763,-0.27452 -0.512543,-0.44655 -0.330553,-0.19493 -0.707293,-0.18449 -0.376685,-0.0124 -0.742231,0.078 -0.434032,0.0902 -0.879573,0.21461 -0.445547,0.1244 -0.902406,0.21454 -0.456805,0.0673 -0.913436,0.0661 -0.445179,-0.0126 -0.889947,-0.18497 -0.478987,-0.18391 -0.786285,-0.53859 -0.330129,-0.35476 -0.500273,-0.77759 -0.170069,-0.44565 -0.203037,-0.93662 -0.04435,-0.50241 0.03678,-0.97024 0.06963,-0.43362 0.298952,-0.82116 0.240808,-0.39889 0.58385,-0.64922 0.343233,-0.27304 0.765834,-0.37473 0.422656,-0.10163 0.890308,0.048 0.26236,0.0806 0.353088,0.30915 0.07934,0.21711 0.0217,0.43385 -0.04623,0.20534 -0.229223,0.34186 -0.1715,0.12519 -0.433928,0.0445 -0.239518,-0.0805 -0.433796,-0.001 -0.205614,0.068 -0.343051,0.22744 -0.148791,0.14801 -0.240759,0.37604 -0.08045,0.21672 -0.103835,0.42212 -0.03493,0.26247 -0.02426,0.5479 0.02211,0.27403 0.112781,0.52541 0.09068,0.2514 0.272791,0.45736 0.170719,0.19451 0.455912,0.27516 0.490487,0.14968 0.993018,0.0597 0.51397,-0.10141 0.993783,-0.23715 z"
             style="font-style:normal;font-variant:normal;font-weight:bold;font-stretch:normal;font-size:12.4195px;line-height:1.25;font-family:'Life of Apple';-inkscape-font-specification:'Life of Apple Bold';letter-spacing:2.20663px;word-spacing:0px;fill:#ffffff;fill-opacity:1;stroke:#ffffff;stroke-width:1;stroke-miterlimit:4;stroke-dasharray:none;stroke-opacity:1"
             id="path1516"
             inkscape:connector-curvature="0" /><path
             d="m -28.761355,-707.33254 q 0.442786,0.63596 0.916109,1.231 0.464081,0.58178 1.003641,1.1307 0.164868,0.18028 0.2053,0.40788 0.03119,0.21433 -0.134663,0.42818 -0.144527,0.15973 -0.407891,0.20528 -0.250033,0.0364 -0.414929,-0.14388 -0.558012,-0.57541 -1.063018,-1.18773 -0.491774,-0.62154 -0.96625,-1.27476 -1.030603,0.63884 -1.93207,1.46315 0.389793,0.67287 0.806085,1.32729 0.429538,0.64519 0.859078,1.29037 0.166042,0.23848 0.09008,0.46843 -0.07191,0.20751 -0.2574,0.33666 -0.17224,0.11992 -0.391811,0.11535 -0.228771,-0.0178 -0.394813,-0.25626 -0.724727,-1.06916 -1.38724,-2.16197 -0.658482,-1.11529 -1.228259,-2.27268 -0.256614,-0.50985 -0.481536,-1.00241 -0.220903,-0.51506 -0.428552,-1.03932 -0.161524,-0.45804 -0.323046,-0.91605 -0.157506,-0.4805 -0.185361,-0.97258 -0.02785,-0.49207 0.1333,-0.93871 0.151938,-0.45988 0.544213,-0.77234 0.405576,-0.32162 0.880331,-0.31785 0.474801,0.004 0.905329,0.25489 0.458212,0.29081 0.851346,0.68593 0.393149,0.39513 0.72926,0.84962 0.326891,0.44125 0.623259,0.92343 0.309613,0.47295 0.60079,0.9194 l 0.452008,0.6492 q 0.171751,0.0771 0.29167,0.24938 0.110702,0.159 0.104999,0.32034 z m -3.361147,1.21889 q 0.42681,-0.37588 0.881333,-0.71196 0.458573,-0.35852 0.953943,-0.66418 l -0.08302,-0.11924 q -0.52179,-0.77769 -1.048779,-1.59109 -0.536211,-0.82666 -1.24751,-1.45271 -0.109524,-0.10079 -0.232295,-0.19235 -0.131997,-0.10483 -0.266847,-0.12897 -0.130789,-0.0466 -0.255256,6.8e-4 -0.111147,0.0381 -0.214823,0.22829 -0.172739,0.31698 -0.07981,0.70474 0.106174,0.37853 0.211175,0.69886 0.267706,0.83656 0.620101,1.65349 0.356417,0.79445 0.761816,1.57449 z"
             style="font-style:normal;font-variant:normal;font-weight:bold;font-stretch:normal;font-size:12.4195px;line-height:1.25;font-family:'Life of Apple';-inkscape-font-specification:'Life of Apple Bold';letter-spacing:2.20663px;word-spacing:0px;fill:#ffffff;fill-opacity:1;stroke:#ffffff;stroke-width:1;stroke-miterlimit:4;stroke-dasharray:none;stroke-opacity:1"
             id="path1518"
             inkscape:connector-curvature="0" /><path
             d="m -18.64534,-710.08033 q 0.242461,-0.1296 0.434119,-0.0225 0.199568,0.0857 0.294264,0.29096 0.08792,0.19056 0.03715,0.42733 -0.03611,0.23003 -0.278544,0.35968 -1.087031,0.57269 -2.159454,1.13852 -1.072372,0.56593 -2.144741,1.13188 -0.154504,0.089 -0.305587,0.0699 -0.151088,-0.0192 -0.263836,-0.1094 -0.119513,-0.10488 -0.180383,-0.2368 -0.08229,-0.13984 -0.06987,-0.30558 0.01018,-0.32474 0.02713,-0.63483 0.01018,-0.32474 0.02037,-0.64947 0.09946,-2.01946 0.191027,-4.0175 0.106227,-2.0048 0.19892,-4.03892 -0.659662,0.30436 -1.333983,0.61549 -0.666407,0.28975 -1.332813,0.5795 -0.249207,0.11498 -0.455539,0.0146 -0.206335,-0.10038 -0.29426,-0.29094 -0.09469,-0.20523 -0.03716,-0.42736 0.05077,-0.23678 0.299974,-0.35176 l 3.538516,-1.57925 q 0.307842,-0.14204 0.57618,0.0542 0.268335,0.19622 0.243491,0.52773 -0.01019,0.32473 -0.02037,0.64947 -0.01695,0.31008 -0.02713,0.63483 -0.10623,2.00478 -0.204559,3.98816 -0.09833,1.98338 -0.183131,3.99608 0.852486,-0.46448 1.711775,-0.91421 0.85923,-0.44986 1.718501,-0.89963 z"
             style="font-style:normal;font-variant:normal;font-weight:bold;font-stretch:normal;font-size:12.4195px;line-height:1.25;font-family:'Life of Apple';-inkscape-font-specification:'Life of Apple Bold';letter-spacing:2.20663px;word-spacing:0px;fill:#ffffff;fill-opacity:1;stroke:#ffffff;stroke-width:1;stroke-miterlimit:4;stroke-dasharray:none;stroke-opacity:1"
             id="path1520"
             inkscape:connector-curvature="0" /><path
             d="m -11.932723,-720.89247 q 0.613484,0.12921 1.097812,0.51662 0.500474,0.38747 0.807216,0.92022 0.4358957,0.7265 0.5650498,1.58214 0.1291593,0.85565 0.06458,1.679 -0.048435,0.69421 -0.2421646,1.45299 -0.1775875,0.74264 -0.5166182,1.43685 -0.33903,0.69421 -0.839503,1.25925 -0.48433,0.56506 -1.16239,0.8718 -0.613483,0.30674 -1.356121,0.30674 -0.726492,0 -1.307687,-0.41975 -0.306742,-0.20987 -0.548906,-0.50048 -0.22602,-0.30674 -0.419752,-0.64577 -0.177587,-0.33903 -0.322886,-0.69421 -0.129159,-0.37132 -0.226019,-0.71035 -0.226021,-0.69419 -0.322887,-1.43683 -0.08072,-0.74264 -0.04844,-1.48528 0.04844,-0.74264 0.22602,-1.46914 0.193731,-0.72648 0.532761,-1.37226 0.306742,-0.59734 0.807215,-1.06551 0.500474,-0.46819 1.178534,-0.62964 0.516617,-0.12908 1.065523,-0.0322 0.548906,0.0968 0.968658,0.43589 z m -0.145299,8.26588 q 0.403608,-0.37132 0.694206,-0.85565 0.290596,-0.48433 0.468184,-1.01709 0.193732,-0.54891 0.274454,-1.11395 0.09687,-0.58121 0.09687,-1.11396 0,-0.38747 -0.06458,-0.82337 -0.06458,-0.45203 -0.226021,-0.85564 -0.145298,-0.41975 -0.403607,-0.75878 -0.258309,-0.33903 -0.629627,-0.50047 -0.161443,0.0485 -0.322887,0.0322 -0.161442,-0.0322 -0.258308,-0.16145 -0.145299,0 -0.22602,0.0161 -0.193732,0.0161 -0.355175,-0.11296 -0.145299,-0.12908 -0.209876,-0.30674 -0.419751,-0.0485 -0.823359,0.17759 -0.500473,0.2906 -0.79107,0.80721 -0.274453,0.51662 -0.419752,1.04938 -0.322885,1.11396 -0.274453,2.26021 0.06458,1.13009 0.468184,2.19561 0.08072,0.22602 0.193733,0.48434 0.113014,0.24216 0.258308,0.48432 0.145299,0.22603 0.33903,0.40361 0.193731,0.17759 0.452041,0.24216 0.484329,0.1453 0.936368,-0.0161 0.468185,-0.17758 0.823358,-0.51661 z"
             style="font-style:normal;font-variant:normal;font-weight:bold;font-stretch:normal;font-size:12.4195px;line-height:1.25;font-family:'Life of Apple';-inkscape-font-specification:'Life of Apple Bold';letter-spacing:2.20663px;word-spacing:0px;fill:#ffffff;fill-opacity:1;stroke:#ffffff;stroke-width:1;stroke-miterlimit:4;stroke-dasharray:none;stroke-opacity:1"
             id="path1522"
             inkscape:connector-curvature="0" /><path
             d="m -1.47497,-720.63415 q 0,-0.29061 0.1775873,-0.41976 0.1937316,-0.1453 0.4036074,-0.1453 0.22602007,0 0.40360736,0.1453 0.17758716,0.12908 0.17758716,0.41976 -0.0161449,2.24405 -0.0645771,4.45581 -0.0322885,2.21177 -0.064577,4.45583 0.064577,0.19374 -0.0161449,0.40361 -0.0161449,0.27445 -0.20987582,0.40361 -0.17758728,0.12908 -0.4036074,0.12908 -0.2098758,0 -0.3874631,-0.14529 -0.1614429,-0.14531 -0.1614429,-0.41976 v -0.14529 q -0.5004732,-1.06552 -0.9686577,-2.11491 -0.4681846,-1.06552 -0.9363691,-2.13105 -0.2744522,-0.61348 -0.5327617,-1.19467 -0.2421646,-0.59735 -0.5004729,-1.21083 -0.03229,1.7113 -0.06458,3.40645 -0.016145,1.67901 -0.048435,3.3903 0,0.2906 -0.1937312,0.41976 -0.1775875,0.14529 -0.4036072,0.14529 -0.2098761,0 -0.4036073,-0.14529 -0.1775875,-0.12921 -0.1775875,-0.41976 0.048435,-2.34092 0.080725,-4.63341 0.048435,-2.30863 0.080724,-4.64955 0,-0.16145 0.048435,-0.25832 -0.03229,-0.20987 0.096869,-0.38746 0.1452991,-0.17758 0.3390302,-0.22602 0.2421646,-0.0646 0.4358958,0.0646 0.1937324,0.11296 0.2744531,0.33903 0.4681843,1.2431 0.9686575,2.45393 0.5166175,1.19467 1.0332349,2.4055 0.2260201,0.51662 0.4520403,1.04937 0.2421643,0.51663 0.4843288,1.04938 0.032289,-1.63057 0.048434,-3.245 0.032288,-1.61442 0.032288,-3.24499 z"
             style="font-style:normal;font-variant:normal;font-weight:bold;font-stretch:normal;font-size:12.4195px;line-height:1.25;font-family:'Life of Apple';-inkscape-font-specification:'Life of Apple Bold';letter-spacing:2.20663px;word-spacing:0px;fill:#ffffff;fill-opacity:1;stroke:#ffffff;stroke-width:1;stroke-miterlimit:4;stroke-dasharray:none;stroke-opacity:1"
             id="path1524"
             inkscape:connector-curvature="0" /><path
             d="m 7.7632009,-711.48978 q -0.2228194,0.74219 -0.3946132,1.48286 -0.1671471,0.7252 -0.2616257,1.48907 -0.038706,0.24122 -0.1918317,0.41439 -0.1484772,0.15769 -0.41909,0.16074 -0.2149582,-0.0139 -0.4143752,-0.19185 -0.1839947,-0.17318 -0.1452751,-0.41445 0.1037633,-0.7948 0.2693762,-1.57103 0.1810784,-0.7716 0.3977173,-1.54935 -1.1411129,-0.41003 -2.3472095,-0.6036 -0.2846721,0.72363 -0.5384198,1.45655 -0.2382854,0.73756 -0.4765661,1.47512 -0.083556,0.27831 -0.3108882,0.36178 -0.2072405,0.0727 -0.4237154,0.008 -0.2010127,-0.0604 -0.3339473,-0.23516 -0.1283053,-0.19024 -0.044749,-0.46856 0.3868307,-1.23235 0.8308695,-2.43068 0.4641428,-1.20914 1.0164221,-2.37499 0.2397867,-0.51797 0.4857475,-1.00037 0.2660736,-0.49325 0.5476032,-0.98183 0.2583225,-0.41128 0.5166397,-0.82254 0.2784291,-0.42211 0.6465235,-0.74986 0.3680914,-0.32774 0.8181123,-0.47921 0.454656,-0.1669 0.9432783,-0.0539 0.5040588,0.11771 0.796267,0.49191 0.2921853,0.37427 0.3632217,0.86755 0.057105,0.53969 -0.00795,1.09327 -0.06506,0.55359 -0.2120685,1.09941 -0.1423696,0.53037 -0.3357696,1.06227 -0.1779369,0.53655 -0.346591,1.04218 l -0.2274603,0.75765 q 0.046352,0.18248 -0.013993,0.38349 -0.055708,0.18556 -0.1856186,0.2814 z m -3.0443747,-1.87478 q 0.5597626,0.1006 1.1055797,0.24766 0.565909,0.13627 1.1133005,0.33423 l 0.041776,-0.13916 q 0.2847086,-0.89219 0.5941601,-1.81066 0.3140925,-0.93393 0.3622167,-1.88027 0.010854,-0.14845 0.00624,-0.30153 3.55e-5,-0.16856 -0.064885,-0.28919 -0.044833,-0.1314 -0.1592362,-0.1995 -0.098979,-0.0633 -0.3123626,-0.0263 -0.3556704,0.0618 -0.6016017,0.37564 -0.2304687,0.3185 -0.4160843,0.59989 -0.4887917,0.72978 -0.9095525,1.51369 -0.4006545,0.77309 -0.7595682,1.57558 z"
             style="font-style:normal;font-variant:normal;font-weight:bold;font-stretch:normal;font-size:12.4195px;line-height:1.25;font-family:'Life of Apple';-inkscape-font-specification:'Life of Apple Bold';letter-spacing:2.20663px;word-spacing:0px;fill:#ffffff;fill-opacity:1;stroke:#ffffff;stroke-width:1;stroke-miterlimit:4;stroke-dasharray:none;stroke-opacity:1"
             id="path1526"
             inkscape:connector-curvature="0" /><path
             d="m 15.334831,-712.74035 q 0.825559,0.0687 1.574896,0.44616 0.762101,0.38735 1.310539,0.99721 0.558336,0.59712 0.839361,1.36712 0.280984,0.77005 0.169818,1.62396 -0.08025,0.55086 -0.302142,1.07354 -0.211969,0.5099 -0.520264,0.98592 -0.298378,0.46326 -0.670426,0.88976 -0.372054,0.42651 -0.775307,0.7879 -0.786697,0.69729 -1.777424,1.23616 -0.980824,0.52611 -2.063958,0.60487 -0.491315,0.0273 -0.97422,-0.0615 -0.473018,-0.10155 -0.888109,-0.383 -0.287532,-0.1825 -0.541322,-0.46109 -0.240917,-0.26885 -0.183169,-0.63279 0.02956,-0.22233 0.14552,-0.398 0.125863,-0.18841 0.241832,-0.3641 0.125863,-0.18841 0.231927,-0.35134 0.128712,-0.16577 0.254582,-0.35419 1.045188,-1.47769 2.131481,-2.90302 1.096185,-1.43807 2.230621,-2.84645 -0.141632,-0.0282 -0.296022,-0.0663 -0.141631,-0.0282 -0.293131,-0.0437 -0.290291,-0.021 -0.406538,-0.21349 -0.116278,-0.19246 -0.07396,-0.4049 0.02956,-0.22234 0.193674,-0.38105 0.161272,-0.18136 0.44166,-0.14762 z m -1.693416,8.76186 q 0.577573,-0.16472 1.160698,-0.46821 0.593022,-0.31624 1.113741,-0.74995 0.543368,-0.43655 0.974818,-0.93956 0.441357,-0.51576 0.731197,-1.04699 0.147019,-0.29464 0.248729,-0.58357 0.124366,-0.29179 0.180773,-0.57502 0.01412,-0.0708 0.01548,-0.15157 0.01412,-0.0708 0.02824,-0.14167 -0.0058,-0.0452 -0.01715,-0.13586 0.01124,-0.0935 0.02399,-0.0836 -0.0085,-0.068 -0.01715,-0.13587 0.0014,-0.0807 -0.0072,-0.14863 -0.01563,-0.0325 -0.02702,-0.12315 -0.01139,-0.0906 0.0014,-0.0807 -0.133515,-0.51247 -0.462353,-0.93133 -0.306194,-0.42169 -0.734073,-0.713 l -0.01975,0.0254 q -1.394719,1.71726 -2.70304,3.48118 -0.343694,0.46896 -0.700136,0.92801 -0.333802,0.45621 -0.654841,0.92232 -0.168319,0.21678 -0.326734,0.4208 -0.13578,0.20118 -0.291343,0.42786 -0.06642,0.11185 -0.145667,0.21392 -0.06928,0.0892 -0.135768,0.20117 -0.01975,0.0254 -0.04949,0.0637 -0.01699,0.0482 -0.04661,0.0864 l 0.05101,0.0396 q 0.102013,0.0792 0.150142,0.0962 l 0.02551,0.0198 q 0.06088,0.0269 0.12176,0.0538 0.06088,0.0269 0.14451,0.0508 0.0255,0.0198 0.04813,0.017 l 0.02262,-0.003 q 0.0255,0.0198 0.09626,0.034 0.315788,0.0408 0.577722,0.0194 0.274681,-0.0115 0.621523,-0.0897 z"
             style="font-style:normal;font-variant:normal;font-weight:bold;font-stretch:normal;font-size:12.4195px;line-height:1.25;font-family:'Life of Apple';-inkscape-font-specification:'Life of Apple Bold';letter-spacing:2.20663px;word-spacing:0px;fill:#ffffff;fill-opacity:1;stroke:#ffffff;stroke-width:1;stroke-miterlimit:4;stroke-dasharray:none;stroke-opacity:1"
             id="path1528"
             inkscape:connector-curvature="0" /><path
             d="m 26.899106,-701.09185 q 0.323424,0.53708 0.369858,1.15555 0.05739,0.63033 -0.123557,1.21784 -0.234764,0.81406 -0.773053,1.49159 -0.538292,0.67754 -1.184947,1.19127 -0.541127,0.43755 -1.228527,0.81275 -0.664577,0.37602 -1.403699,0.60086 -0.739129,0.22485 -1.493712,0.24352 -0.743597,0.0305 -1.430116,-0.25681 -0.642519,-0.24004 -1.148519,-0.78362 -0.495001,-0.53176 -0.583763,-1.24316 -0.05539,-0.36752 -0.0077,-0.74278 0.07052,-0.37443 0.186674,-0.74724 0.127154,-0.36098 0.28813,-0.70934 0.183785,-0.34754 0.365942,-0.64943 0.354115,-0.63843 0.831692,-1.21533 0.488572,-0.56509 1.054151,-1.04746 0.576582,-0.47055 1.229341,-0.83557 0.663749,-0.35319 1.367429,-0.54504 0.646225,-0.18248 1.329904,-0.13515 0.683693,0.0473 1.263866,0.43362 0.446481,0.29019 0.74957,0.75798 0.303146,0.46773 0.340948,1.006 z m -6.149236,5.52565 q 0.546789,0.0424 1.099296,-0.0749 0.552507,-0.11729 1.063462,-0.35031 0.533776,-0.2322 1.002359,-0.5581 0.491422,-0.32511 0.88137,-0.6881 0.283609,-0.26401 0.558666,-0.60828 0.286862,-0.35526 0.472289,-0.74843 0.208237,-0.39235 0.280391,-0.81242 0.07215,-0.42007 -0.06268,-0.80186 -0.145499,-0.0851 -0.243569,-0.21439 -0.08643,-0.14011 -0.05783,-0.29908 -0.099,-0.10635 -0.165784,-0.15446 -0.143784,-0.13084 -0.159319,-0.33694 -0.0045,-0.1943 0.08152,-0.36262 -0.250501,-0.34028 -0.690988,-0.48166 -0.553705,-0.16832 -1.12984,-0.029 -0.565141,0.15112 -1.054096,0.40777 -1.035367,0.52266 -1.841367,1.33911 -0.783171,0.81727 -1.288084,1.83868 -0.11043,0.21309 -0.222515,0.47181 -0.100246,0.24772 -0.1785,0.51907 -0.06644,0.26035 -0.06442,0.52315 0.002,0.26281 0.13075,0.49587 0.22364,0.45352 0.649785,0.67441 0.448979,0.22169 0.939132,0.25066 z"
             style="font-style:normal;font-variant:normal;font-weight:bold;font-stretch:normal;font-size:12.4195px;line-height:1.25;font-family:'Life of Apple';-inkscape-font-specification:'Life of Apple Bold';letter-spacing:2.20663px;word-spacing:0px;fill:#ffffff;fill-opacity:1;stroke:#ffffff;stroke-width:1;stroke-miterlimit:4;stroke-dasharray:none;stroke-opacity:1"
             id="path1530"
             inkscape:connector-curvature="0" /></g><text
           xml:space="preserve"
           style="font-style:normal;font-variant:normal;font-weight:normal;font-stretch:normal;font-size:12.2069px;line-height:1.25;font-family:'Life of Apple';-inkscape-font-specification:'Life of Apple';letter-spacing:2.75431px;word-spacing:0px;fill:#b3cf25;fill-opacity:1;stroke:none;stroke-width:0.5;stroke-miterlimit:4;stroke-dasharray:none;stroke-opacity:1"
           x="-14.641413"
           y="-698.73395"
           id="text1563"><tspan
             sodipodi:role="line"
             id="tspan1561"
             x="-14.641413"
             y="-698.73395"
             style="font-style:normal;font-variant:normal;font-weight:normal;font-stretch:normal;font-family:'Life of Apple';-inkscape-font-specification:'Life of Apple';letter-spacing:2.75431px;fill:#b3cf25;fill-opacity:1;stroke:none;stroke-width:0.5;stroke-miterlimit:4;stroke-dasharray:none;stroke-opacity:1">con</tspan></text><g
           id="g1841"
           transform="translate(0,-6.879167)"><path
             d="m -15.380325,-681.91056 q 0.670637,0.27237 1.328608,0.6099 0.676069,0.31399 1.191965,0.86059 0.4634,0.46878 0.71413,1.09232 0.248015,0.60273 0.269777,1.25615 0.02177,0.65341 -0.17006,1.29238 -0.19454,0.61813 -0.637062,1.12045 -0.439806,0.52313 -1.076013,0.83902 -0.618109,0.29236 -1.286914,0.35848 -0.668806,0.0661 -1.349392,-0.12029 -0.680585,-0.18639 -1.203715,-0.62619 -0.285097,-0.23801 -0.456167,-0.57557 -0.17107,-0.33756 -0.172905,-0.67603 -0.02537,-0.35658 0.129377,-0.63082 0.17284,-0.29776 0.596379,-0.45888 0.405435,-0.13762 0.809993,0.0425 0.425371,0.17736 0.583776,0.58009 0.158403,0.40272 0.0046,0.84619 0.487817,0.16921 0.987383,0.10402 0.499566,-0.0652 0.909522,-0.3304 0.428056,-0.28873 0.641611,-0.76115 0.177355,-0.42538 0.182756,-0.87065 0.0054,-0.44527 -0.176529,-0.86609 -0.187369,-0.46245 -0.58469,-0.74932 -0.379224,-0.3104 -0.828125,-0.50585 -0.519497,-0.24976 -1.077908,-0.47326 -0.55841,-0.2235 -1.10144,-0.49135 -0.524929,-0.29138 -0.995563,-0.65336 -0.449818,-0.36469 -0.772944,-0.89411 -0.349374,-0.56833 -0.386518,-1.1774 -0.06068,-0.62718 0.09766,-1.19826 0.17644,-0.59461 0.530268,-1.12768 0.351111,-0.5539 0.8045,-0.97295 0.414472,-0.39281 0.95747,-0.61185 0.563813,-0.22177 1.115872,-0.20916 0.570165,-0.0109 1.086942,0.21804 0.516781,0.22894 0.881537,0.75292 0.207268,0.2905 0.120403,0.59822 -0.08958,0.28689 -0.320348,0.46519 -0.209953,0.17559 -0.506799,0.17199 -0.276033,-0.006 -0.483299,-0.29682 -0.183736,-0.27239 -0.447101,-0.34387 -0.266082,-0.0923 -0.533964,-0.0362 -0.270598,0.0353 -0.545714,0.19823 -0.2543,0.16021 -0.440722,0.35389 -0.243434,0.24347 -0.457904,0.54666 -0.193655,0.30049 -0.298616,0.63172 -0.10496,0.33125 -0.0796,0.68783 0.02265,0.33576 0.253447,0.64436 0.388287,0.54207 0.97838,0.84613 0.610908,0.30133 1.213664,0.54021 z"
             style="font-style:normal;font-variant:normal;font-weight:bold;font-stretch:normal;font-size:20.9918px;line-height:1.25;font-family:'Life of Apple';-inkscape-font-specification:'Life of Apple Bold';letter-spacing:0px;word-spacing:0px;fill:#ffffff;fill-opacity:1;stroke:#ffffff;stroke-width:0.5;stroke-miterlimit:4;stroke-dasharray:none;stroke-opacity:1"
             id="path1583"
             inkscape:connector-curvature="0" /><path
             d="m -3.824013,-679.54364 q 0,1.0076 0.062975,1.99422 0.062975,0.96562 0.2309093,1.95223 0.041984,0.31488 -0.083967,0.58777 -0.1259506,0.2519 -0.4618187,0.35686 -0.2728929,0.063 -0.5877693,-0.084 -0.2938847,-0.14694 -0.3358682,-0.46182 -0.1679341,-1.02859 -0.2519011,-2.05719 -0.062975,-1.02859 -0.083967,-2.07818 -1.574382,-0.084 -3.148764,0.12595 -0.083967,1.0076 -0.1259506,2.01521 -0.020992,1.0076 -0.041984,2.01521 0,0.37785 -0.2519011,0.56677 -0.2309094,0.16794 -0.524794,0.16794 -0.2728929,0 -0.5038022,-0.16794 -0.2309101,-0.18892 -0.2309101,-0.56677 0.02099,-1.67934 0.125951,-3.33769 0.1259508,-1.67934 0.3778519,-3.33769 0.1049588,-0.73472 0.2309094,-1.42744 0.1469423,-0.71372 0.3148764,-1.42744 0.1679341,-0.60876 0.3358682,-1.21753 0.1889258,-0.62975 0.524794,-1.17553 0.3358681,-0.54579 0.8396704,-0.90265 0.5038022,-0.37785 1.1545468,-0.41983 0.6717363,-0.042 1.1755386,0.31487 0.5038022,0.35686 0.7766951,0.94463 0.2728929,0.65075 0.3988434,1.36447 0.1259506,0.71372 0.1469424,1.44843 0.020992,0.71372 -0.020992,1.44843 -0.020992,0.73471 -0.041983,1.42744 v 1.02859 q 0.1259505,0.20992 0.1259505,0.48281 0,0.25191 -0.1259505,0.41984 z m -4.4922367,-1.19653 q 0.7347116,-0.084 1.4694232,-0.10496 0.7557034,-0.042 1.5114067,0 v -0.18893 q 0.020992,-1.21752 0.062975,-2.47702 0.041983,-1.2805 -0.2519011,-2.47703 -0.041983,-0.18893 -0.1049588,-0.37785 -0.062975,-0.20992 -0.1889258,-0.33587 -0.1049588,-0.14694 -0.2728929,-0.18893 -0.1469423,-0.042 -0.3988435,0.084 -0.4198352,0.20992 -0.608761,0.69273 -0.1679341,0.48281 -0.2938847,0.90264 -0.3358681,1.09158 -0.5667775,2.22513 -0.2099176,1.11256 -0.3568599,2.24612 z"
             style="font-style:normal;font-variant:normal;font-weight:bold;font-stretch:normal;font-size:20.9918px;line-height:1.25;font-family:'Life of Apple';-inkscape-font-specification:'Life of Apple Bold';letter-spacing:0px;word-spacing:0px;fill:#ffffff;fill-opacity:1;stroke:#ffffff;stroke-width:0.5;stroke-miterlimit:4;stroke-dasharray:none;stroke-opacity:1"
             id="path1585"
             inkscape:connector-curvature="0" /><path
             d="m 4.2380881,-675.91066 q 0.2874628,0.0741 0.4961381,0.28736 0.2109871,0.19237 0.1716447,0.54706 -0.032399,0.29209 -0.2896719,0.517 -0.2572728,0.2249 -0.5447378,0.15078 -0.6166534,-0.15292 -1.2564924,-0.28721 -0.6166534,-0.15292 -1.2680616,-0.18292 -0.54708922,-0.0184 -1.1892017,0.0582 -0.64211366,0.0766 -1.26336333,0.15555 -0.36394517,0.0442 -0.59116477,-0.1923 -0.2086741,-0.21322 -0.2388653,-0.51226 -0.037098,-0.0464 -0.030157,-0.10895 0.00926,-0.0835 0.016199,-0.14605 0.4051012,-3.0809 0.78471107,-6.12238 0.400472,-3.03917 0.76384607,-6.1247 0.039342,-0.35468 0.28735894,-0.49614 0.25032943,-0.16231 0.52155887,-0.13223 0.29209324,0.0324 0.50076735,0.24563 0.2318509,0.19468 0.1925085,0.54937 -0.34023098,2.87689 -0.71987589,5.72828 -0.35646621,2.83285 -0.71756157,5.70743 0.42884644,-0.058 0.87392957,-0.072 0.44740049,-0.0349 0.89016519,-0.028 0.674587,0.0114 1.3144194,0.1458 0.6606961,0.13667 1.2959059,0.3127 z"
             style="font-style:normal;font-variant:normal;font-weight:bold;font-stretch:normal;font-size:20.9918px;line-height:1.25;font-family:'Life of Apple';-inkscape-font-specification:'Life of Apple Bold';letter-spacing:0px;word-spacing:0px;fill:#ffffff;fill-opacity:1;stroke:#ffffff;stroke-width:0.5;stroke-miterlimit:4;stroke-dasharray:none;stroke-opacity:1"
             id="path1587"
             inkscape:connector-curvature="0" /></g><g
           id="g1888"
           transform="translate(0,2.1166667)"><g
             style="fill:#b3cf25;fill-opacity:1;stroke-width:1.32401"
             transform="matrix(0.75528329,0,0,0.75528329,-7.2766094,-161.18764)"
             id="g2971"><path
               inkscape:connector-curvature="0"
               id="path2883"
               d="m -40.361328,-677.83594 -1.298828,0.25977 c 2.874713,14.32565 11.254457,21.73063 18.878906,25.4707 7.624449,3.74007 14.546875,3.88281 14.546875,3.88281 l 0.027344,-1.32422 c 0,0 -6.637377,-0.14119 -13.990235,-3.74804 -7.352857,-3.60685 -15.369133,-10.61295 -18.164062,-24.54102 z"
               style="color:#000000;font-style:normal;font-variant:normal;font-weight:normal;font-stretch:normal;font-size:medium;line-height:normal;font-family:sans-serif;font-variant-ligatures:normal;font-variant-position:normal;font-variant-caps:normal;font-variant-numeric:normal;font-variant-alternates:normal;font-feature-settings:normal;text-indent:0;text-align:start;text-decoration:none;text-decoration-line:none;text-decoration-style:solid;text-decoration-color:#000000;letter-spacing:normal;word-spacing:normal;text-transform:none;writing-mode:lr-tb;direction:ltr;text-orientation:mixed;dominant-baseline:auto;baseline-shift:baseline;text-anchor:start;white-space:normal;shape-padding:0;clip-rule:nonzero;display:inline;overflow:visible;visibility:visible;opacity:1;isolation:auto;mix-blend-mode:normal;color-interpolation:sRGB;color-interpolation-filters:linearRGB;solid-color:#000000;solid-opacity:1;vector-effect:none;fill:#b3cf25;fill-opacity:1;fill-rule:nonzero;stroke:none;stroke-width:1.32401;stroke-linecap:butt;stroke-linejoin:miter;stroke-miterlimit:4;stroke-dasharray:none;stroke-dashoffset:0;stroke-opacity:1;color-rendering:auto;image-rendering:auto;shape-rendering:auto;text-rendering:auto;enable-background:accumulate" /><path
               style="fill:#b3cf25;fill-opacity:1;stroke-width:1.32401"
               d="m -11.759163,-648.71605 0.734024,-0.1333 c 0.495998,-1.17053 0.888977,-2.33547 0.862834,-3.49522 -0.0029,-0.12913 -0.03767,-0.39868 -0.09706,-0.75734 -0.07784,-0.46971 -0.106896,-0.60207 -0.187119,-0.84806 -0.350682,-1.07535 -0.970343,-2.11469 -1.805904,-3.02943 -0.224855,-0.24617 -0.493684,-0.51216 -0.514365,-0.50877 -0.02007,0.004 -0.203927,0.36365 -0.325854,0.63956 -0.48897,1.10634 -0.751578,2.29685 -0.750006,3.40073 5.86e-4,0.3864 0.116584,1.19977 0.225985,1.5839 0.315404,1.10759 1.017503,2.22029 1.857462,3.14793 z"
               id="path2925"
               inkscape:connector-curvature="0"
               sodipodi:nodetypes="ccccccccccc" /><path
               sodipodi:nodetypes="ccccccccccc"
               inkscape:connector-curvature="0"
               id="path2927"
               d="m -16.114055,-649.66212 0.73385,-0.13425 c 0.494492,-1.17116 0.885967,-2.33661 0.858334,-3.49632 -0.0031,-0.12913 -0.03819,-0.39864 -0.09804,-0.75722 -0.07845,-0.46961 -0.107674,-0.60193 -0.188213,-0.84782 -0.352068,-1.0749 -0.973069,-2.11343 -1.809803,-3.02709 -0.225173,-0.24589 -0.494344,-0.51153 -0.515022,-0.50812 -0.02023,0.004 -0.203457,0.36392 -0.325031,0.63998 -0.487544,1.10697 -0.748618,2.29782 -0.745623,3.4017 0.0011,0.38639 0.118128,1.19961 0.228024,1.5836 0.316832,1.10719 1.020359,2.21899 1.861517,3.14554 z"
               style="fill:#b3cf25;fill-opacity:1;stroke-width:1.32401" /><path
               style="fill:#b3cf25;fill-opacity:1;stroke-width:1.32401"
               d="m -21.248198,-652.45748 0.744595,-0.0462 c 0.629929,-1.10424 1.156897,-2.21501 1.267028,-3.36982 0.01227,-0.12858 0.0094,-0.40034 -0.0075,-0.7635 -0.02218,-0.47559 -0.0355,-0.61045 -0.08631,-0.86415 -0.222071,-1.10908 -0.715487,-2.21396 -1.437932,-3.22043 -0.194417,-0.27085 -0.430173,-0.56655 -0.451106,-0.56561 -0.02038,0.002 -0.245193,0.33721 -0.398655,0.5969 -0.61542,1.04132 -1.015914,2.19279 -1.143891,3.28923 -0.04476,0.38379 -0.02501,1.20516 0.03856,1.59948 0.183249,1.13694 0.749924,2.32434 1.475226,3.34414 z"
               id="path2929"
               inkscape:connector-curvature="0"
               sodipodi:nodetypes="ccccccccccc" /><path
               sodipodi:nodetypes="ccccccccccc"
               inkscape:connector-curvature="0"
               id="path2931"
               d="m -27.580721,-655.5406 0.706773,0.23882 c 1.000779,-0.78397 1.908712,-1.61292 2.44743,-2.64029 0.05999,-0.11438 0.160093,-0.36706 0.281809,-0.70963 0.159347,-0.44866 0.198012,-0.57853 0.246942,-0.83261 0.213896,-1.11068 0.175016,-2.3201 -0.113102,-3.52504 -0.07753,-0.32426 -0.183936,-0.68717 -0.203673,-0.69421 -0.01946,-0.006 -0.354516,0.21942 -0.594797,0.40178 -0.963547,0.7312 -1.769799,1.64566 -2.302963,2.61225 -0.186599,0.33836 -0.47897,1.10618 -0.569294,1.49523 -0.260371,1.1218 -0.184888,2.43533 0.100829,3.65369 z"
               style="fill:#b3cf25;fill-opacity:1;stroke-width:1.32401" /><path
               style="fill:#b3cf25;fill-opacity:1;stroke-width:1.32401"
               d="m -32.718753,-660.00697 0.654269,0.35845 c 1.122202,-0.59734 2.160831,-1.25518 2.870523,-2.1728 0.07902,-0.10218 0.221682,-0.33352 0.40129,-0.64959 0.235184,-0.41398 0.29591,-0.53512 0.388415,-0.77676 0.404387,-1.05633 0.5771,-2.25399 0.503618,-3.49072 -0.01977,-0.33281 -0.06123,-0.70872 -0.07944,-0.7191 -0.01803,-0.01 -0.387358,0.15421 -0.655769,0.29185 -1.076341,0.5519 -2.029764,1.31167 -2.723382,2.17042 -0.242769,0.30061 -0.664611,1.00565 -0.821425,1.37298 -0.452086,1.05916 -0.606924,2.36572 -0.538146,3.61525 z"
               id="path2933"
               inkscape:connector-curvature="0"
               sodipodi:nodetypes="ccccccccccc" /><path
               sodipodi:nodetypes="ccccccccccc"
               inkscape:connector-curvature="0"
               id="path2935"
               d="m -36.97783,-666.19309 0.541401,0.51327 c 1.237327,-0.29183 2.409254,-0.66346 3.329247,-1.37007 0.102442,-0.0787 0.299311,-0.26606 0.553496,-0.52596 0.332867,-0.34044 0.42244,-0.44211 0.573439,-0.65223 0.660087,-0.91851 1.132129,-2.03268 1.37605,-3.24734 0.06564,-0.32688 0.121287,-0.70094 0.106326,-0.71562 -0.01473,-0.0144 -0.413858,0.0505 -0.708473,0.11521 -1.181411,0.25957 -2.296895,0.75146 -3.186351,1.40523 -0.311327,0.22888 -0.898824,0.80323 -1.144021,1.11851 -0.70693,0.90909 -1.189423,2.13313 -1.441155,3.35897 z"
               style="fill:#b3cf25;fill-opacity:1;stroke-width:1.32401" /><path
               style="fill:#b3cf25;fill-opacity:1;stroke-width:1.32401"
               d="m -39.468734,-671.95537 0.578922,0.47054 c 1.211506,-0.38522 2.351722,-0.84503 3.215223,-1.61966 0.09615,-0.0863 0.278177,-0.28808 0.511827,-0.56659 0.30597,-0.3648 0.387538,-0.47301 0.522095,-0.69401 0.58821,-0.96612 0.974017,-2.11301 1.124713,-3.34272 0.04056,-0.33093 0.06755,-0.70814 0.05151,-0.72164 -0.01578,-0.0132 -0.408813,0.0818 -0.697641,0.16883 -1.158208,0.34881 -2.232986,0.92423 -3.070063,1.64385 -0.29299,0.25193 -0.835033,0.86936 -1.055504,1.2024 -0.635634,0.96029 -1.023495,2.21753 -1.181127,3.45898 z"
               id="path2937"
               inkscape:connector-curvature="0"
               sodipodi:nodetypes="ccccccccccc" /><path
               sodipodi:nodetypes="ccccccccccc"
               inkscape:connector-curvature="0"
               id="path2939"
               d="m -41.374421,-677.28508 0.727959,-0.1632 c 0.447727,-1.18983 0.792745,-2.36987 0.719208,-3.52757 -0.0082,-0.12891 -0.05394,-0.39681 -0.127945,-0.75274 -0.09698,-0.46615 -0.13143,-0.59719 -0.221641,-0.83971 -0.39436,-1.06012 -1.055997,-2.07325 -1.928259,-2.95306 -0.23473,-0.23676 -0.514211,-0.49154 -0.534735,-0.48731 -0.02015,0.004 -0.18889,0.37168 -0.299436,0.65234 -0.443321,1.12542 -0.657034,2.32567 -0.610332,3.42856 0.01638,0.38605 0.16554,1.19401 0.29052,1.57335 0.360423,1.09375 1.107432,2.17683 1.984617,3.06935 z"
               style="fill:#b3cf25;fill-opacity:1;stroke-width:1.32401" /><path
               sodipodi:nodetypes="ccccccccccc"
               inkscape:connector-curvature="0"
               id="path2941"
               d="m -11.614729,-649.30644 0.58959,0.45709 c -0.100375,1.26732 -0.289555,2.48211 -0.848127,3.49882 -0.06227,0.11316 -0.217488,0.33625 -0.435751,0.62699 -0.285849,0.38075 -0.372765,0.48473 -0.557484,0.66591 -0.807507,0.79201 -1.836986,1.42792 -3.000464,1.85363 -0.313098,0.11457 -0.67436,0.22642 -0.691139,0.21387 -0.01598,-0.0128 -0.01303,-0.41672 0.0062,-0.71776 0.07698,-1.20713 0.393618,-2.38442 0.904602,-3.36291 0.178892,-0.3425 0.657274,-1.01046 0.931648,-1.30071 0.791095,-0.8369 1.92757,-1.49983 3.100896,-1.93496 z"
               style="fill:#b3cf25;fill-opacity:1;stroke-width:1.32401" /><path
               style="fill:#b3cf25;fill-opacity:1;stroke-width:1.32401"
               d="m -16.703652,-650.11921 0.58959,0.45709 c -0.100375,1.26732 -0.289555,2.48211 -0.848127,3.49882 -0.06227,0.11316 -0.217488,0.33625 -0.435751,0.62699 -0.285849,0.38075 -0.372765,0.48473 -0.557484,0.66591 -0.807507,0.79201 -1.836986,1.42792 -3.000464,1.85363 -0.313098,0.11457 -0.67436,0.22642 -0.691139,0.21387 -0.01598,-0.0128 -0.01303,-0.41672 0.0062,-0.71776 0.07698,-1.20713 0.393618,-2.38442 0.904602,-3.36291 0.178892,-0.3425 0.657274,-1.01046 0.931648,-1.30071 0.791095,-0.8369 1.92757,-1.49983 3.100896,-1.93496 z"
               id="path2943"
               inkscape:connector-curvature="0"
               sodipodi:nodetypes="ccccccccccc" /><path
               sodipodi:nodetypes="ccccccccccc"
               inkscape:connector-curvature="0"
               id="path2945"
               d="m -21.248198,-652.45748 0.295222,0.68512 c -0.70041,1.06095 -1.453173,2.03298 -2.433577,2.65307 -0.109207,0.069 -0.352918,0.18925 -0.684517,0.33828 -0.434272,0.19516 -0.560618,0.24418 -0.809898,0.31351 -1.089726,0.30306 -2.298326,0.36217 -3.522637,0.17251 -0.329473,-0.051 -0.699796,-0.12772 -0.708419,-0.14682 -0.0078,-0.0189 0.190008,-0.37111 0.352345,-0.62536 0.650837,-1.01956 1.497057,-1.89716 2.417328,-2.50679 0.32215,-0.21337 1.06379,-0.56691 1.444274,-0.68839 1.097055,-0.35029 2.412383,-0.38135 3.649868,-0.19517 z"
               style="fill:#b3cf25;fill-opacity:1;stroke-width:1.32401" /><path
               style="fill:#b3cf25;fill-opacity:1;stroke-width:1.32401"
               d="m -27.16917,-655.9869 0.295222,0.68512 c -0.70041,1.06095 -1.453173,2.03298 -2.433577,2.65307 -0.109207,0.069 -0.352918,0.18925 -0.684517,0.33828 -0.434272,0.19516 -0.560618,0.24418 -0.809898,0.31351 -1.089726,0.30306 -2.298326,0.36217 -3.522637,0.17251 -0.329473,-0.051 -0.699796,-0.12772 -0.708419,-0.14682 -0.0078,-0.0189 0.190008,-0.37111 0.352345,-0.62536 0.650837,-1.01956 1.497057,-1.89716 2.417328,-2.50679 0.32215,-0.21337 1.06379,-0.56691 1.444274,-0.68839 1.097055,-0.35029 2.412383,-0.38135 3.649868,-0.19517 z"
               id="path2947"
               inkscape:connector-curvature="0"
               sodipodi:nodetypes="ccccccccccc" /><path
               sodipodi:nodetypes="ccccccccccc"
               inkscape:connector-curvature="0"
               id="path2949"
               d="m -32.064484,-659.64852 -0.09234,0.74028 c -1.141198,0.56023 -2.282517,1.01727 -3.44193,1.05556 -0.129111,0.004 -0.400158,-0.0155 -0.761566,-0.0549 -0.473304,-0.0516 -0.607077,-0.0733 -0.857143,-0.13974 -1.093154,-0.29046 -2.16529,-0.85147 -3.125008,-1.63495 -0.258289,-0.21081 -0.53878,-0.46448 -0.536545,-0.48532 0.0028,-0.0202 0.351763,-0.22381 0.620491,-0.36085 1.077493,-0.54964 2.251587,-0.87793 3.353849,-0.93764 0.385839,-0.0209 1.20439,0.0498 1.594003,0.1377 1.123389,0.25344 2.273356,0.89268 3.246197,1.67983 z"
               style="fill:#b3cf25;fill-opacity:1;stroke-width:1.32401" /><path
               style="fill:#b3cf25;fill-opacity:1;stroke-width:1.32401"
               d="m -36.436429,-665.67982 -0.09234,0.74028 c -1.141198,0.56023 -2.282517,1.01727 -3.44193,1.05556 -0.129111,0.004 -0.400158,-0.0155 -0.761566,-0.0549 -0.473304,-0.0516 -0.607077,-0.0733 -0.857143,-0.13974 -1.093154,-0.29046 -2.16529,-0.85147 -3.125008,-1.63495 -0.258289,-0.21081 -0.53878,-0.46448 -0.536545,-0.48532 0.0028,-0.0202 0.351763,-0.22381 0.620491,-0.36085 1.077493,-0.54964 2.251587,-0.87793 3.353849,-0.93764 0.385839,-0.0209 1.20439,0.0498 1.594003,0.1377 1.123389,0.25344 2.273356,0.89268 3.246197,1.67983 z"
               id="path2951"
               inkscape:connector-curvature="0"
               sodipodi:nodetypes="ccccccccccc" /><path
               sodipodi:nodetypes="ccccccccccc"
               inkscape:connector-curvature="0"
               id="path2953"
               d="m -39.468734,-671.95537 -0.330027,0.66904 c -1.261816,0.15496 -2.489903,0.21239 -3.597742,-0.1317 -0.123281,-0.0386 -0.372939,-0.14589 -0.701434,-0.30164 -0.4302,-0.20398 -0.549456,-0.26835 -0.763899,-0.41313 -0.937422,-0.63293 -1.766255,-1.51454 -2.415923,-2.56945 -0.17486,-0.28386 -0.356638,-0.6155 -0.347692,-0.63445 0.0093,-0.0182 0.40571,-0.0961 0.70452,-0.13738 1.198162,-0.16585 2.414983,-0.0909 3.475857,0.21421 0.371352,0.1068 1.121437,0.44206 1.460669,0.65288 0.978127,0.60787 1.854828,1.58891 2.515689,2.65159 z"
               style="fill:#b3cf25;fill-opacity:1;stroke-width:1.32401" /></g><g
             inkscape:transform-center-y="-13.985119"
             inkscape:transform-center-x="-15.920928"
             id="g3109"
             transform="matrix(-0.75528329,0,0,0.75528329,-6.6214056,-161.18764)"
             style="fill:#b3cf25;fill-opacity:1;stroke-width:1.32401"><path
               inkscape:connector-curvature="0"
               id="path3077"
               d="m -40.361328,-677.83594 -1.298828,0.25977 c 2.874713,14.32565 11.254457,21.73063 18.878906,25.4707 7.624449,3.74007 14.546875,3.88281 14.546875,3.88281 l 0.027344,-1.32422 c 0,0 -6.637377,-0.14119 -13.990235,-3.74804 -7.352857,-3.60685 -15.369133,-10.61295 -18.164062,-24.54102 z"
               style="color:#000000;font-style:normal;font-variant:normal;font-weight:normal;font-stretch:normal;font-size:medium;line-height:normal;font-family:sans-serif;font-variant-ligatures:normal;font-variant-position:normal;font-variant-caps:normal;font-variant-numeric:normal;font-variant-alternates:normal;font-feature-settings:normal;text-indent:0;text-align:start;text-decoration:none;text-decoration-line:none;text-decoration-style:solid;text-decoration-color:#000000;letter-spacing:normal;word-spacing:normal;text-transform:none;writing-mode:lr-tb;direction:ltr;text-orientation:mixed;dominant-baseline:auto;baseline-shift:baseline;text-anchor:start;white-space:normal;shape-padding:0;clip-rule:nonzero;display:inline;overflow:visible;visibility:visible;opacity:1;isolation:auto;mix-blend-mode:normal;color-interpolation:sRGB;color-interpolation-filters:linearRGB;solid-color:#000000;solid-opacity:1;vector-effect:none;fill:#b3cf25;fill-opacity:1;fill-rule:nonzero;stroke:none;stroke-width:1.32401;stroke-linecap:butt;stroke-linejoin:miter;stroke-miterlimit:4;stroke-dasharray:none;stroke-dashoffset:0;stroke-opacity:1;color-rendering:auto;image-rendering:auto;shape-rendering:auto;text-rendering:auto;enable-background:accumulate" /><path
               sodipodi:nodetypes="ccccccccccc"
               inkscape:connector-curvature="0"
               id="path3079"
               d="m -11.759163,-648.71605 0.734024,-0.1333 c 0.495998,-1.17053 0.888977,-2.33547 0.862834,-3.49522 -0.0029,-0.12913 -0.03767,-0.39868 -0.09706,-0.75734 -0.07784,-0.46971 -0.106896,-0.60207 -0.187119,-0.84806 -0.350682,-1.07535 -0.970343,-2.11469 -1.805904,-3.02943 -0.224855,-0.24617 -0.493684,-0.51216 -0.514365,-0.50877 -0.02007,0.004 -0.203927,0.36365 -0.325854,0.63956 -0.48897,1.10634 -0.751578,2.29685 -0.750006,3.40073 5.86e-4,0.3864 0.116584,1.19977 0.225985,1.5839 0.315404,1.10759 1.017503,2.22029 1.857462,3.14793 z"
               style="fill:#b3cf25;fill-opacity:1;stroke-width:1.32401" /><path
               style="fill:#b3cf25;fill-opacity:1;stroke-width:1.32401"
               d="m -16.114055,-649.66212 0.73385,-0.13425 c 0.494492,-1.17116 0.885967,-2.33661 0.858334,-3.49632 -0.0031,-0.12913 -0.03819,-0.39864 -0.09804,-0.75722 -0.07845,-0.46961 -0.107674,-0.60193 -0.188213,-0.84782 -0.352068,-1.0749 -0.973069,-2.11343 -1.809803,-3.02709 -0.225173,-0.24589 -0.494344,-0.51153 -0.515022,-0.50812 -0.02023,0.004 -0.203457,0.36392 -0.325031,0.63998 -0.487544,1.10697 -0.748618,2.29782 -0.745623,3.4017 0.0011,0.38639 0.118128,1.19961 0.228024,1.5836 0.316832,1.10719 1.020359,2.21899 1.861517,3.14554 z"
               id="path3081"
               inkscape:connector-curvature="0"
               sodipodi:nodetypes="ccccccccccc" /><path
               sodipodi:nodetypes="ccccccccccc"
               inkscape:connector-curvature="0"
               id="path3083"
               d="m -21.248198,-652.45748 0.744595,-0.0462 c 0.629929,-1.10424 1.156897,-2.21501 1.267028,-3.36982 0.01227,-0.12858 0.0094,-0.40034 -0.0075,-0.7635 -0.02218,-0.47559 -0.0355,-0.61045 -0.08631,-0.86415 -0.222071,-1.10908 -0.715487,-2.21396 -1.437932,-3.22043 -0.194417,-0.27085 -0.430173,-0.56655 -0.451106,-0.56561 -0.02038,0.002 -0.245193,0.33721 -0.398655,0.5969 -0.61542,1.04132 -1.015914,2.19279 -1.143891,3.28923 -0.04476,0.38379 -0.02501,1.20516 0.03856,1.59948 0.183249,1.13694 0.749924,2.32434 1.475226,3.34414 z"
               style="fill:#b3cf25;fill-opacity:1;stroke-width:1.32401" /><path
               style="fill:#b3cf25;fill-opacity:1;stroke-width:1.32401"
               d="m -27.580721,-655.5406 0.706773,0.23882 c 1.000779,-0.78397 1.908712,-1.61292 2.44743,-2.64029 0.05999,-0.11438 0.160093,-0.36706 0.281809,-0.70963 0.159347,-0.44866 0.198012,-0.57853 0.246942,-0.83261 0.213896,-1.11068 0.175016,-2.3201 -0.113102,-3.52504 -0.07753,-0.32426 -0.183936,-0.68717 -0.203673,-0.69421 -0.01946,-0.006 -0.354516,0.21942 -0.594797,0.40178 -0.963547,0.7312 -1.769799,1.64566 -2.302963,2.61225 -0.186599,0.33836 -0.47897,1.10618 -0.569294,1.49523 -0.260371,1.1218 -0.184888,2.43533 0.100829,3.65369 z"
               id="path3085"
               inkscape:connector-curvature="0"
               sodipodi:nodetypes="ccccccccccc" /><path
               sodipodi:nodetypes="ccccccccccc"
               inkscape:connector-curvature="0"
               id="path3087"
               d="m -32.718753,-660.00697 0.654269,0.35845 c 1.122202,-0.59734 2.160831,-1.25518 2.870523,-2.1728 0.07902,-0.10218 0.221682,-0.33352 0.40129,-0.64959 0.235184,-0.41398 0.29591,-0.53512 0.388415,-0.77676 0.404387,-1.05633 0.5771,-2.25399 0.503618,-3.49072 -0.01977,-0.33281 -0.06123,-0.70872 -0.07944,-0.7191 -0.01803,-0.01 -0.387358,0.15421 -0.655769,0.29185 -1.076341,0.5519 -2.029764,1.31167 -2.723382,2.17042 -0.242769,0.30061 -0.664611,1.00565 -0.821425,1.37298 -0.452086,1.05916 -0.606924,2.36572 -0.538146,3.61525 z"
               style="fill:#b3cf25;fill-opacity:1;stroke-width:1.32401" /><path
               style="fill:#b3cf25;fill-opacity:1;stroke-width:1.32401"
               d="m -36.97783,-666.19309 0.541401,0.51327 c 1.237327,-0.29183 2.409254,-0.66346 3.329247,-1.37007 0.102442,-0.0787 0.299311,-0.26606 0.553496,-0.52596 0.332867,-0.34044 0.42244,-0.44211 0.573439,-0.65223 0.660087,-0.91851 1.132129,-2.03268 1.37605,-3.24734 0.06564,-0.32688 0.121287,-0.70094 0.106326,-0.71562 -0.01473,-0.0144 -0.413858,0.0505 -0.708473,0.11521 -1.181411,0.25957 -2.296895,0.75146 -3.186351,1.40523 -0.311327,0.22888 -0.898824,0.80323 -1.144021,1.11851 -0.70693,0.90909 -1.189423,2.13313 -1.441155,3.35897 z"
               id="path3089"
               inkscape:connector-curvature="0"
               sodipodi:nodetypes="ccccccccccc" /><path
               sodipodi:nodetypes="ccccccccccc"
               inkscape:connector-curvature="0"
               id="path3091"
               d="m -39.468734,-671.95537 0.578922,0.47054 c 1.211506,-0.38522 2.351722,-0.84503 3.215223,-1.61966 0.09615,-0.0863 0.278177,-0.28808 0.511827,-0.56659 0.30597,-0.3648 0.387538,-0.47301 0.522095,-0.69401 0.58821,-0.96612 0.974017,-2.11301 1.124713,-3.34272 0.04056,-0.33093 0.06755,-0.70814 0.05151,-0.72164 -0.01578,-0.0132 -0.408813,0.0818 -0.697641,0.16883 -1.158208,0.34881 -2.232986,0.92423 -3.070063,1.64385 -0.29299,0.25193 -0.835033,0.86936 -1.055504,1.2024 -0.635634,0.96029 -1.023495,2.21753 -1.181127,3.45898 z"
               style="fill:#b3cf25;fill-opacity:1;stroke-width:1.32401" /><path
               style="fill:#b3cf25;fill-opacity:1;stroke-width:1.32401"
               d="m -41.374421,-677.28508 0.727959,-0.1632 c 0.447727,-1.18983 0.792745,-2.36987 0.719208,-3.52757 -0.0082,-0.12891 -0.05394,-0.39681 -0.127945,-0.75274 -0.09698,-0.46615 -0.13143,-0.59719 -0.221641,-0.83971 -0.39436,-1.06012 -1.055997,-2.07325 -1.928259,-2.95306 -0.23473,-0.23676 -0.514211,-0.49154 -0.534735,-0.48731 -0.02015,0.004 -0.18889,0.37168 -0.299436,0.65234 -0.443321,1.12542 -0.657034,2.32567 -0.610332,3.42856 0.01638,0.38605 0.16554,1.19401 0.29052,1.57335 0.360423,1.09375 1.107432,2.17683 1.984617,3.06935 z"
               id="path3093"
               inkscape:connector-curvature="0"
               sodipodi:nodetypes="ccccccccccc" /><path
               style="fill:#b3cf25;fill-opacity:1;stroke-width:1.32401"
               d="m -11.614729,-649.30644 0.58959,0.45709 c -0.100375,1.26732 -0.289555,2.48211 -0.848127,3.49882 -0.06227,0.11316 -0.217488,0.33625 -0.435751,0.62699 -0.285849,0.38075 -0.372765,0.48473 -0.557484,0.66591 -0.807507,0.79201 -1.836986,1.42792 -3.000464,1.85363 -0.313098,0.11457 -0.67436,0.22642 -0.691139,0.21387 -0.01598,-0.0128 -0.01303,-0.41672 0.0062,-0.71776 0.07698,-1.20713 0.393618,-2.38442 0.904602,-3.36291 0.178892,-0.3425 0.657274,-1.01046 0.931648,-1.30071 0.791095,-0.8369 1.92757,-1.49983 3.100896,-1.93496 z"
               id="path3095"
               inkscape:connector-curvature="0"
               sodipodi:nodetypes="ccccccccccc" /><path
               sodipodi:nodetypes="ccccccccccc"
               inkscape:connector-curvature="0"
               id="path3097"
               d="m -16.703652,-650.11921 0.58959,0.45709 c -0.100375,1.26732 -0.289555,2.48211 -0.848127,3.49882 -0.06227,0.11316 -0.217488,0.33625 -0.435751,0.62699 -0.285849,0.38075 -0.372765,0.48473 -0.557484,0.66591 -0.807507,0.79201 -1.836986,1.42792 -3.000464,1.85363 -0.313098,0.11457 -0.67436,0.22642 -0.691139,0.21387 -0.01598,-0.0128 -0.01303,-0.41672 0.0062,-0.71776 0.07698,-1.20713 0.393618,-2.38442 0.904602,-3.36291 0.178892,-0.3425 0.657274,-1.01046 0.931648,-1.30071 0.791095,-0.8369 1.92757,-1.49983 3.100896,-1.93496 z"
               style="fill:#b3cf25;fill-opacity:1;stroke-width:1.32401" /><path
               style="fill:#b3cf25;fill-opacity:1;stroke-width:1.32401"
               d="m -21.248198,-652.45748 0.295222,0.68512 c -0.70041,1.06095 -1.453173,2.03298 -2.433577,2.65307 -0.109207,0.069 -0.352918,0.18925 -0.684517,0.33828 -0.434272,0.19516 -0.560618,0.24418 -0.809898,0.31351 -1.089726,0.30306 -2.298326,0.36217 -3.522637,0.17251 -0.329473,-0.051 -0.699796,-0.12772 -0.708419,-0.14682 -0.0078,-0.0189 0.190008,-0.37111 0.352345,-0.62536 0.650837,-1.01956 1.497057,-1.89716 2.417328,-2.50679 0.32215,-0.21337 1.06379,-0.56691 1.444274,-0.68839 1.097055,-0.35029 2.412383,-0.38135 3.649868,-0.19517 z"
               id="path3099"
               inkscape:connector-curvature="0"
               sodipodi:nodetypes="ccccccccccc" /><path
               sodipodi:nodetypes="ccccccccccc"
               inkscape:connector-curvature="0"
               id="path3101"
               d="m -27.16917,-655.9869 0.295222,0.68512 c -0.70041,1.06095 -1.453173,2.03298 -2.433577,2.65307 -0.109207,0.069 -0.352918,0.18925 -0.684517,0.33828 -0.434272,0.19516 -0.560618,0.24418 -0.809898,0.31351 -1.089726,0.30306 -2.298326,0.36217 -3.522637,0.17251 -0.329473,-0.051 -0.699796,-0.12772 -0.708419,-0.14682 -0.0078,-0.0189 0.190008,-0.37111 0.352345,-0.62536 0.650837,-1.01956 1.497057,-1.89716 2.417328,-2.50679 0.32215,-0.21337 1.06379,-0.56691 1.444274,-0.68839 1.097055,-0.35029 2.412383,-0.38135 3.649868,-0.19517 z"
               style="fill:#b3cf25;fill-opacity:1;stroke-width:1.32401" /><path
               style="fill:#b3cf25;fill-opacity:1;stroke-width:1.32401"
               d="m -32.064484,-659.64852 -0.09234,0.74028 c -1.141198,0.56023 -2.282517,1.01727 -3.44193,1.05556 -0.129111,0.004 -0.400158,-0.0155 -0.761566,-0.0549 -0.473304,-0.0516 -0.607077,-0.0733 -0.857143,-0.13974 -1.093154,-0.29046 -2.16529,-0.85147 -3.125008,-1.63495 -0.258289,-0.21081 -0.53878,-0.46448 -0.536545,-0.48532 0.0028,-0.0202 0.351763,-0.22381 0.620491,-0.36085 1.077493,-0.54964 2.251587,-0.87793 3.353849,-0.93764 0.385839,-0.0209 1.20439,0.0498 1.594003,0.1377 1.123389,0.25344 2.273356,0.89268 3.246197,1.67983 z"
               id="path3103"
               inkscape:connector-curvature="0"
               sodipodi:nodetypes="ccccccccccc" /><path
               sodipodi:nodetypes="ccccccccccc"
               inkscape:connector-curvature="0"
               id="path3105"
               d="m -36.436429,-665.67982 -0.09234,0.74028 c -1.141198,0.56023 -2.282517,1.01727 -3.44193,1.05556 -0.129111,0.004 -0.400158,-0.0155 -0.761566,-0.0549 -0.473304,-0.0516 -0.607077,-0.0733 -0.857143,-0.13974 -1.093154,-0.29046 -2.16529,-0.85147 -3.125008,-1.63495 -0.258289,-0.21081 -0.53878,-0.46448 -0.536545,-0.48532 0.0028,-0.0202 0.351763,-0.22381 0.620491,-0.36085 1.077493,-0.54964 2.251587,-0.87793 3.353849,-0.93764 0.385839,-0.0209 1.20439,0.0498 1.594003,0.1377 1.123389,0.25344 2.273356,0.89268 3.246197,1.67983 z"
               style="fill:#b3cf25;fill-opacity:1;stroke-width:1.32401" /><path
               style="fill:#b3cf25;fill-opacity:1;stroke-width:1.32401"
               d="m -39.468734,-671.95537 -0.330027,0.66904 c -1.261816,0.15496 -2.489903,0.21239 -3.597742,-0.1317 -0.123281,-0.0386 -0.372939,-0.14589 -0.701434,-0.30164 -0.4302,-0.20398 -0.549456,-0.26835 -0.763899,-0.41313 -0.937422,-0.63293 -1.766255,-1.51454 -2.415923,-2.56945 -0.17486,-0.28386 -0.356638,-0.6155 -0.347692,-0.63445 0.0093,-0.0182 0.40571,-0.0961 0.70452,-0.13738 1.198162,-0.16585 2.414983,-0.0909 3.475857,0.21421 0.371352,0.1068 1.121437,0.44206 1.460669,0.65288 0.978127,0.60787 1.854828,1.58891 2.515689,2.65159 z"
               id="path3107"
               inkscape:connector-curvature="0"
               sodipodi:nodetypes="ccccccccccc" /></g><g
             style="fill:#b3cf25;fill-opacity:1"
             transform="translate(2.1657344,-0.52916667)"
             id="g1676"><path
               inkscape:connector-curvature="0"
               id="path1659"
               transform="matrix(0.26458333,0,0,0.26458333,-2.1657344,-1.0583333)"
               d="m -85.759766,-2497.9277 -2.27539,3.5273 2.27539,9.6426 2.308594,-0.5996 -0.287109,0.9609 3.15625,5.9336 7.324219,9.2188 10.037109,13.1132 12.431641,2.7032 9.224609,3.6289 10.101562,2.0195 4.166016,-15.9102 -31.621094,-18.2421 c 0.84985,-0.6415 1.402344,-1.6092 1.402344,-2.709 0,-1.9412 -1.685437,-3.5039 -3.779297,-3.5039 h -0.585937 c -1.688454,0 -3.094284,1.0241 -3.582032,2.4355 l -7.794921,-4.4961 -7.576172,-3.914 -0.691407,2.3105 z"
               style="fill:#333333;fill-opacity:1;stroke:none;stroke-width:1px;stroke-linecap:butt;stroke-linejoin:miter;stroke-opacity:1" /><path
               id="path3715"
               d="m -9.57257,-648.84133 c 0.13108,-0.25466 0.24398,-0.9988 0.25089,-1.65365 0.007,-0.65484 0.26102,-2.13578 0.56471,-3.29097 0.9007,-3.42611 0.70492,-4.63371 -1.21103,-7.46968 -2.09506,-3.10108 -2.51025,-3.59257 -2.79461,-3.3082 -0.17481,0.17481 0.31292,1.09443 1.45022,2.73436 0.94249,1.35902 1.86318,2.93343 2.04598,3.49869 0.37853,1.17048 0.21768,3.19285 -0.3912,4.91859 -0.2196,0.62242 -0.39927,1.77527 -0.39927,2.56191 0,1.66034 -0.26469,1.87228 -1.62729,1.30294 -0.51582,-0.21552 -1.93827,-0.51678 -3.16101,-0.66947 -3.41986,-0.42705 -4.25113,-0.97127 -6.48223,-4.24378 -1.79345,-2.63059 -2.48781,-3.36128 -2.48781,-2.618 0,0.44081 3.02209,5.0248 3.78557,5.74205 0.93618,0.8795 2.90206,1.62389 4.99318,1.8907 1.06528,0.13592 2.45787,0.43172 3.09463,0.65733 1.49784,0.5307 2.07552,0.51782 2.36927,-0.0528 z"
               style="fill:#ffffff;fill-opacity:1;stroke-width:1"
               inkscape:connector-curvature="0" /><path
               id="path3667"
               d="m -17.7298,-653.35344 c 0,-0.11697 -0.42149,-0.62121 -0.93665,-1.12052 -0.51515,-0.49931 -1.36838,-1.53469 -1.89606,-2.30086 -0.52768,-0.76616 -1.11822,-1.39302 -1.31231,-1.39302 -0.53237,0 -0.43407,0.33535 0.47305,1.61394 1.63018,2.29774 3.67197,4.07735 3.67197,3.20046 z"
               style="fill:#ffffff;fill-opacity:1;stroke-width:1"
               inkscape:connector-curvature="0" /><path
               id="path3663"
               d="m -18.86409,-661.17779 c 5.74858,-3.86545 5.94596,-4.03144 5.84317,-4.91375 -0.19603,-1.68264 -4.41443,-2.46255 -7.0912,-1.31103 l -1.28979,0.55485 -0.89802,-0.68495 c -1.12991,-0.86182 -2.57362,-1.20465 -2.57362,-0.61114 0,0.23597 0.3241,0.48011 0.76632,0.57723 0.80543,0.1769 1.50178,0.80221 1.99496,1.79145 0.40219,0.80671 1.20747,0.94371 1.20747,0.20542 0,-1.29334 4.11381,-2.09321 6.22621,-1.21059 0.50465,0.21085 0.91754,0.56656 0.91754,0.79045 0,0.52812 -10.23789,7.38048 -10.7394,7.18803 -0.44584,-0.17108 -0.49245,-1.70376 -0.0953,-3.13381 0.15116,-0.54431 0.75166,-1.54057 1.33443,-2.21391 0.58278,-0.67334 1.00319,-1.28067 0.93425,-1.34961 -0.29416,-0.29416 -1.22965,0.27788 -1.90724,1.16625 -0.96949,1.27106 -1.40725,2.5664 -1.42138,4.20582 -0.0125,1.45629 0.50686,2.23896 1.46443,2.20669 0.27959,-0.009 2.67681,-1.47525 5.32717,-3.2574 z"
               style="fill:#ffffff;fill-opacity:1;stroke-width:1"
               inkscape:connector-curvature="0" /><path
               inkscape:connector-curvature="0"
               id="path1500"
               d="m -10.623964,-651.4059 2.0045217,-2.23841 4.0758605,-1.1693 2.8063299,-2.17156 1.4365737,-3.04017 0.434313,-2.57249 1.3697563,-2.30518 1.6031006,-0.37712 1.4528461,0.34253 1.405599,1.99621 0.212611,3.99237 -0.531528,2.92931 -0.944941,2.25605 -2.5500518,3.22405 -3.4539659,2.30751 -4.6029391,1.14208 -2.267857,0.18899 -1.5827753,-1.0867 -0.8976937,-1.67724 z"
               style="fill:#333333;fill-opacity:1;stroke:#000000;stroke-width:0.264583px;stroke-linecap:butt;stroke-linejoin:miter;stroke-opacity:1" /><path
               style="fill:#333333;fill-opacity:1;stroke:none;stroke-width:0.264583px;stroke-linecap:butt;stroke-linejoin:miter;stroke-opacity:1"
               d="m -10.623964,-651.4059 -1.353156,-0.90491 -1.063058,-4.67746 0.54334,-3.80338 1.299293,-1.96075 1.7481403,-0.54335 1.8662575,0.82682 0.6614584,1.46466 -0.07087,2.45684 0.1889879,2.03163 0.921317,0.94493 0.4724701,1.20481 z"
               id="path1502"
               inkscape:connector-curvature="0" /><path
               id="path3599"
               d="m -12.814843,-653.30995 c -0.977054,-2.08487 -1.011597,-5.32908 -0.0789,-7.41026 1.166171,-2.60215 3.026036,-3.57761 4.810941,-2.52324 1.205701,0.71223 1.627799,1.89451 1.423316,3.98667 -0.1528,1.56337 -0.106441,1.8651 0.381474,2.48283 1.094341,1.38552 0.498909,1.78701 -0.641043,0.43226 -0.685482,-0.81465 -0.70706,-0.93227 -0.53433,-2.91242 0.17803,-2.04089 0.171334,-2.07214 -0.611754,-2.85523 -2.90155,-2.90155 -5.33838,2.96628 -3.090468,7.44177 0.783035,1.55899 0.782471,1.55606 0.299615,1.55606 -0.203991,0 -0.618704,-0.38696 -0.921584,-0.8599 -0.697976,-1.08987 -0.727111,-0.50569 -0.04178,0.83768 0.491762,0.96393 0.47833,1.34513 -0.0474,1.34513 -0.129318,0 -0.555959,-0.6846 -0.94809,-1.52135 z"
               style="fill:#ffffff;fill-opacity:1;stroke-width:1"
               inkscape:connector-curvature="0" /><path
               id="path3643"
               d="m 3.0654106,-665.73443 c -1.9242273,-0.008 -3.75595617,2.15238 -3.76359469,4.93096 -0.003413,1.2487 -1.03639411,3.38322 -2.14767311,4.43746 -1.0358544,0.98268 -2.2563984,1.53188 -3.9439427,1.77456 -2.9796924,0.42849 -5.0783041,3.26178 -4.1180971,5.55987 0.460156,1.1013 1.367293,1.95358 2.3988214,2.25362 4.3187858,1.25624 11.5726791,-2.63248 13.8461828,-7.42281 2.1053927,-4.43614 1.6639672,-9.64163 -0.946195,-11.16211 -0.4326308,-0.25202 -0.8814488,-0.36965 -1.3255016,-0.37155 z m 0.043926,0.78599 c 1.0697924,-0.0185 1.9466269,0.82508 2.4153548,2.40348 1.0856595,3.65583 -0.1982073,8.14607 -3.1868851,11.14607 -1.52475665,1.53054 -4.3548564,3.11389 -6.6192346,3.70367 -1.88078,0.48987 -3.1621094,0.50027 -4.2193791,0.0336 -3.1692586,-1.39893 -2.0117386,-5.52291 1.7197916,-6.12727 2.74701,-0.4449 5.1930114,-2.15871 6.15001197,-4.30877 0.28144522,-0.63232 0.62077863,-1.91886 0.7539593,-2.85927 0.30188958,-2.13175 0.81029703,-3.1379 1.86035153,-3.68091 0.3914907,-0.20243 0.7694321,-0.3044 1.1260296,-0.31057 z"
               style="fill:#ffffff;fill-opacity:1;stroke-width:1"
               inkscape:connector-curvature="0" /><path
               id="path3639"
               d="m -8.566872,-648.35724 c -1.188418,-0.47768 -0.618924,-0.7677 1.190625,-0.60632 1.982303,0.17677 2.214927,0.26509 1.645983,0.6249 -0.487404,0.30825 -2.048961,0.29802 -2.836608,-0.0186 z"
               style="fill:#ffffff;fill-opacity:1;stroke-width:1"
               inkscape:connector-curvature="0" /><path
               id="path3635"
               d="m 4.267552,-656.96787 c -0.08371,-0.0837 -0.04403,-0.52941 0.08819,-0.99044 0.132223,-0.46103 0.240403,-1.41449 0.240403,-2.1188 0,-1.60731 0.62271,-1.58625 0.742048,0.0251 0.132569,1.79005 -0.510958,3.64383 -1.070645,3.08414 z"
               style="fill:#ffffff;fill-opacity:1;stroke-width:1"
               inkscape:connector-curvature="0" /></g></g><path
           inkscape:connector-curvature="0"
           id="path1894"
           style="font-style:normal;font-variant:normal;font-weight:bold;font-stretch:normal;font-size:7.76111px;line-height:1.25;font-family:'Life of Apple';-inkscape-font-specification:'Life of Apple Bold';letter-spacing:2.6326px;word-spacing:0px;fill:#ffffff;fill-opacity:1;stroke:none;stroke-width:0.264583"
           d="m -24.646131,-675.67687 q 0.186266,0.0233 0.318205,0.12418 0.1397,0.0931 0.240595,0.22507 0.100894,0.13194 0.155222,0.30269 0.06209,0.16298 0.08537,0.32596 0.06209,0.40358 0.07761,0.80716 0.01552,0.39582 -0.01552,0.79939 -0.01552,0.13194 -0.108655,0.20179 -0.09313,0.0698 -0.201789,0.0698 -0.100895,0 -0.186267,-0.0698 -0.07761,-0.0698 -0.06985,-0.20179 0.03104,-0.32596 0.02328,-0.64417 0,-0.32597 -0.0388,-0.65193 -0.0078,-0.0854 -0.02328,-0.20179 -0.01552,-0.12418 -0.05433,-0.23283 -0.03105,-0.11642 -0.100895,-0.20179 -0.06209,-0.0854 -0.178505,-0.1009 -0.07761,-0.008 -0.131939,0.0466 -0.05433,0.0543 -0.09313,0.1397 -0.0388,0.0854 -0.06985,0.18627 -0.02328,0.10089 -0.0388,0.18626 0.03104,0.13194 0.04657,0.27164 0.02328,0.13194 0.03881,0.26388 0.01552,0.20179 0.01552,0.42686 0.0078,0.22507 -0.06209,0.42686 -0.04657,0.13194 -0.1397,0.23283 -0.08537,0.0931 -0.232833,0.0776 -0.178506,-0.0155 -0.271639,-0.16299 -0.08537,-0.15522 -0.09313,-0.3182 0,-0.18627 0.01552,-0.37254 0.02328,-0.19402 0.04657,-0.37253 0.02328,-0.23283 0.06985,-0.46567 -0.07761,-0.3182 -0.186267,-0.58984 -0.05433,-0.12418 -0.100894,-0.21731 -0.01552,0 -0.03104,-0.0543 l -0.01552,0.0155 q -0.05433,0.0698 -0.08537,0.16299 -0.03105,0.0854 -0.06209,0.16298 -0.03881,0.10089 -0.07761,0.20179 -0.03104,0.0931 -0.06209,0.19403 -0.09313,0.2794 -0.162984,0.56656 -0.06209,0.2794 -0.100894,0.57432 0.0078,0.031 0.0078,0.0621 0.0078,0.031 0.01552,0.0698 0.03104,0.19403 -0.01552,0.38805 -0.04657,0.18627 -0.271639,0.24836 -0.124178,0.0388 -0.248355,-0.0466 -0.116417,-0.0854 -0.108656,-0.21731 0.01552,-0.13194 0.02328,-0.24835 0.01552,-0.12418 0.03105,-0.24836 -0.0078,-0.0388 -0.01552,-0.0776 0,-0.0388 -0.0078,-0.0776 -0.03104,-0.15522 -0.05433,-0.31821 -0.02328,-0.16298 -0.05433,-0.32596 -0.05433,-0.32597 -0.108656,-0.63642 -0.05433,-0.3182 -0.116416,-0.64417 -0.02328,-0.13194 0.04657,-0.21731 0.06985,-0.0931 0.170745,-0.12418 0.100894,-0.031 0.201789,0.0155 0.100894,0.0466 0.124178,0.1785 0.0388,0.20179 0.06985,0.40358 0.0388,0.19403 0.07761,0.39582 0.05433,-0.15523 0.108655,-0.30269 0.06209,-0.15522 0.131939,-0.30268 0.08537,-0.17075 0.232833,-0.30268 0.147462,-0.13194 0.34925,-0.12418 0.124178,0 0.217312,0.0543 0.09313,0.0543 0.170744,0.1397 0.07761,0.0854 0.131939,0.19402 0.05433,0.10866 0.100894,0.21731 0.108656,-0.15522 0.263878,-0.23283 0.162983,-0.0854 0.388056,-0.0543 z m -1.280584,0.2406 q 0,0 0,0 z m 0.737306,2.07221 v -0.0233 q 0.03104,0.0155 0.03104,0.0311 0,0.0155 -0.01552,0.0233 -0.0078,0 -0.02328,0 -0.0078,-0.008 0.0078,-0.0311 z" /><path
           inkscape:connector-curvature="0"
           id="path1896"
           style="font-style:normal;font-variant:normal;font-weight:bold;font-stretch:normal;font-size:7.76111px;line-height:1.25;font-family:'Life of Apple';-inkscape-font-specification:'Life of Apple Bold';letter-spacing:2.6326px;word-spacing:0px;fill:#ffffff;fill-opacity:1;stroke:none;stroke-width:0.264583"
           d="m -18.925332,-675.18792 q -0.01552,1.01671 0.263878,1.9558 0.03104,0.13194 -0.03881,0.22508 -0.06209,0.0854 -0.162983,0.10865 -0.100895,0.031 -0.201789,-0.0155 -0.100894,-0.0388 -0.1397,-0.17075 -0.04657,-0.15522 -0.08537,-0.3182 -0.03104,-0.16298 -0.06985,-0.32597 -0.05433,0.12418 -0.124178,0.24836 -0.09313,0.17074 -0.217311,0.32596 -0.124178,0.14747 -0.310445,0.21732 -0.178505,0.0621 -0.357011,0.0155 -0.178505,-0.0466 -0.294922,-0.19403 -0.116417,-0.14746 -0.155222,-0.34149 -0.04657,-0.19403 -0.06209,-0.37253 -0.01552,-0.19403 0,-0.3803 0.0078,-0.19402 0.04657,-0.38029 0.0388,-0.19403 0.100894,-0.3803 0.06209,-0.19402 0.147461,-0.37253 0.06985,-0.15522 0.162984,-0.30268 0.100894,-0.14746 0.256116,-0.2406 0.162984,-0.10089 0.357011,-0.10865 0.201789,-0.008 0.357011,0.10089 0.124178,0.0854 0.194028,0.20179 0.06985,0.10866 0.124178,0.2406 0.08537,0.0233 0.147461,0.0931 0.06985,0.0621 0.06209,0.17074 z m -0.915811,1.17193 q 0.108655,-0.24835 0.178505,-0.50447 0.07761,-0.25612 0.1397,-0.52 -0.08537,-0.0466 -0.116416,-0.14746 -0.01552,-0.0388 -0.03104,-0.0854 -0.01552,-0.0543 -0.0388,-0.0931 -0.02328,-0.0466 -0.06209,-0.0621 -0.03881,-0.0155 -0.09313,0.0155 -0.108656,0.0543 -0.170745,0.18627 -0.05433,0.12418 -0.09313,0.23283 -0.124178,0.29492 -0.186267,0.62089 -0.05433,0.31821 0.0078,0.63641 0.0078,0.0543 0.02328,0.14746 0.01552,0.0854 0.05433,0.12418 l 0.0078,0.008 q 0.02328,-0.008 0.06985,-0.0388 0.108656,-0.0854 0.178506,-0.2406 0.07761,-0.15522 0.131939,-0.2794 z" /><path
           inkscape:connector-curvature="0"
           id="path1898"
           style="font-style:normal;font-variant:normal;font-weight:bold;font-stretch:normal;font-size:7.76111px;line-height:1.25;font-family:'Life of Apple';-inkscape-font-specification:'Life of Apple Bold';letter-spacing:2.6326px;word-spacing:0px;fill:#ffffff;fill-opacity:1;stroke:none;stroke-width:0.264583"
           d="m -13.923163,-675.64582 q 0.08537,0.20179 0.08537,0.42686 0.0078,0.21731 0.01552,0.43462 0.01552,0.45791 0.02328,0.90805 0.0078,0.44238 0.02328,0.89253 0,0.1397 -0.08537,0.20179 -0.08537,0.0698 -0.194028,0.0698 -0.100894,0 -0.194028,-0.0698 -0.08537,-0.0698 -0.08537,-0.20179 l -0.04657,-1.76953 q 0,-0.16299 -0.0078,-0.31821 -0.0078,-0.15522 -0.0388,-0.31044 -0.06985,0.15522 -0.131939,0.30268 -0.05433,0.1397 -0.116417,0.3182 -0.155222,0.4191 -0.310444,0.84597 -0.147461,0.4191 -0.217311,0.86148 -0.01552,0.11642 -0.108656,0.16298 -0.08537,0.0466 -0.186267,0.031 -0.09313,-0.0155 -0.170744,-0.0854 -0.07761,-0.0698 -0.07761,-0.18626 0.0078,-0.39582 0.01552,-0.77611 0,-0.38806 0,-0.78388 0,-0.1785 0,-0.34925 0,-0.1785 -0.0078,-0.35701 -0.0078,-0.0621 -0.0078,-0.11641 0,-0.0543 -0.0078,-0.11642 v -0.0155 q -0.01552,-0.0233 -0.01552,-0.0233 0,-0.008 0.01552,0.008 v -0.008 q -0.04657,-0.11641 0,-0.20955 0.04657,-0.0931 0.131939,-0.1397 0.09313,-0.0466 0.194027,-0.031 0.108656,0.0155 0.170745,0.13194 0.05433,0.10089 0.06209,0.22507 0.0078,0.11642 0.0078,0.22507 0.0078,0.10866 0.0078,0.22508 0.0078,0.10865 0.0078,0.21731 0.03104,-0.0776 0.05433,-0.14746 0.03104,-0.0699 0.06209,-0.14747 0.06985,-0.17074 0.147461,-0.36477 0.08537,-0.19403 0.263878,-0.28716 0.240594,-0.11642 0.434622,-0.008 0.201789,0.10866 0.287161,0.33373 z m -1.831622,-0.008 q 0.0078,0.008 0.0078,0.0155 0,0 0.0078,0.008 -0.01552,-0.031 -0.01552,-0.031 z" /><path
           inkscape:connector-curvature="0"
           id="path1900"
           style="font-style:normal;font-variant:normal;font-weight:bold;font-stretch:normal;font-size:7.76111px;line-height:1.25;font-family:'Life of Apple';-inkscape-font-specification:'Life of Apple Bold';letter-spacing:2.6326px;word-spacing:0px;fill:#ffffff;fill-opacity:1;stroke:none;stroke-width:0.264583"
           d="m -10.250085,-675.66134 q 0.01552,0.61312 0.02328,1.22625 0.01552,0.61313 0.08537,1.22626 0.01552,0.11641 -0.07761,0.20179 -0.09313,0.0776 -0.201789,0.0776 -0.124178,0 -0.194028,-0.0776 -0.06985,-0.0854 -0.08537,-0.20179 -0.06985,-0.61313 -0.08537,-1.22626 -0.0078,-0.61313 -0.02328,-1.22625 -0.0078,-0.1397 0.07761,-0.20179 0.08537,-0.0699 0.186266,-0.0699 0.108656,0 0.201789,0.0699 0.09313,0.0698 0.09313,0.20179 z m 0.232833,-1.05552 q 0.046567,0.16299 -0.08537,0.31821 -0.06985,0.0776 -0.178506,0.10866 -0.100894,0.031 -0.201789,0.008 -0.108655,0.0155 -0.20955,-0.0388 -0.100894,-0.0543 -0.155222,-0.15522 -0.06209,-0.10866 -0.04657,-0.2406 0.01552,-0.13193 0.108656,-0.21731 0.170744,-0.17074 0.403578,-0.10865 0.09313,0.0233 0.155222,0.10865 0.155222,0.0543 0.20955,0.21731 z" /><path
           inkscape:connector-curvature="0"
           id="path1902"
           style="font-style:normal;font-variant:normal;font-weight:bold;font-stretch:normal;font-size:7.76111px;line-height:1.25;font-family:'Life of Apple';-inkscape-font-specification:'Life of Apple Bold';letter-spacing:2.6326px;word-spacing:0px;fill:#ffffff;fill-opacity:1;stroke:none;stroke-width:0.264583"
           d="m -5.6638625,-673.74435 q 0.085372,-0.10089 0.1862667,-0.0854 0.1086555,0.008 0.1862667,0.0854 0.077611,0.0699 0.093133,0.18627 0.015522,0.10865 -0.06985,0.20955 -0.1397,0.16298 -0.3182056,0.29492 -0.1707444,0.13194 -0.3958166,0.1785 -0.2173112,0.0466 -0.4268612,-0.0155 -0.2017889,-0.0543 -0.3570111,-0.21731 -0.1319389,-0.1397 -0.2173111,-0.31044 -0.085372,-0.17075 -0.1397,-0.35701 -0.046567,-0.18627 -0.062089,-0.3803 -0.023283,-0.19403 -0.015522,-0.37253 0.015522,-0.3803 0.1552222,-0.73731 0.1397,-0.36477 0.4734278,-0.58208 0.1707444,-0.10866 0.3725333,-0.13194 0.20955,-0.031 0.3880556,0.0543 0.20955,0.10089 0.2794,0.29492 0.06985,0.19403 0.06985,0.41134 0,0.13194 -0.085372,0.20179 -0.085372,0.0698 -0.1940278,0.0698 -0.1008944,0 -0.1940278,-0.0698 -0.085372,-0.0699 -0.085372,-0.20179 0,-0.0388 0,-0.10866 0,-0.0698 -0.015522,-0.0854 -0.015522,-0.008 -0.054328,-0.008 -0.031044,-0.008 -0.054328,0 -0.093133,0.0155 -0.1707444,0.0854 -0.077611,0.0621 -0.1397,0.1397 -0.1241778,0.17075 -0.1629834,0.38806 -0.031044,0.21731 -0.023283,0.4191 0.00776,0.21731 0.054328,0.44238 0.046567,0.21731 0.1785055,0.39582 0.085372,0.11641 0.1862667,0.13194 0.1086556,0.0155 0.20955,-0.0311 0.1008945,-0.0466 0.1862667,-0.13194 0.093133,-0.0854 0.1629833,-0.16298 z" /><path
           inkscape:connector-curvature="0"
           id="path1904"
           style="font-style:normal;font-variant:normal;font-weight:bold;font-stretch:normal;font-size:7.76111px;line-height:1.25;font-family:'Life of Apple';-inkscape-font-specification:'Life of Apple Bold';letter-spacing:2.6326px;word-spacing:0px;fill:#ffffff;fill-opacity:1;stroke:none;stroke-width:0.264583"
           d="m -0.50841153,-673.51928 q 0.11641667,-0.0621 0.21731112,-0.0155 0.10865556,0.0466 0.16298334,0.1397 0.05432777,0.0854 0.03880555,0.19403 -0.01552222,0.10089 -0.1397,0.16298 -0.25611667,0.13194 -0.54327779,0.22507 -0.27939999,0.1009 -0.57432219,0.0543 -0.2794,-0.0388 -0.4811889,-0.21731 -0.1940278,-0.18627 -0.3026834,-0.43462 -0.1008944,-0.2406 -0.1474611,-0.50447 -0.054328,-0.26388 -0.046567,-0.53552 0,-0.27164 0.062089,-0.53552 0.054328,-0.26388 0.1707445,-0.49671 0.1164166,-0.22507 0.3104444,-0.38029 0.2017889,-0.15523 0.4501445,-0.17851 0.2173111,-0.031 0.41133888,0.0543 0.20178889,0.0854 0.31820556,0.27164 0.0853722,0.13194 0.10865556,0.2794 0.0310444,0.14746 0.007761,0.30268 -0.0155222,0.15522 -0.06985,0.30268 -0.0543278,0.14747 -0.13970001,0.26388 -0.18626667,0.27164 -0.46566669,0.40358 -0.2716389,0.12418 -0.5898444,0.10866 0.046567,0.28716 0.1707444,0.49671 0.093133,0.16298 0.2173111,0.21731 0.1319389,0.0466 0.2794,0.031 0.14746114,-0.0155 0.29492226,-0.0776 0.14746111,-0.0698 0.2794,-0.13194 z m -0.90804997,-1.91699 q -0.1164167,0.0776 -0.1785056,0.20955 -0.054328,0.13194 -0.093133,0.26388 -0.046567,0.16298 -0.06985,0.34925 0.2017889,0.0233 0.3647722,-0.0466 0.1785055,-0.1009 0.2638778,-0.26388 0.031044,-0.0543 0.038806,-0.0776 0.00776,-0.0233 0.023283,-0.0698 0.031044,-0.10089 0.031044,-0.1397 v -0.10089 -0.0155 q 0,0.008 -0.00776,-0.0155 -0.00776,-0.0543 -0.031044,-0.0854 0.00776,0.0155 -0.015522,-0.008 -0.015522,-0.0233 -0.031044,-0.031 -0.015522,-0.008 -0.038806,-0.0155 -0.015522,-0.008 -0.031044,-0.008 -0.1241778,-0.0233 -0.2250722,0.0543 z" /><path
           inkscape:connector-curvature="0"
           id="path1906"
           style="font-style:normal;font-variant:normal;font-weight:bold;font-stretch:normal;font-size:7.76111px;line-height:1.25;font-family:'Life of Apple';-inkscape-font-specification:'Life of Apple Bold';letter-spacing:2.6326px;word-spacing:0px;fill:#ffffff;fill-opacity:1;stroke:none;stroke-width:0.264583"
           d="m 4.6955463,-675.00941 q -0.023283,0.13194 -0.1241778,0.1785 -0.093133,0.0466 -0.1940278,0.0155 -0.1008944,-0.0311 -0.1707444,-0.11642 -0.06985,-0.0931 -0.046567,-0.22507 0.015522,-0.0621 0.015522,-0.13194 0.00776,-0.0698 -0.00776,-0.1397 -0.00776,-0.0543 -0.023283,-0.0466 -0.00776,0 -0.054328,0.0155 -0.077611,0.0311 -0.1474611,0.1009 -0.062089,0.0698 -0.1164167,0.15522 -0.046567,0.0776 -0.085372,0.17075 -0.038806,0.0854 -0.062089,0.15522 -0.1629833,0.44238 -0.1552222,0.90805 0.00776,0.4579 0.046567,0.91581 0.015522,0.11642 -0.077611,0.19403 -0.093133,0.0854 -0.2017889,0.0854 -0.1241777,0 -0.1940277,-0.0854 -0.06985,-0.0854 -0.085372,-0.19403 -0.077611,-0.68298 -0.1319389,-1.36596 -0.046567,-0.68297 -0.085372,-1.36595 -0.00776,-0.1397 0.077611,-0.20179 0.085372,-0.0698 0.1862667,-0.0698 0.1086556,0 0.1940278,0.0698 0.093133,0.0621 0.1008944,0.20179 0.00776,0.0698 0.00776,0.1397 0,0.0698 0.00776,0.1397 0.031044,-0.0466 0.054328,-0.0698 0.077611,-0.11642 0.1940278,-0.21731 0.1164167,-0.10866 0.2483556,-0.17075 0.1319389,-0.0698 0.2794,-0.0776 0.1474611,-0.008 0.2871611,0.0776 0.1241778,0.0776 0.1940278,0.19403 0.06985,0.10866 0.093133,0.24059 0.023283,0.12418 0.00776,0.26388 -0.00776,0.13194 -0.031044,0.25612 z" /><path
           style="font-style:normal;font-variant:normal;font-weight:bold;font-stretch:normal;font-size:7.76111px;line-height:1.25;font-family:'Life of Apple';-inkscape-font-specification:'Life of Apple Bold';letter-spacing:2.6326px;word-spacing:0px;fill:#ffffff;fill-opacity:1;stroke:none;stroke-width:0.264583"
           d="m 8.2536645,-675.66134 q 0.015522,0.61312 0.023283,1.22625 0.015522,0.61313 0.085372,1.22626 0.015522,0.11641 -0.077611,0.20179 -0.093133,0.0776 -0.2017888,0.0776 -0.1241778,0 -0.1940278,-0.0776 -0.06985,-0.0854 -0.085372,-0.20179 -0.06985,-0.61313 -0.085372,-1.22626 -0.00776,-0.61313 -0.023283,-1.22625 -0.00776,-0.1397 0.077611,-0.20179 0.085372,-0.0699 0.1862667,-0.0699 0.1086555,0 0.2017889,0.0699 0.093133,0.0698 0.093133,0.20179 z"
           id="path1924"
           inkscape:connector-curvature="0" /><path
           style="font-style:normal;font-variant:normal;font-weight:bold;font-stretch:normal;font-size:7.76111px;line-height:1.25;font-family:'Life of Apple';-inkscape-font-specification:'Life of Apple Bold';letter-spacing:2.6326px;word-spacing:0px;fill:#ffffff;fill-opacity:1;stroke:none;stroke-width:0.264583"
           d="m 8.8408505,-677.11846 c 0.031045,0.10866 -0.3517654,0.61633 -0.4397247,0.71981 -0.046567,0.0517 -0.1060685,0.0879 -0.1785055,0.10866 -0.067263,0.0207 -0.134526,0.0233 -0.2017889,0.008 -0.072437,0.0103 -0.1422871,-0.003 -0.20955,-0.0388 -0.067263,-0.0362 -0.1190038,-0.0879 -0.1552223,-0.15522 -0.041393,-0.0724 -0.056915,-0.15264 -0.046567,-0.2406 0.010348,-0.088 0.046566,-0.16039 0.1086555,-0.21731 0.1138297,-0.11383 0.6027083,-0.55164 0.7579305,-0.51025 0.062089,0.0155 0.1138294,0.0517 0.1552222,0.10865 0.1034815,0.0362 0.1733315,0.10864 0.20955,0.21731 z"
           id="path1908"
           inkscape:connector-curvature="0"
           sodipodi:nodetypes="ccccsccccccc" /><path
           inkscape:connector-curvature="0"
           id="path1910"
           style="font-style:normal;font-variant:normal;font-weight:bold;font-stretch:normal;font-size:7.76111px;line-height:1.25;font-family:'Life of Apple';-inkscape-font-specification:'Life of Apple Bold';letter-spacing:2.6326px;word-spacing:0px;fill:#ffffff;fill-opacity:1;stroke:none;stroke-width:0.264583"
           d="m 13.266745,-675.18792 q -0.01552,1.01671 0.263877,1.9558 0.03105,0.13194 -0.0388,0.22508 -0.06209,0.0854 -0.162983,0.10865 -0.100895,0.031 -0.201789,-0.0155 -0.100895,-0.0388 -0.1397,-0.17075 -0.04657,-0.15522 -0.08537,-0.3182 -0.03104,-0.16298 -0.06985,-0.32597 -0.05433,0.12418 -0.124177,0.24836 -0.09313,0.17074 -0.217311,0.32596 -0.124178,0.14747 -0.310445,0.21732 -0.178505,0.0621 -0.357011,0.0155 -0.178506,-0.0466 -0.294922,-0.19403 -0.116417,-0.14746 -0.155222,-0.34149 -0.04657,-0.19403 -0.06209,-0.37253 -0.01552,-0.19403 0,-0.3803 0.0078,-0.19402 0.04657,-0.38029 0.03881,-0.19403 0.100895,-0.3803 0.06209,-0.19402 0.147461,-0.37253 0.06985,-0.15522 0.162983,-0.30268 0.100895,-0.14746 0.256117,-0.2406 0.162983,-0.10089 0.357011,-0.10865 0.201789,-0.008 0.357011,0.10089 0.124178,0.0854 0.194028,0.20179 0.06985,0.10866 0.124178,0.2406 0.08537,0.0233 0.147461,0.0931 0.06985,0.0621 0.06209,0.17074 z m -0.915811,1.17193 q 0.108655,-0.24835 0.178505,-0.50447 0.07761,-0.25612 0.1397,-0.52 -0.08537,-0.0466 -0.116417,-0.14746 -0.01552,-0.0388 -0.03104,-0.0854 -0.01552,-0.0543 -0.03881,-0.0931 -0.02328,-0.0466 -0.06209,-0.0621 -0.03881,-0.0155 -0.09313,0.0155 -0.108655,0.0543 -0.170744,0.18627 -0.05433,0.12418 -0.09313,0.23283 -0.124177,0.29492 -0.186266,0.62089 -0.05433,0.31821 0.0078,0.63641 0.0078,0.0543 0.02328,0.14746 0.01552,0.0854 0.05433,0.12418 l 0.0078,0.008 q 0.02328,-0.008 0.06985,-0.0388 0.108656,-0.0854 0.178506,-0.2406 0.07761,-0.15522 0.131939,-0.2794 z" /></g></g></g></svg>
